<ttFont>
<head>
    <!-- Most of this table will be recalculated by the compiler -->
    <tableVersion value="1.0"/>
    <fontRevision value="1.11"/>
    <checkSumAdjustment value="0xc1e3818a"/>
    <magicNumber value="0x5f0f3cf5"/>
    <flags value="00000000 00000011"/>
    <unitsPerEm value="1500"/>
    <created value="Thu Oct 18 14:18:58 2018"/>
    <modified value="Thu Oct 18 14:18:58 2018"/>
    <xMin value="0"/>
    <yMin value="-300"/>
    <xMax value="800"/>
    <yMax value="1200"/>
    <macStyle value="00000000 00000001"/>
    <lowestRecPPEM value="15"/>
    <fontDirectionHint value="0"/>
    <indexToLocFormat value="1"/>
    <glyphDataFormat value="0"/>
  </head>
    <TTGlyph name=".null" xMin="100" yMin="0" xMax="700" yMax="800">
      <contour>
        <pt x="100" y="0" on="1"/>
        <pt x="100" y="800" on="1"/>
        <pt x="700" y="800" on="1"/>
        <pt x="700" y="0" on="1"/>
      </contour>
      <contour>
        <pt x="200" y="100" on="1"/>
        <pt x="600" y="100" on="1"/>
        <pt x="600" y="700" on="1"/>
        <pt x="200" y="700" on="1"/>
      </contour>
    </TTGlyph>
    <TTGlyph name="A" xMin="100" yMin="0" xMax="700" yMax="800">
      <contour>
        <pt x="100" y="0" on="1"/>
        <pt x="100" y="600" on="1"/>
        <pt x="200" y="600" on="1"/>
        <pt x="200" y="700" on="1"/>
        <pt x="300" y="700" on="1"/>
        <pt x="300" y="800" on="1"/>
        <pt x="500" y="800" on="1"/>
        <pt x="500" y="700" on="1"/>
        <pt x="600" y="700" on="1"/>
        <pt x="600" y="600" on="1"/>
        <pt x="700" y="600" on="1"/>
        <pt x="700" y="0" on="1"/>
        <pt x="500" y="0" on="1"/>
        <pt x="500" y="300" on="1"/>
        <pt x="300" y="300" on="1"/>
        <pt x="300" y="0" on="1"/>
      </contour>
      <contour>
        <pt x="300" y="400" on="1"/>
        <pt x="500" y="400" on="1"/>
        <pt x="500" y="600" on="1"/>
        <pt x="300" y="600" on="1"/>
      </contour>
    </TTGlyph>
    <TTGlyph name="AE" xMin="100" yMin="0" xMax="800" yMax="800">
      <contour>
        <pt x="800" y="100" on="1"/>
        <pt x="800" y="0" on="1"/>
        <pt x="400" y="0" on="1"/>
        <pt x="400" y="300" on="1"/>
        <pt x="300" y="300" on="1"/>
        <pt x="300" y="0" on="1"/>
        <pt x="100" y="0" on="1"/>
        <pt x="100" y="600" on="1"/>
        <pt x="200" y="600" on="1"/>
        <pt x="200" y="700" on="1"/>
        <pt x="300" y="700" on="1"/>
        <pt x="300" y="800" on="1"/>
        <pt x="800" y="800" on="1"/>
        <pt x="800" y="700" on="1"/>
        <pt x="600" y="700" on="1"/>
        <pt x="600" y="500" on="1"/>
        <pt x="800" y="500" on="1"/>
        <pt x="800" y="400" on="1"/>
        <pt x="600" y="400" on="1"/>
        <pt x="600" y="100" on="1"/>
      </contour>
      <contour>
        <pt x="300" y="400" on="1"/>
        <pt x="400" y="400" on="1"/>
        <pt x="400" y="600" on="1"/>
        <pt x="300" y="600" on="1"/>
      </contour>
    </TTGlyph>
    <TTGlyph name="Aacute" xMin="100" yMin="0" xMax="700" yMax="1100">
      <contour>
        <pt x="200" y="600" on="1"/>
        <pt x="200" y="700" on="1"/>
        <pt x="300" y="700" on="1"/>
        <pt x="300" y="800" on="1"/>
        <pt x="500" y="800" on="1"/>
        <pt x="500" y="700" on="1"/>
        <pt x="600" y="700" on="1"/>
        <pt x="600" y="600" on="1"/>
        <pt x="700" y="600" on="1"/>
        <pt x="700" y="0" on="1"/>
        <pt x="500" y="0" on="1"/>
        <pt x="500" y="300" on="1"/>
        <pt x="300" y="300" on="1"/>
        <pt x="300" y="0" on="1"/>
        <pt x="100" y="0" on="1"/>
        <pt x="100" y="600" on="1"/>
      </contour>
      <contour>
        <pt x="400" y="1000" on="1"/>
        <pt x="400" y="1100" on="1"/>
        <pt x="600" y="1100" on="1"/>
        <pt x="600" y="1000" on="1"/>
        <pt x="500" y="1000" on="1"/>
        <pt x="500" y="900" on="1"/>
        <pt x="300" y="900" on="1"/>
        <pt x="300" y="1000" on="1"/>
      </contour>
      <contour>
        <pt x="300" y="400" on="1"/>
        <pt x="500" y="400" on="1"/>
        <pt x="500" y="600" on="1"/>
        <pt x="300" y="600" on="1"/>
      </contour>
    </TTGlyph>
    <TTGlyph name="Acircumflex" xMin="100" yMin="0" xMax="700" yMax="1100">
      <contour>
        <pt x="200" y="500" on="1"/>
        <pt x="200" y="600" on="1"/>
        <pt x="300" y="600" on="1"/>
        <pt x="300" y="700" on="1"/>
        <pt x="500" y="700" on="1"/>
        <pt x="500" y="600" on="1"/>
        <pt x="600" y="600" on="1"/>
        <pt x="600" y="500" on="1"/>
        <pt x="700" y="500" on="1"/>
        <pt x="700" y="0" on="1"/>
        <pt x="500" y="0" on="1"/>
        <pt x="500" y="200" on="1"/>
        <pt x="300" y="200" on="1"/>
        <pt x="300" y="0" on="1"/>
        <pt x="100" y="0" on="1"/>
        <pt x="100" y="500" on="1"/>
      </contour>
      <contour>
        <pt x="200" y="900" on="1"/>
        <pt x="200" y="1000" on="1"/>
        <pt x="300" y="1000" on="1"/>
        <pt x="300" y="1100" on="1"/>
        <pt x="500" y="1100" on="1"/>
        <pt x="500" y="1000" on="1"/>
        <pt x="600" y="1000" on="1"/>
        <pt x="600" y="900" on="1"/>
        <pt x="700" y="900" on="1"/>
        <pt x="700" y="800" on="1"/>
        <pt x="500" y="800" on="1"/>
        <pt x="500" y="900" on="1"/>
        <pt x="300" y="900" on="1"/>
        <pt x="300" y="800" on="1"/>
        <pt x="100" y="800" on="1"/>
        <pt x="100" y="900" on="1"/>
      </contour>
      <contour>
        <pt x="300" y="500" on="1"/>
        <pt x="300" y="300" on="1"/>
        <pt x="500" y="300" on="1"/>
        <pt x="500" y="500" on="1"/>
      </contour>
    </TTGlyph>
    <TTGlyph name="Adieresis" xMin="100" yMin="0" xMax="700" yMax="1100">
      <contour>
        <pt x="200" y="600" on="1"/>
        <pt x="200" y="700" on="1"/>
        <pt x="300" y="700" on="1"/>
        <pt x="300" y="800" on="1"/>
        <pt x="500" y="800" on="1"/>
        <pt x="500" y="700" on="1"/>
        <pt x="600" y="700" on="1"/>
        <pt x="600" y="600" on="1"/>
        <pt x="700" y="600" on="1"/>
        <pt x="700" y="0" on="1"/>
        <pt x="500" y="0" on="1"/>
        <pt x="500" y="300" on="1"/>
        <pt x="300" y="300" on="1"/>
        <pt x="300" y="0" on="1"/>
        <pt x="100" y="0" on="1"/>
        <pt x="100" y="600" on="1"/>
      </contour>
      <contour>
        <pt x="100" y="1100" on="1"/>
        <pt x="300" y="1100" on="1"/>
        <pt x="300" y="900" on="1"/>
        <pt x="100" y="900" on="1"/>
      </contour>
      <contour>
        <pt x="300" y="400" on="1"/>
        <pt x="500" y="400" on="1"/>
        <pt x="500" y="600" on="1"/>
        <pt x="300" y="600" on="1"/>
      </contour>
      <contour>
        <pt x="500" y="1100" on="1"/>
        <pt x="700" y="1100" on="1"/>
        <pt x="700" y="900" on="1"/>
        <pt x="500" y="900" on="1"/>
      </contour>
    </TTGlyph>
    <TTGlyph name="Agrave" xMin="100" yMin="0" xMax="700" yMax="1100">
      <contour>
        <pt x="200" y="600" on="1"/>
        <pt x="200" y="700" on="1"/>
        <pt x="300" y="700" on="1"/>
        <pt x="300" y="800" on="1"/>
        <pt x="500" y="800" on="1"/>
        <pt x="500" y="700" on="1"/>
        <pt x="600" y="700" on="1"/>
        <pt x="600" y="600" on="1"/>
        <pt x="700" y="600" on="1"/>
        <pt x="700" y="0" on="1"/>
        <pt x="500" y="0" on="1"/>
        <pt x="500" y="300" on="1"/>
        <pt x="300" y="300" on="1"/>
        <pt x="300" y="0" on="1"/>
        <pt x="100" y="0" on="1"/>
        <pt x="100" y="600" on="1"/>
      </contour>
      <contour>
        <pt x="200" y="1000" on="1"/>
        <pt x="200" y="1100" on="1"/>
        <pt x="400" y="1100" on="1"/>
        <pt x="400" y="1000" on="1"/>
        <pt x="500" y="1000" on="1"/>
        <pt x="500" y="900" on="1"/>
        <pt x="300" y="900" on="1"/>
        <pt x="300" y="1000" on="1"/>
      </contour>
      <contour>
        <pt x="300" y="400" on="1"/>
        <pt x="500" y="400" on="1"/>
        <pt x="500" y="600" on="1"/>
        <pt x="300" y="600" on="1"/>
      </contour>
    </TTGlyph>
    <TTGlyph name="Aring" xMin="100" yMin="0" xMax="700" yMax="1100">
      <contour>
        <pt x="200" y="600" on="1"/>
        <pt x="200" y="800" on="1"/>
        <pt x="100" y="800" on="1"/>
        <pt x="100" y="1000" on="1"/>
        <pt x="200" y="1000" on="1"/>
        <pt x="200" y="1100" on="1"/>
        <pt x="600" y="1100" on="1"/>
        <pt x="600" y="1000" on="1"/>
        <pt x="700" y="1000" on="1"/>
        <pt x="700" y="800" on="1"/>
        <pt x="600" y="800" on="1"/>
        <pt x="600" y="600" on="1"/>
        <pt x="700" y="600" on="1"/>
        <pt x="700" y="0" on="1"/>
        <pt x="500" y="0" on="1"/>
        <pt x="500" y="300" on="1"/>
        <pt x="300" y="300" on="1"/>
        <pt x="300" y="0" on="1"/>
        <pt x="100" y="0" on="1"/>
        <pt x="100" y="600" on="1"/>
      </contour>
      <contour>
        <pt x="300" y="400" on="1"/>
        <pt x="500" y="400" on="1"/>
        <pt x="500" y="600" on="1"/>
        <pt x="300" y="600" on="1"/>
      </contour>
      <contour>
        <pt x="300" y="1000" on="1"/>
        <pt x="300" y="800" on="1"/>
        <pt x="500" y="800" on="1"/>
        <pt x="500" y="1000" on="1"/>
      </contour>
    </TTGlyph>
    <TTGlyph name="Atilde" xMin="100" yMin="0" xMax="700" yMax="1100">
      <contour>
        <pt x="200" y="500" on="1"/>
        <pt x="200" y="600" on="1"/>
        <pt x="300" y="600" on="1"/>
        <pt x="300" y="700" on="1"/>
        <pt x="500" y="700" on="1"/>
        <pt x="500" y="600" on="1"/>
        <pt x="600" y="600" on="1"/>
        <pt x="600" y="500" on="1"/>
        <pt x="700" y="500" on="1"/>
        <pt x="700" y="0" on="1"/>
        <pt x="500" y="0" on="1"/>
        <pt x="500" y="200" on="1"/>
        <pt x="300" y="200" on="1"/>
        <pt x="300" y="0" on="1"/>
        <pt x="100" y="0" on="1"/>
        <pt x="100" y="500" on="1"/>
      </contour>
      <contour>
        <pt x="200" y="1000" on="1"/>
        <pt x="200" y="1100" on="1"/>
        <pt x="400" y="1100" on="1"/>
        <pt x="400" y="1000" on="1"/>
        <pt x="600" y="1000" on="1"/>
        <pt x="600" y="1100" on="1"/>
        <pt x="700" y="1100" on="1"/>
        <pt x="700" y="900" on="1"/>
        <pt x="600" y="900" on="1"/>
        <pt x="600" y="800" on="1"/>
        <pt x="400" y="800" on="1"/>
        <pt x="400" y="900" on="1"/>
        <pt x="200" y="900" on="1"/>
        <pt x="200" y="800" on="1"/>
        <pt x="100" y="800" on="1"/>
        <pt x="100" y="1000" on="1"/>
      </contour>
      <contour>
        <pt x="300" y="500" on="1"/>
        <pt x="300" y="300" on="1"/>
        <pt x="500" y="300" on="1"/>
        <pt x="500" y="500" on="1"/>
      </contour>
    </TTGlyph>
    <TTGlyph name="B" xMin="100" yMin="0" xMax="700" yMax="800">
      <contour>
        <pt x="100" y="0" on="1"/>
        <pt x="100" y="800" on="1"/>
        <pt x="600" y="800" on="1"/>
        <pt x="600" y="700" on="1"/>
        <pt x="700" y="700" on="1"/>
        <pt x="700" y="500" on="1"/>
        <pt x="600" y="500" on="1"/>
        <pt x="600" y="400" on="1"/>
        <pt x="700" y="400" on="1"/>
        <pt x="700" y="100" on="1"/>
        <pt x="600" y="100" on="1"/>
        <pt x="600" y="0" on="1"/>
      </contour>
      <contour>
        <pt x="300" y="100" on="1"/>
        <pt x="500" y="100" on="1"/>
        <pt x="500" y="400" on="1"/>
        <pt x="300" y="400" on="1"/>
      </contour>
      <contour>
        <pt x="300" y="500" on="1"/>
        <pt x="500" y="500" on="1"/>
        <pt x="500" y="700" on="1"/>
        <pt x="300" y="700" on="1"/>
      </contour>
    </TTGlyph>
    <TTGlyph name="C" xMin="100" yMin="0" xMax="700" yMax="800">
      <contour>
        <pt x="100" y="200" on="1"/>
        <pt x="100" y="600" on="1"/>
        <pt x="200" y="600" on="1"/>
        <pt x="200" y="700" on="1"/>
        <pt x="300" y="700" on="1"/>
        <pt x="300" y="800" on="1"/>
        <pt x="700" y="800" on="1"/>
        <pt x="700" y="700" on="1"/>
        <pt x="400" y="700" on="1"/>
        <pt x="400" y="600" on="1"/>
        <pt x="300" y="600" on="1"/>
        <pt x="300" y="200" on="1"/>
        <pt x="400" y="200" on="1"/>
        <pt x="400" y="100" on="1"/>
        <pt x="700" y="100" on="1"/>
        <pt x="700" y="0" on="1"/>
        <pt x="300" y="0" on="1"/>
        <pt x="300" y="100" on="1"/>
        <pt x="200" y="100" on="1"/>
        <pt x="200" y="200" on="1"/>
      </contour>
    </TTGlyph>
    <TTGlyph name="Ccedilla" xMin="100" yMin="-300" xMax="700" yMax="800">
      <contour>
        <pt x="200" y="200" on="1"/>
        <pt x="100" y="200" on="1"/>
        <pt x="100" y="600" on="1"/>
        <pt x="200" y="600" on="1"/>
        <pt x="200" y="700" on="1"/>
        <pt x="300" y="700" on="1"/>
        <pt x="300" y="800" on="1"/>
        <pt x="700" y="800" on="1"/>
        <pt x="700" y="700" on="1"/>
        <pt x="400" y="700" on="1"/>
        <pt x="400" y="600" on="1"/>
        <pt x="300" y="600" on="1"/>
        <pt x="300" y="200" on="1"/>
        <pt x="400" y="200" on="1"/>
        <pt x="400" y="100" on="1"/>
        <pt x="700" y="100" on="1"/>
        <pt x="700" y="0" on="1"/>
        <pt x="600" y="0" on="1"/>
        <pt x="600" y="-200" on="1"/>
        <pt x="500" y="-200" on="1"/>
        <pt x="500" y="-300" on="1"/>
        <pt x="200" y="-300" on="1"/>
        <pt x="200" y="-200" on="1"/>
        <pt x="400" y="-200" on="1"/>
        <pt x="400" y="0" on="1"/>
        <pt x="300" y="0" on="1"/>
        <pt x="300" y="100" on="1"/>
        <pt x="200" y="100" on="1"/>
      </contour>
    </TTGlyph>
    <TTGlyph name="D" xMin="100" yMin="0" xMax="700" yMax="800">
      <contour>
        <pt x="100" y="0" on="1"/>
        <pt x="100" y="800" on="1"/>
        <pt x="500" y="800" on="1"/>
        <pt x="500" y="700" on="1"/>
        <pt x="600" y="700" on="1"/>
        <pt x="600" y="600" on="1"/>
        <pt x="700" y="600" on="1"/>
        <pt x="700" y="200" on="1"/>
        <pt x="600" y="200" on="1"/>
        <pt x="600" y="100" on="1"/>
        <pt x="500" y="100" on="1"/>
        <pt x="500" y="0" on="1"/>
      </contour>
      <contour>
        <pt x="300" y="100" on="1"/>
        <pt x="400" y="100" on="1"/>
        <pt x="400" y="200" on="1"/>
        <pt x="500" y="200" on="1"/>
        <pt x="500" y="600" on="1"/>
        <pt x="400" y="600" on="1"/>
        <pt x="400" y="700" on="1"/>
        <pt x="300" y="700" on="1"/>
      </contour>
    </TTGlyph>
    <TTGlyph name="E" xMin="100" yMin="0" xMax="700" yMax="800">
      <contour>
        <pt x="100" y="0" on="1"/>
        <pt x="100" y="800" on="1"/>
        <pt x="700" y="800" on="1"/>
        <pt x="700" y="700" on="1"/>
        <pt x="300" y="700" on="1"/>
        <pt x="300" y="500" on="1"/>
        <pt x="600" y="500" on="1"/>
        <pt x="600" y="400" on="1"/>
        <pt x="300" y="400" on="1"/>
        <pt x="300" y="100" on="1"/>
        <pt x="700" y="100" on="1"/>
        <pt x="700" y="0" on="1"/>
      </contour>
    </TTGlyph>
    <TTGlyph name="Eacute" xMin="100" yMin="0" xMax="700" yMax="1100">
      <contour>
        <pt x="100" y="0" on="1"/>
        <pt x="100" y="800" on="1"/>
        <pt x="700" y="800" on="1"/>
        <pt x="700" y="700" on="1"/>
        <pt x="300" y="700" on="1"/>
        <pt x="300" y="500" on="1"/>
        <pt x="600" y="500" on="1"/>
        <pt x="600" y="400" on="1"/>
        <pt x="300" y="400" on="1"/>
        <pt x="300" y="100" on="1"/>
        <pt x="700" y="100" on="1"/>
        <pt x="700" y="0" on="1"/>
      </contour>
      <contour>
        <pt x="300" y="900" on="1"/>
        <pt x="300" y="1000" on="1"/>
        <pt x="400" y="1000" on="1"/>
        <pt x="400" y="1100" on="1"/>
        <pt x="600" y="1100" on="1"/>
        <pt x="600" y="1000" on="1"/>
        <pt x="500" y="1000" on="1"/>
        <pt x="500" y="900" on="1"/>
      </contour>
    </TTGlyph>
    <TTGlyph name="Ecircumflex" xMin="100" yMin="0" xMax="700" yMax="1100">
      <contour>
        <pt x="200" y="900" on="1"/>
        <pt x="200" y="1000" on="1"/>
        <pt x="300" y="1000" on="1"/>
        <pt x="300" y="1100" on="1"/>
        <pt x="500" y="1100" on="1"/>
        <pt x="500" y="1000" on="1"/>
        <pt x="600" y="1000" on="1"/>
        <pt x="600" y="900" on="1"/>
        <pt x="700" y="900" on="1"/>
        <pt x="700" y="800" on="1"/>
        <pt x="500" y="800" on="1"/>
        <pt x="500" y="900" on="1"/>
        <pt x="300" y="900" on="1"/>
        <pt x="300" y="800" on="1"/>
        <pt x="100" y="800" on="1"/>
        <pt x="100" y="900" on="1"/>
      </contour>
      <contour>
        <pt x="600" y="400" on="1"/>
        <pt x="600" y="300" on="1"/>
        <pt x="300" y="300" on="1"/>
        <pt x="300" y="100" on="1"/>
        <pt x="700" y="100" on="1"/>
        <pt x="700" y="0" on="1"/>
        <pt x="100" y="0" on="1"/>
        <pt x="100" y="700" on="1"/>
        <pt x="700" y="700" on="1"/>
        <pt x="700" y="600" on="1"/>
        <pt x="300" y="600" on="1"/>
        <pt x="300" y="400" on="1"/>
      </contour>
    </TTGlyph>
    <TTGlyph name="Edieresis" xMin="100" yMin="0" xMax="700" yMax="1100">
      <contour>
        <pt x="100" y="1100" on="1"/>
        <pt x="300" y="1100" on="1"/>
        <pt x="300" y="900" on="1"/>
        <pt x="100" y="900" on="1"/>
      </contour>
      <contour>
        <pt x="100" y="0" on="1"/>
        <pt x="100" y="800" on="1"/>
        <pt x="700" y="800" on="1"/>
        <pt x="700" y="700" on="1"/>
        <pt x="300" y="700" on="1"/>
        <pt x="300" y="500" on="1"/>
        <pt x="600" y="500" on="1"/>
        <pt x="600" y="400" on="1"/>
        <pt x="300" y="400" on="1"/>
        <pt x="300" y="100" on="1"/>
        <pt x="700" y="100" on="1"/>
        <pt x="700" y="0" on="1"/>
      </contour>
      <contour>
        <pt x="500" y="1100" on="1"/>
        <pt x="700" y="1100" on="1"/>
        <pt x="700" y="900" on="1"/>
        <pt x="500" y="900" on="1"/>
      </contour>
    </TTGlyph>
    <TTGlyph name="Egrave" xMin="100" yMin="0" xMax="700" yMax="1100">
      <contour>
        <pt x="100" y="0" on="1"/>
        <pt x="100" y="800" on="1"/>
        <pt x="700" y="800" on="1"/>
        <pt x="700" y="700" on="1"/>
        <pt x="300" y="700" on="1"/>
        <pt x="300" y="500" on="1"/>
        <pt x="600" y="500" on="1"/>
        <pt x="600" y="400" on="1"/>
        <pt x="300" y="400" on="1"/>
        <pt x="300" y="100" on="1"/>
        <pt x="700" y="100" on="1"/>
        <pt x="700" y="0" on="1"/>
      </contour>
      <contour>
        <pt x="200" y="1000" on="1"/>
        <pt x="200" y="1100" on="1"/>
        <pt x="400" y="1100" on="1"/>
        <pt x="400" y="1000" on="1"/>
        <pt x="500" y="1000" on="1"/>
        <pt x="500" y="900" on="1"/>
        <pt x="300" y="900" on="1"/>
        <pt x="300" y="1000" on="1"/>
      </contour>
    </TTGlyph>
    <TTGlyph name="Eth" xMin="100" yMin="0" xMax="800" yMax="800">
      <contour>
        <pt x="200" y="0" on="1"/>
        <pt x="200" y="400" on="1"/>
        <pt x="100" y="400" on="1"/>
        <pt x="100" y="500" on="1"/>
        <pt x="200" y="500" on="1"/>
        <pt x="200" y="800" on="1"/>
        <pt x="600" y="800" on="1"/>
        <pt x="600" y="700" on="1"/>
        <pt x="700" y="700" on="1"/>
        <pt x="700" y="600" on="1"/>
        <pt x="800" y="600" on="1"/>
        <pt x="800" y="200" on="1"/>
        <pt x="700" y="200" on="1"/>
        <pt x="700" y="100" on="1"/>
        <pt x="600" y="100" on="1"/>
        <pt x="600" y="0" on="1"/>
      </contour>
      <contour>
        <pt x="400" y="100" on="1"/>
        <pt x="500" y="100" on="1"/>
        <pt x="500" y="200" on="1"/>
        <pt x="600" y="200" on="1"/>
        <pt x="600" y="600" on="1"/>
        <pt x="500" y="600" on="1"/>
        <pt x="500" y="700" on="1"/>
        <pt x="400" y="700" on="1"/>
        <pt x="400" y="500" on="1"/>
        <pt x="500" y="500" on="1"/>
        <pt x="500" y="400" on="1"/>
        <pt x="400" y="400" on="1"/>
      </contour>
    </TTGlyph>
    <TTGlyph name="F" xMin="100" yMin="0" xMax="700" yMax="800">
      <contour>
        <pt x="100" y="0" on="1"/>
        <pt x="100" y="800" on="1"/>
        <pt x="700" y="800" on="1"/>
        <pt x="700" y="700" on="1"/>
        <pt x="300" y="700" on="1"/>
        <pt x="300" y="500" on="1"/>
        <pt x="600" y="500" on="1"/>
        <pt x="600" y="400" on="1"/>
        <pt x="300" y="400" on="1"/>
        <pt x="300" y="0" on="1"/>
      </contour>
    </TTGlyph>
    <TTGlyph name="G" xMin="100" yMin="0" xMax="700" yMax="800">
      <contour>
        <pt x="100" y="200" on="1"/>
        <pt x="100" y="600" on="1"/>
        <pt x="200" y="600" on="1"/>
        <pt x="200" y="700" on="1"/>
        <pt x="300" y="700" on="1"/>
        <pt x="300" y="800" on="1"/>
        <pt x="700" y="800" on="1"/>
        <pt x="700" y="700" on="1"/>
        <pt x="400" y="700" on="1"/>
        <pt x="400" y="600" on="1"/>
        <pt x="300" y="600" on="1"/>
        <pt x="300" y="200" on="1"/>
        <pt x="400" y="200" on="1"/>
        <pt x="400" y="100" on="1"/>
        <pt x="500" y="100" on="1"/>
        <pt x="500" y="400" on="1"/>
        <pt x="700" y="400" on="1"/>
        <pt x="700" y="0" on="1"/>
        <pt x="300" y="0" on="1"/>
        <pt x="300" y="100" on="1"/>
        <pt x="200" y="100" on="1"/>
        <pt x="200" y="200" on="1"/>
      </contour>
    </TTGlyph>
    <TTGlyph name="H" xMin="100" yMin="0" xMax="700" yMax="800">
      <contour>
        <pt x="100" y="0" on="1"/>
        <pt x="100" y="800" on="1"/>
        <pt x="300" y="800" on="1"/>
        <pt x="300" y="500" on="1"/>
        <pt x="500" y="500" on="1"/>
        <pt x="500" y="800" on="1"/>
        <pt x="700" y="800" on="1"/>
        <pt x="700" y="0" on="1"/>
        <pt x="500" y="0" on="1"/>
        <pt x="500" y="400" on="1"/>
        <pt x="300" y="400" on="1"/>
        <pt x="300" y="0" on="1"/>
      </contour>
    </TTGlyph>
    <TTGlyph name="I" xMin="100" yMin="0" xMax="700" yMax="800">
      <contour>
        <pt x="100" y="0" on="1"/>
        <pt x="100" y="100" on="1"/>
        <pt x="300" y="100" on="1"/>
        <pt x="300" y="700" on="1"/>
        <pt x="100" y="700" on="1"/>
        <pt x="100" y="800" on="1"/>
        <pt x="700" y="800" on="1"/>
        <pt x="700" y="700" on="1"/>
        <pt x="500" y="700" on="1"/>
        <pt x="500" y="100" on="1"/>
        <pt x="700" y="100" on="1"/>
        <pt x="700" y="0" on="1"/>
      </contour>
    </TTGlyph>
    <TTGlyph name="Iacute" xMin="100" yMin="0" xMax="700" yMax="1100">
      <contour>
        <pt x="100" y="0" on="1"/>
        <pt x="100" y="100" on="1"/>
        <pt x="300" y="100" on="1"/>
        <pt x="300" y="700" on="1"/>
        <pt x="100" y="700" on="1"/>
        <pt x="100" y="800" on="1"/>
        <pt x="700" y="800" on="1"/>
        <pt x="700" y="700" on="1"/>
        <pt x="500" y="700" on="1"/>
        <pt x="500" y="100" on="1"/>
        <pt x="700" y="100" on="1"/>
        <pt x="700" y="0" on="1"/>
      </contour>
      <contour>
        <pt x="300" y="900" on="1"/>
        <pt x="300" y="1000" on="1"/>
        <pt x="400" y="1000" on="1"/>
        <pt x="400" y="1100" on="1"/>
        <pt x="600" y="1100" on="1"/>
        <pt x="600" y="1000" on="1"/>
        <pt x="500" y="1000" on="1"/>
        <pt x="500" y="900" on="1"/>
      </contour>
    </TTGlyph>
    <TTGlyph name="Icircumflex" xMin="100" yMin="0" xMax="700" yMax="1100">
      <contour>
        <pt x="200" y="900" on="1"/>
        <pt x="200" y="1000" on="1"/>
        <pt x="300" y="1000" on="1"/>
        <pt x="300" y="1100" on="1"/>
        <pt x="500" y="1100" on="1"/>
        <pt x="500" y="1000" on="1"/>
        <pt x="600" y="1000" on="1"/>
        <pt x="600" y="900" on="1"/>
        <pt x="700" y="900" on="1"/>
        <pt x="700" y="800" on="1"/>
        <pt x="500" y="800" on="1"/>
        <pt x="500" y="900" on="1"/>
        <pt x="300" y="900" on="1"/>
        <pt x="300" y="800" on="1"/>
        <pt x="100" y="800" on="1"/>
        <pt x="100" y="900" on="1"/>
      </contour>
      <contour>
        <pt x="100" y="0" on="1"/>
        <pt x="100" y="100" on="1"/>
        <pt x="300" y="100" on="1"/>
        <pt x="300" y="600" on="1"/>
        <pt x="100" y="600" on="1"/>
        <pt x="100" y="700" on="1"/>
        <pt x="700" y="700" on="1"/>
        <pt x="700" y="600" on="1"/>
        <pt x="500" y="600" on="1"/>
        <pt x="500" y="100" on="1"/>
        <pt x="700" y="100" on="1"/>
        <pt x="700" y="0" on="1"/>
      </contour>
    </TTGlyph>
    <TTGlyph name="Idieresis" xMin="100" yMin="0" xMax="700" yMax="1100">
      <contour>
        <pt x="100" y="1100" on="1"/>
        <pt x="300" y="1100" on="1"/>
        <pt x="300" y="900" on="1"/>
        <pt x="100" y="900" on="1"/>
      </contour>
      <contour>
        <pt x="100" y="0" on="1"/>
        <pt x="100" y="100" on="1"/>
        <pt x="300" y="100" on="1"/>
        <pt x="300" y="700" on="1"/>
        <pt x="100" y="700" on="1"/>
        <pt x="100" y="800" on="1"/>
        <pt x="700" y="800" on="1"/>
        <pt x="700" y="700" on="1"/>
        <pt x="500" y="700" on="1"/>
        <pt x="500" y="100" on="1"/>
        <pt x="700" y="100" on="1"/>
        <pt x="700" y="0" on="1"/>
      </contour>
      <contour>
        <pt x="500" y="1100" on="1"/>
        <pt x="700" y="1100" on="1"/>
        <pt x="700" y="900" on="1"/>
        <pt x="500" y="900" on="1"/>
      </contour>
    </TTGlyph>
    <TTGlyph name="Igrave" xMin="100" yMin="0" xMax="700" yMax="1100">
      <contour>
        <pt x="100" y="0" on="1"/>
        <pt x="100" y="100" on="1"/>
        <pt x="300" y="100" on="1"/>
        <pt x="300" y="700" on="1"/>
        <pt x="100" y="700" on="1"/>
        <pt x="100" y="800" on="1"/>
        <pt x="700" y="800" on="1"/>
        <pt x="700" y="700" on="1"/>
        <pt x="500" y="700" on="1"/>
        <pt x="500" y="100" on="1"/>
        <pt x="700" y="100" on="1"/>
        <pt x="700" y="0" on="1"/>
      </contour>
      <contour>
        <pt x="200" y="1000" on="1"/>
        <pt x="200" y="1100" on="1"/>
        <pt x="400" y="1100" on="1"/>
        <pt x="400" y="1000" on="1"/>
        <pt x="500" y="1000" on="1"/>
        <pt x="500" y="900" on="1"/>
        <pt x="300" y="900" on="1"/>
        <pt x="300" y="1000" on="1"/>
      </contour>
    </TTGlyph>
    <TTGlyph name="J" xMin="100" yMin="0" xMax="700" yMax="800">
      <contour>
        <pt x="100" y="100" on="1"/>
        <pt x="100" y="300" on="1"/>
        <pt x="300" y="300" on="1"/>
        <pt x="300" y="100" on="1"/>
        <pt x="500" y="100" on="1"/>
        <pt x="500" y="800" on="1"/>
        <pt x="700" y="800" on="1"/>
        <pt x="700" y="100" on="1"/>
        <pt x="600" y="100" on="1"/>
        <pt x="600" y="0" on="1"/>
        <pt x="200" y="0" on="1"/>
        <pt x="200" y="100" on="1"/>
      </contour>
    </TTGlyph>
    <TTGlyph name="K" xMin="100" yMin="0" xMax="800" yMax="800">
      <contour>
        <pt x="400" y="200" on="1"/>
        <pt x="400" y="300" on="1"/>
        <pt x="300" y="300" on="1"/>
        <pt x="300" y="0" on="1"/>
        <pt x="100" y="0" on="1"/>
        <pt x="100" y="800" on="1"/>
        <pt x="300" y="800" on="1"/>
        <pt x="300" y="500" on="1"/>
        <pt x="400" y="500" on="1"/>
        <pt x="400" y="600" on="1"/>
        <pt x="500" y="600" on="1"/>
        <pt x="500" y="700" on="1"/>
        <pt x="600" y="700" on="1"/>
        <pt x="600" y="800" on="1"/>
        <pt x="800" y="800" on="1"/>
        <pt x="800" y="700" on="1"/>
        <pt x="700" y="700" on="1"/>
        <pt x="700" y="600" on="1"/>
        <pt x="600" y="600" on="1"/>
        <pt x="600" y="500" on="1"/>
        <pt x="500" y="500" on="1"/>
        <pt x="500" y="300" on="1"/>
        <pt x="600" y="300" on="1"/>
        <pt x="600" y="200" on="1"/>
        <pt x="700" y="200" on="1"/>
        <pt x="700" y="100" on="1"/>
        <pt x="800" y="100" on="1"/>
        <pt x="800" y="0" on="1"/>
        <pt x="600" y="0" on="1"/>
        <pt x="600" y="100" on="1"/>
        <pt x="500" y="100" on="1"/>
        <pt x="500" y="200" on="1"/>
      </contour>
    </TTGlyph>
    <TTGlyph name="L" xMin="100" yMin="0" xMax="700" yMax="800">
      <contour>
        <pt x="100" y="0" on="1"/>
        <pt x="100" y="800" on="1"/>
        <pt x="300" y="800" on="1"/>
        <pt x="300" y="100" on="1"/>
        <pt x="700" y="100" on="1"/>
        <pt x="700" y="0" on="1"/>
      </contour>
    </TTGlyph>
    <TTGlyph name="M" xMin="100" yMin="0" xMax="800" yMax="800">
      <contour>
        <pt x="800" y="0" on="1"/>
        <pt x="600" y="0" on="1"/>
        <pt x="600" y="500" on="1"/>
        <pt x="500" y="500" on="1"/>
        <pt x="500" y="400" on="1"/>
        <pt x="400" y="400" on="1"/>
        <pt x="400" y="500" on="1"/>
        <pt x="300" y="500" on="1"/>
        <pt x="300" y="0" on="1"/>
        <pt x="100" y="0" on="1"/>
        <pt x="100" y="800" on="1"/>
        <pt x="300" y="800" on="1"/>
        <pt x="300" y="700" on="1"/>
        <pt x="400" y="700" on="1"/>
        <pt x="400" y="600" on="1"/>
        <pt x="500" y="600" on="1"/>
        <pt x="500" y="700" on="1"/>
        <pt x="600" y="700" on="1"/>
        <pt x="600" y="800" on="1"/>
        <pt x="800" y="800" on="1"/>
      </contour>
    </TTGlyph>
    <TTGlyph name="N" xMin="100" yMin="0" xMax="800" yMax="800">
      <contour>
        <pt x="800" y="0" on="1"/>
        <pt x="600" y="0" on="1"/>
        <pt x="600" y="300" on="1"/>
        <pt x="500" y="300" on="1"/>
        <pt x="500" y="400" on="1"/>
        <pt x="400" y="400" on="1"/>
        <pt x="400" y="500" on="1"/>
        <pt x="300" y="500" on="1"/>
        <pt x="300" y="0" on="1"/>
        <pt x="100" y="0" on="1"/>
        <pt x="100" y="800" on="1"/>
        <pt x="300" y="800" on="1"/>
        <pt x="300" y="700" on="1"/>
        <pt x="400" y="700" on="1"/>
        <pt x="400" y="600" on="1"/>
        <pt x="500" y="600" on="1"/>
        <pt x="500" y="500" on="1"/>
        <pt x="600" y="500" on="1"/>
        <pt x="600" y="800" on="1"/>
        <pt x="800" y="800" on="1"/>
      </contour>
    </TTGlyph>
    <TTGlyph name="Ntilde" xMin="100" yMin="0" xMax="800" yMax="1100">
      <contour>
        <pt x="200" y="1000" on="1"/>
        <pt x="200" y="1100" on="1"/>
        <pt x="400" y="1100" on="1"/>
        <pt x="400" y="1000" on="1"/>
        <pt x="600" y="1000" on="1"/>
        <pt x="600" y="1100" on="1"/>
        <pt x="700" y="1100" on="1"/>
        <pt x="700" y="900" on="1"/>
        <pt x="600" y="900" on="1"/>
        <pt x="600" y="800" on="1"/>
        <pt x="400" y="800" on="1"/>
        <pt x="400" y="900" on="1"/>
        <pt x="200" y="900" on="1"/>
        <pt x="200" y="800" on="1"/>
        <pt x="100" y="800" on="1"/>
        <pt x="100" y="1000" on="1"/>
      </contour>
      <contour>
        <pt x="400" y="500" on="1"/>
        <pt x="500" y="500" on="1"/>
        <pt x="500" y="400" on="1"/>
        <pt x="600" y="400" on="1"/>
        <pt x="600" y="700" on="1"/>
        <pt x="800" y="700" on="1"/>
        <pt x="800" y="0" on="1"/>
        <pt x="600" y="0" on="1"/>
        <pt x="600" y="200" on="1"/>
        <pt x="500" y="200" on="1"/>
        <pt x="500" y="300" on="1"/>
        <pt x="400" y="300" on="1"/>
        <pt x="400" y="400" on="1"/>
        <pt x="300" y="400" on="1"/>
        <pt x="300" y="0" on="1"/>
        <pt x="100" y="0" on="1"/>
        <pt x="100" y="700" on="1"/>
        <pt x="300" y="700" on="1"/>
        <pt x="300" y="600" on="1"/>
        <pt x="400" y="600" on="1"/>
      </contour>
    </TTGlyph>
    <TTGlyph name="O" xMin="100" yMin="0" xMax="700" yMax="800">
      <contour>
        <pt x="100" y="100" on="1"/>
        <pt x="100" y="700" on="1"/>
        <pt x="200" y="700" on="1"/>
        <pt x="200" y="800" on="1"/>
        <pt x="600" y="800" on="1"/>
        <pt x="600" y="700" on="1"/>
        <pt x="700" y="700" on="1"/>
        <pt x="700" y="100" on="1"/>
        <pt x="600" y="100" on="1"/>
        <pt x="600" y="0" on="1"/>
        <pt x="200" y="0" on="1"/>
        <pt x="200" y="100" on="1"/>
      </contour>
      <contour>
        <pt x="300" y="100" on="1"/>
        <pt x="500" y="100" on="1"/>
        <pt x="500" y="700" on="1"/>
        <pt x="300" y="700" on="1"/>
      </contour>
    </TTGlyph>
    <TTGlyph name="Oacute" xMin="100" yMin="0" xMax="700" yMax="1100">
      <contour>
        <pt x="100" y="100" on="1"/>
        <pt x="100" y="700" on="1"/>
        <pt x="200" y="700" on="1"/>
        <pt x="200" y="800" on="1"/>
        <pt x="600" y="800" on="1"/>
        <pt x="600" y="700" on="1"/>
        <pt x="700" y="700" on="1"/>
        <pt x="700" y="100" on="1"/>
        <pt x="600" y="100" on="1"/>
        <pt x="600" y="0" on="1"/>
        <pt x="200" y="0" on="1"/>
        <pt x="200" y="100" on="1"/>
      </contour>
      <contour>
        <pt x="300" y="100" on="1"/>
        <pt x="500" y="100" on="1"/>
        <pt x="500" y="700" on="1"/>
        <pt x="300" y="700" on="1"/>
      </contour>
      <contour>
        <pt x="500" y="1100" on="1"/>
        <pt x="700" y="1100" on="1"/>
        <pt x="700" y="1000" on="1"/>
        <pt x="600" y="1000" on="1"/>
        <pt x="600" y="900" on="1"/>
        <pt x="400" y="900" on="1"/>
        <pt x="400" y="1000" on="1"/>
        <pt x="500" y="1000" on="1"/>
      </contour>
    </TTGlyph>
    <TTGlyph name="Ocircumflex" xMin="100" yMin="0" xMax="700" yMax="1100">
      <contour>
        <pt x="200" y="100" on="1"/>
        <pt x="100" y="100" on="1"/>
        <pt x="100" y="600" on="1"/>
        <pt x="200" y="600" on="1"/>
        <pt x="200" y="700" on="1"/>
        <pt x="600" y="700" on="1"/>
        <pt x="600" y="600" on="1"/>
        <pt x="700" y="600" on="1"/>
        <pt x="700" y="100" on="1"/>
        <pt x="600" y="100" on="1"/>
        <pt x="600" y="0" on="1"/>
        <pt x="200" y="0" on="1"/>
      </contour>
      <contour>
        <pt x="200" y="900" on="1"/>
        <pt x="200" y="1000" on="1"/>
        <pt x="300" y="1000" on="1"/>
        <pt x="300" y="1100" on="1"/>
        <pt x="500" y="1100" on="1"/>
        <pt x="500" y="1000" on="1"/>
        <pt x="600" y="1000" on="1"/>
        <pt x="600" y="900" on="1"/>
        <pt x="700" y="900" on="1"/>
        <pt x="700" y="800" on="1"/>
        <pt x="500" y="800" on="1"/>
        <pt x="500" y="900" on="1"/>
        <pt x="300" y="900" on="1"/>
        <pt x="300" y="800" on="1"/>
        <pt x="100" y="800" on="1"/>
        <pt x="100" y="900" on="1"/>
      </contour>
      <contour>
        <pt x="300" y="100" on="1"/>
        <pt x="500" y="100" on="1"/>
        <pt x="500" y="600" on="1"/>
        <pt x="300" y="600" on="1"/>
      </contour>
    </TTGlyph>
    <TTGlyph name="Odieresis" xMin="100" yMin="0" xMax="700" yMax="1100">
      <contour>
        <pt x="100" y="1100" on="1"/>
        <pt x="300" y="1100" on="1"/>
        <pt x="300" y="900" on="1"/>
        <pt x="100" y="900" on="1"/>
      </contour>
      <contour>
        <pt x="100" y="100" on="1"/>
        <pt x="100" y="700" on="1"/>
        <pt x="200" y="700" on="1"/>
        <pt x="200" y="800" on="1"/>
        <pt x="600" y="800" on="1"/>
        <pt x="600" y="700" on="1"/>
        <pt x="700" y="700" on="1"/>
        <pt x="700" y="100" on="1"/>
        <pt x="600" y="100" on="1"/>
        <pt x="600" y="0" on="1"/>
        <pt x="200" y="0" on="1"/>
        <pt x="200" y="100" on="1"/>
      </contour>
      <contour>
        <pt x="300" y="100" on="1"/>
        <pt x="500" y="100" on="1"/>
        <pt x="500" y="700" on="1"/>
        <pt x="300" y="700" on="1"/>
      </contour>
      <contour>
        <pt x="500" y="1100" on="1"/>
        <pt x="700" y="1100" on="1"/>
        <pt x="700" y="900" on="1"/>
        <pt x="500" y="900" on="1"/>
      </contour>
    </TTGlyph>
    <TTGlyph name="Ograve" xMin="100" yMin="0" xMax="700" yMax="1100">
      <contour>
        <pt x="100" y="100" on="1"/>
        <pt x="100" y="700" on="1"/>
        <pt x="200" y="700" on="1"/>
        <pt x="200" y="800" on="1"/>
        <pt x="600" y="800" on="1"/>
        <pt x="600" y="700" on="1"/>
        <pt x="700" y="700" on="1"/>
        <pt x="700" y="100" on="1"/>
        <pt x="600" y="100" on="1"/>
        <pt x="600" y="0" on="1"/>
        <pt x="200" y="0" on="1"/>
        <pt x="200" y="100" on="1"/>
      </contour>
      <contour>
        <pt x="200" y="1000" on="1"/>
        <pt x="200" y="1100" on="1"/>
        <pt x="400" y="1100" on="1"/>
        <pt x="400" y="1000" on="1"/>
        <pt x="500" y="1000" on="1"/>
        <pt x="500" y="900" on="1"/>
        <pt x="300" y="900" on="1"/>
        <pt x="300" y="1000" on="1"/>
      </contour>
      <contour>
        <pt x="300" y="100" on="1"/>
        <pt x="500" y="100" on="1"/>
        <pt x="500" y="700" on="1"/>
        <pt x="300" y="700" on="1"/>
      </contour>
    </TTGlyph>
    <TTGlyph name="Oslash" xMin="100" yMin="-100" xMax="800" yMax="900">
      <contour>
        <pt x="200" y="200" on="1"/>
        <pt x="100" y="200" on="1"/>
        <pt x="100" y="600" on="1"/>
        <pt x="200" y="600" on="1"/>
        <pt x="200" y="700" on="1"/>
        <pt x="300" y="700" on="1"/>
        <pt x="300" y="800" on="1"/>
        <pt x="600" y="800" on="1"/>
        <pt x="600" y="900" on="1"/>
        <pt x="700" y="900" on="1"/>
        <pt x="700" y="600" on="1"/>
        <pt x="800" y="600" on="1"/>
        <pt x="800" y="200" on="1"/>
        <pt x="700" y="200" on="1"/>
        <pt x="700" y="100" on="1"/>
        <pt x="600" y="100" on="1"/>
        <pt x="600" y="0" on="1"/>
        <pt x="300" y="0" on="1"/>
        <pt x="300" y="-100" on="1"/>
        <pt x="200" y="-100" on="1"/>
      </contour>
      <contour>
        <pt x="400" y="100" on="1"/>
        <pt x="500" y="100" on="1"/>
        <pt x="500" y="200" on="1"/>
        <pt x="600" y="200" on="1"/>
        <pt x="600" y="500" on="1"/>
        <pt x="500" y="500" on="1"/>
        <pt x="500" y="700" on="1"/>
        <pt x="400" y="700" on="1"/>
        <pt x="400" y="600" on="1"/>
        <pt x="300" y="600" on="1"/>
        <pt x="300" y="300" on="1"/>
        <pt x="400" y="300" on="1"/>
      </contour>
      <contour>
        <pt x="400" y="500" on="1"/>
        <pt x="500" y="500" on="1"/>
        <pt x="500" y="300" on="1"/>
        <pt x="400" y="300" on="1"/>
      </contour>
    </TTGlyph>
    <TTGlyph name="Otilde" xMin="100" yMin="0" xMax="700" yMax="1100">
      <contour>
        <pt x="200" y="100" on="1"/>
        <pt x="100" y="100" on="1"/>
        <pt x="100" y="600" on="1"/>
        <pt x="200" y="600" on="1"/>
        <pt x="200" y="700" on="1"/>
        <pt x="600" y="700" on="1"/>
        <pt x="600" y="600" on="1"/>
        <pt x="700" y="600" on="1"/>
        <pt x="700" y="100" on="1"/>
        <pt x="600" y="100" on="1"/>
        <pt x="600" y="0" on="1"/>
        <pt x="200" y="0" on="1"/>
      </contour>
      <contour>
        <pt x="200" y="1000" on="1"/>
        <pt x="200" y="1100" on="1"/>
        <pt x="400" y="1100" on="1"/>
        <pt x="400" y="1000" on="1"/>
        <pt x="600" y="1000" on="1"/>
        <pt x="600" y="1100" on="1"/>
        <pt x="700" y="1100" on="1"/>
        <pt x="700" y="900" on="1"/>
        <pt x="600" y="900" on="1"/>
        <pt x="600" y="800" on="1"/>
        <pt x="400" y="800" on="1"/>
        <pt x="400" y="900" on="1"/>
        <pt x="200" y="900" on="1"/>
        <pt x="200" y="800" on="1"/>
        <pt x="100" y="800" on="1"/>
        <pt x="100" y="1000" on="1"/>
      </contour>
      <contour>
        <pt x="300" y="100" on="1"/>
        <pt x="500" y="100" on="1"/>
        <pt x="500" y="600" on="1"/>
        <pt x="300" y="600" on="1"/>
      </contour>
    </TTGlyph>
    <TTGlyph name="P" xMin="100" yMin="0" xMax="700" yMax="800">
      <contour>
        <pt x="100" y="0" on="1"/>
        <pt x="100" y="800" on="1"/>
        <pt x="600" y="800" on="1"/>
        <pt x="600" y="700" on="1"/>
        <pt x="700" y="700" on="1"/>
        <pt x="700" y="400" on="1"/>
        <pt x="600" y="400" on="1"/>
        <pt x="600" y="300" on="1"/>
        <pt x="300" y="300" on="1"/>
        <pt x="300" y="0" on="1"/>
      </contour>
      <contour>
        <pt x="300" y="400" on="1"/>
        <pt x="500" y="400" on="1"/>
        <pt x="500" y="700" on="1"/>
        <pt x="300" y="700" on="1"/>
      </contour>
    </TTGlyph>
    <TTGlyph name="Q" xMin="100" yMin="-200" xMax="700" yMax="800">
      <contour>
        <pt x="100" y="100" on="1"/>
        <pt x="100" y="700" on="1"/>
        <pt x="200" y="700" on="1"/>
        <pt x="200" y="800" on="1"/>
        <pt x="600" y="800" on="1"/>
        <pt x="600" y="700" on="1"/>
        <pt x="700" y="700" on="1"/>
        <pt x="700" y="100" on="1"/>
        <pt x="600" y="100" on="1"/>
        <pt x="600" y="-100" on="1"/>
        <pt x="700" y="-100" on="1"/>
        <pt x="700" y="-200" on="1"/>
        <pt x="500" y="-200" on="1"/>
        <pt x="500" y="-100" on="1"/>
        <pt x="400" y="-100" on="1"/>
        <pt x="400" y="0" on="1"/>
        <pt x="200" y="0" on="1"/>
        <pt x="200" y="100" on="1"/>
      </contour>
      <contour>
        <pt x="300" y="100" on="1"/>
        <pt x="500" y="100" on="1"/>
        <pt x="500" y="700" on="1"/>
        <pt x="300" y="700" on="1"/>
      </contour>
    </TTGlyph>
    <TTGlyph name="R" xMin="100" yMin="0" xMax="700" yMax="800">
      <contour>
        <pt x="100" y="0" on="1"/>
        <pt x="100" y="800" on="1"/>
        <pt x="600" y="800" on="1"/>
        <pt x="600" y="700" on="1"/>
        <pt x="700" y="700" on="1"/>
        <pt x="700" y="400" on="1"/>
        <pt x="600" y="400" on="1"/>
        <pt x="600" y="200" on="1"/>
        <pt x="700" y="200" on="1"/>
        <pt x="700" y="0" on="1"/>
        <pt x="500" y="0" on="1"/>
        <pt x="500" y="200" on="1"/>
        <pt x="400" y="200" on="1"/>
        <pt x="400" y="300" on="1"/>
        <pt x="300" y="300" on="1"/>
        <pt x="300" y="0" on="1"/>
      </contour>
      <contour>
        <pt x="300" y="400" on="1"/>
        <pt x="500" y="400" on="1"/>
        <pt x="500" y="700" on="1"/>
        <pt x="300" y="700" on="1"/>
      </contour>
    </TTGlyph>
    <TTGlyph name="S" xMin="100" yMin="0" xMax="700" yMax="800">
      <contour>
        <pt x="100" y="0" on="1"/>
        <pt x="100" y="100" on="1"/>
        <pt x="500" y="100" on="1"/>
        <pt x="500" y="300" on="1"/>
        <pt x="400" y="300" on="1"/>
        <pt x="400" y="400" on="1"/>
        <pt x="200" y="400" on="1"/>
        <pt x="200" y="500" on="1"/>
        <pt x="100" y="500" on="1"/>
        <pt x="100" y="700" on="1"/>
        <pt x="200" y="700" on="1"/>
        <pt x="200" y="800" on="1"/>
        <pt x="700" y="800" on="1"/>
        <pt x="700" y="700" on="1"/>
        <pt x="300" y="700" on="1"/>
        <pt x="300" y="500" on="1"/>
        <pt x="500" y="500" on="1"/>
        <pt x="500" y="400" on="1"/>
        <pt x="600" y="400" on="1"/>
        <pt x="600" y="300" on="1"/>
        <pt x="700" y="300" on="1"/>
        <pt x="700" y="100" on="1"/>
        <pt x="600" y="100" on="1"/>
        <pt x="600" y="0" on="1"/>
      </contour>
    </TTGlyph>
    <TTGlyph name="T" xMin="0" yMin="0" xMax="800" yMax="800">
      <contour>
        <pt x="0" y="700" on="1"/>
        <pt x="0" y="800" on="1"/>
        <pt x="800" y="800" on="1"/>
        <pt x="800" y="700" on="1"/>
        <pt x="500" y="700" on="1"/>
        <pt x="500" y="0" on="1"/>
        <pt x="300" y="0" on="1"/>
        <pt x="300" y="700" on="1"/>
      </contour>
    </TTGlyph>
    <TTGlyph name="Thorn" xMin="100" yMin="0" xMax="700" yMax="800">
      <contour>
        <pt x="100" y="0" on="1"/>
        <pt x="100" y="800" on="1"/>
        <pt x="300" y="800" on="1"/>
        <pt x="300" y="700" on="1"/>
        <pt x="600" y="700" on="1"/>
        <pt x="600" y="600" on="1"/>
        <pt x="700" y="600" on="1"/>
        <pt x="700" y="200" on="1"/>
        <pt x="600" y="200" on="1"/>
        <pt x="600" y="100" on="1"/>
        <pt x="300" y="100" on="1"/>
        <pt x="300" y="0" on="1"/>
      </contour>
      <contour>
        <pt x="300" y="200" on="1"/>
        <pt x="500" y="200" on="1"/>
        <pt x="500" y="600" on="1"/>
        <pt x="300" y="600" on="1"/>
      </contour>
    </TTGlyph>
    <TTGlyph name="U" xMin="100" yMin="0" xMax="700" yMax="800">
      <contour>
        <pt x="100" y="100" on="1"/>
        <pt x="100" y="800" on="1"/>
        <pt x="300" y="800" on="1"/>
        <pt x="300" y="100" on="1"/>
        <pt x="500" y="100" on="1"/>
        <pt x="500" y="800" on="1"/>
        <pt x="700" y="800" on="1"/>
        <pt x="700" y="100" on="1"/>
        <pt x="600" y="100" on="1"/>
        <pt x="600" y="0" on="1"/>
        <pt x="200" y="0" on="1"/>
        <pt x="200" y="100" on="1"/>
      </contour>
    </TTGlyph>
    <TTGlyph name="Uacute" xMin="100" yMin="0" xMax="700" yMax="1100">
      <contour>
        <pt x="100" y="100" on="1"/>
        <pt x="100" y="800" on="1"/>
        <pt x="300" y="800" on="1"/>
        <pt x="300" y="100" on="1"/>
        <pt x="500" y="100" on="1"/>
        <pt x="500" y="800" on="1"/>
        <pt x="700" y="800" on="1"/>
        <pt x="700" y="100" on="1"/>
        <pt x="600" y="100" on="1"/>
        <pt x="600" y="0" on="1"/>
        <pt x="200" y="0" on="1"/>
        <pt x="200" y="100" on="1"/>
      </contour>
      <contour>
        <pt x="300" y="900" on="1"/>
        <pt x="300" y="1000" on="1"/>
        <pt x="400" y="1000" on="1"/>
        <pt x="400" y="1100" on="1"/>
        <pt x="600" y="1100" on="1"/>
        <pt x="600" y="1000" on="1"/>
        <pt x="500" y="1000" on="1"/>
        <pt x="500" y="900" on="1"/>
      </contour>
    </TTGlyph>
    <TTGlyph name="Ucircumflex" xMin="100" yMin="0" xMax="700" yMax="1100">
      <contour>
        <pt x="200" y="100" on="1"/>
        <pt x="100" y="100" on="1"/>
        <pt x="100" y="700" on="1"/>
        <pt x="300" y="700" on="1"/>
        <pt x="300" y="100" on="1"/>
        <pt x="500" y="100" on="1"/>
        <pt x="500" y="700" on="1"/>
        <pt x="700" y="700" on="1"/>
        <pt x="700" y="100" on="1"/>
        <pt x="600" y="100" on="1"/>
        <pt x="600" y="0" on="1"/>
        <pt x="200" y="0" on="1"/>
      </contour>
      <contour>
        <pt x="200" y="900" on="1"/>
        <pt x="200" y="1000" on="1"/>
        <pt x="300" y="1000" on="1"/>
        <pt x="300" y="1100" on="1"/>
        <pt x="500" y="1100" on="1"/>
        <pt x="500" y="1000" on="1"/>
        <pt x="600" y="1000" on="1"/>
        <pt x="600" y="900" on="1"/>
        <pt x="700" y="900" on="1"/>
        <pt x="700" y="800" on="1"/>
        <pt x="500" y="800" on="1"/>
        <pt x="500" y="900" on="1"/>
        <pt x="300" y="900" on="1"/>
        <pt x="300" y="800" on="1"/>
        <pt x="100" y="800" on="1"/>
        <pt x="100" y="900" on="1"/>
      </contour>
    </TTGlyph>
    <TTGlyph name="Udieresis" xMin="100" yMin="0" xMax="700" yMax="1100">
      <contour>
        <pt x="100" y="1100" on="1"/>
        <pt x="300" y="1100" on="1"/>
        <pt x="300" y="900" on="1"/>
        <pt x="100" y="900" on="1"/>
      </contour>
      <contour>
        <pt x="100" y="100" on="1"/>
        <pt x="100" y="800" on="1"/>
        <pt x="300" y="800" on="1"/>
        <pt x="300" y="100" on="1"/>
        <pt x="500" y="100" on="1"/>
        <pt x="500" y="800" on="1"/>
        <pt x="700" y="800" on="1"/>
        <pt x="700" y="100" on="1"/>
        <pt x="600" y="100" on="1"/>
        <pt x="600" y="0" on="1"/>
        <pt x="200" y="0" on="1"/>
        <pt x="200" y="100" on="1"/>
      </contour>
      <contour>
        <pt x="500" y="1100" on="1"/>
        <pt x="700" y="1100" on="1"/>
        <pt x="700" y="900" on="1"/>
        <pt x="500" y="900" on="1"/>
      </contour>
    </TTGlyph>
    <TTGlyph name="Ugrave" xMin="100" yMin="0" xMax="700" yMax="1100">
      <contour>
        <pt x="100" y="100" on="1"/>
        <pt x="100" y="800" on="1"/>
        <pt x="300" y="800" on="1"/>
        <pt x="300" y="100" on="1"/>
        <pt x="500" y="100" on="1"/>
        <pt x="500" y="800" on="1"/>
        <pt x="700" y="800" on="1"/>
        <pt x="700" y="100" on="1"/>
        <pt x="600" y="100" on="1"/>
        <pt x="600" y="0" on="1"/>
        <pt x="200" y="0" on="1"/>
        <pt x="200" y="100" on="1"/>
      </contour>
      <contour>
        <pt x="200" y="1000" on="1"/>
        <pt x="200" y="1100" on="1"/>
        <pt x="400" y="1100" on="1"/>
        <pt x="400" y="1000" on="1"/>
        <pt x="500" y="1000" on="1"/>
        <pt x="500" y="900" on="1"/>
        <pt x="300" y="900" on="1"/>
        <pt x="300" y="1000" on="1"/>
      </contour>
    </TTGlyph>
    <TTGlyph name="V" xMin="100" yMin="0" xMax="700" yMax="800">
      <contour>
        <pt x="100" y="200" on="1"/>
        <pt x="100" y="800" on="1"/>
        <pt x="300" y="800" on="1"/>
        <pt x="300" y="200" on="1"/>
        <pt x="500" y="200" on="1"/>
        <pt x="500" y="800" on="1"/>
        <pt x="700" y="800" on="1"/>
        <pt x="700" y="200" on="1"/>
        <pt x="600" y="200" on="1"/>
        <pt x="600" y="100" on="1"/>
        <pt x="500" y="100" on="1"/>
        <pt x="500" y="0" on="1"/>
        <pt x="300" y="0" on="1"/>
        <pt x="300" y="100" on="1"/>
        <pt x="200" y="100" on="1"/>
        <pt x="200" y="200" on="1"/>
      </contour>
    </TTGlyph>
    <TTGlyph name="W" xMin="100" yMin="0" xMax="800" yMax="800">
      <contour>
        <pt x="800" y="0" on="1"/>
        <pt x="600" y="0" on="1"/>
        <pt x="600" y="100" on="1"/>
        <pt x="500" y="100" on="1"/>
        <pt x="500" y="200" on="1"/>
        <pt x="400" y="200" on="1"/>
        <pt x="400" y="100" on="1"/>
        <pt x="300" y="100" on="1"/>
        <pt x="300" y="0" on="1"/>
        <pt x="100" y="0" on="1"/>
        <pt x="100" y="800" on="1"/>
        <pt x="300" y="800" on="1"/>
        <pt x="300" y="300" on="1"/>
        <pt x="400" y="300" on="1"/>
        <pt x="400" y="400" on="1"/>
        <pt x="500" y="400" on="1"/>
        <pt x="500" y="300" on="1"/>
        <pt x="600" y="300" on="1"/>
        <pt x="600" y="800" on="1"/>
        <pt x="800" y="800" on="1"/>
      </contour>
    </TTGlyph>
    <TTGlyph name="X" xMin="100" yMin="0" xMax="700" yMax="800">
      <contour>
        <pt x="100" y="0" on="1"/>
        <pt x="100" y="300" on="1"/>
        <pt x="200" y="300" on="1"/>
        <pt x="200" y="500" on="1"/>
        <pt x="100" y="500" on="1"/>
        <pt x="100" y="800" on="1"/>
        <pt x="300" y="800" on="1"/>
        <pt x="300" y="500" on="1"/>
        <pt x="500" y="500" on="1"/>
        <pt x="500" y="800" on="1"/>
        <pt x="700" y="800" on="1"/>
        <pt x="700" y="500" on="1"/>
        <pt x="600" y="500" on="1"/>
        <pt x="600" y="300" on="1"/>
        <pt x="700" y="300" on="1"/>
        <pt x="700" y="0" on="1"/>
        <pt x="500" y="0" on="1"/>
        <pt x="500" y="300" on="1"/>
        <pt x="300" y="300" on="1"/>
        <pt x="300" y="0" on="1"/>
      </contour>
    </TTGlyph>
    <TTGlyph name="Y" xMin="100" yMin="0" xMax="700" yMax="800">
      <contour>
        <pt x="100" y="500" on="1"/>
        <pt x="100" y="800" on="1"/>
        <pt x="300" y="800" on="1"/>
        <pt x="300" y="500" on="1"/>
        <pt x="500" y="500" on="1"/>
        <pt x="500" y="800" on="1"/>
        <pt x="700" y="800" on="1"/>
        <pt x="700" y="500" on="1"/>
        <pt x="600" y="500" on="1"/>
        <pt x="600" y="400" on="1"/>
        <pt x="500" y="400" on="1"/>
        <pt x="500" y="0" on="1"/>
        <pt x="300" y="0" on="1"/>
        <pt x="300" y="400" on="1"/>
        <pt x="200" y="400" on="1"/>
        <pt x="200" y="500" on="1"/>
      </contour>
    </TTGlyph>
    <TTGlyph name="Yacute" xMin="100" yMin="0" xMax="700" yMax="1100">
      <contour>
        <pt x="100" y="500" on="1"/>
        <pt x="100" y="800" on="1"/>
        <pt x="300" y="800" on="1"/>
        <pt x="300" y="500" on="1"/>
        <pt x="500" y="500" on="1"/>
        <pt x="500" y="800" on="1"/>
        <pt x="700" y="800" on="1"/>
        <pt x="700" y="500" on="1"/>
        <pt x="600" y="500" on="1"/>
        <pt x="600" y="400" on="1"/>
        <pt x="500" y="400" on="1"/>
        <pt x="500" y="0" on="1"/>
        <pt x="300" y="0" on="1"/>
        <pt x="300" y="400" on="1"/>
        <pt x="200" y="400" on="1"/>
        <pt x="200" y="500" on="1"/>
      </contour>
      <contour>
        <pt x="300" y="900" on="1"/>
        <pt x="300" y="1000" on="1"/>
        <pt x="400" y="1000" on="1"/>
        <pt x="400" y="1100" on="1"/>
        <pt x="600" y="1100" on="1"/>
        <pt x="600" y="1000" on="1"/>
        <pt x="500" y="1000" on="1"/>
        <pt x="500" y="900" on="1"/>
      </contour>
    </TTGlyph>
    <TTGlyph name="Z" xMin="100" yMin="0" xMax="700" yMax="800">
      <contour>
        <pt x="100" y="0" on="1"/>
        <pt x="100" y="100" on="1"/>
        <pt x="200" y="100" on="1"/>
        <pt x="200" y="300" on="1"/>
        <pt x="300" y="300" on="1"/>
        <pt x="300" y="500" on="1"/>
        <pt x="400" y="500" on="1"/>
        <pt x="400" y="700" on="1"/>
        <pt x="100" y="700" on="1"/>
        <pt x="100" y="800" on="1"/>
        <pt x="700" y="800" on="1"/>
        <pt x="700" y="700" on="1"/>
        <pt x="600" y="700" on="1"/>
        <pt x="600" y="500" on="1"/>
        <pt x="500" y="500" on="1"/>
        <pt x="500" y="300" on="1"/>
        <pt x="400" y="300" on="1"/>
        <pt x="400" y="100" on="1"/>
        <pt x="700" y="100" on="1"/>
        <pt x="700" y="0" on="1"/>
      </contour>
    </TTGlyph>
    <TTGlyph name="a" xMin="100" yMin="0" xMax="700" yMax="600">
      <contour>
        <pt x="100" y="100" on="1"/>
        <pt x="100" y="300" on="1"/>
        <pt x="200" y="300" on="1"/>
        <pt x="200" y="400" on="1"/>
        <pt x="500" y="400" on="1"/>
        <pt x="500" y="500" on="1"/>
        <pt x="200" y="500" on="1"/>
        <pt x="200" y="600" on="1"/>
        <pt x="600" y="600" on="1"/>
        <pt x="600" y="500" on="1"/>
        <pt x="700" y="500" on="1"/>
        <pt x="700" y="0" on="1"/>
        <pt x="200" y="0" on="1"/>
        <pt x="200" y="100" on="1"/>
      </contour>
      <contour>
        <pt x="300" y="100" on="1"/>
        <pt x="500" y="100" on="1"/>
        <pt x="500" y="300" on="1"/>
        <pt x="300" y="300" on="1"/>
      </contour>
    </TTGlyph>
    <TTGlyph name="aacute" xMin="100" yMin="0" xMax="700" yMax="900">
      <contour>
        <pt x="200" y="100" on="1"/>
        <pt x="100" y="100" on="1"/>
        <pt x="100" y="300" on="1"/>
        <pt x="200" y="300" on="1"/>
        <pt x="200" y="400" on="1"/>
        <pt x="500" y="400" on="1"/>
        <pt x="500" y="500" on="1"/>
        <pt x="200" y="500" on="1"/>
        <pt x="200" y="600" on="1"/>
        <pt x="600" y="600" on="1"/>
        <pt x="600" y="500" on="1"/>
        <pt x="700" y="500" on="1"/>
        <pt x="700" y="0" on="1"/>
        <pt x="200" y="0" on="1"/>
      </contour>
      <contour>
        <pt x="400" y="800" on="1"/>
        <pt x="400" y="900" on="1"/>
        <pt x="600" y="900" on="1"/>
        <pt x="600" y="800" on="1"/>
        <pt x="500" y="800" on="1"/>
        <pt x="500" y="700" on="1"/>
        <pt x="300" y="700" on="1"/>
        <pt x="300" y="800" on="1"/>
      </contour>
      <contour>
        <pt x="300" y="100" on="1"/>
        <pt x="500" y="100" on="1"/>
        <pt x="500" y="300" on="1"/>
        <pt x="300" y="300" on="1"/>
      </contour>
    </TTGlyph>
    <TTGlyph name="acircumflex" xMin="100" yMin="0" xMax="700" yMax="1000">
      <contour>
        <pt x="200" y="100" on="1"/>
        <pt x="100" y="100" on="1"/>
        <pt x="100" y="300" on="1"/>
        <pt x="200" y="300" on="1"/>
        <pt x="200" y="400" on="1"/>
        <pt x="500" y="400" on="1"/>
        <pt x="500" y="500" on="1"/>
        <pt x="200" y="500" on="1"/>
        <pt x="200" y="600" on="1"/>
        <pt x="600" y="600" on="1"/>
        <pt x="600" y="500" on="1"/>
        <pt x="700" y="500" on="1"/>
        <pt x="700" y="0" on="1"/>
        <pt x="200" y="0" on="1"/>
      </contour>
      <contour>
        <pt x="200" y="800" on="1"/>
        <pt x="200" y="900" on="1"/>
        <pt x="300" y="900" on="1"/>
        <pt x="300" y="1000" on="1"/>
        <pt x="500" y="1000" on="1"/>
        <pt x="500" y="900" on="1"/>
        <pt x="600" y="900" on="1"/>
        <pt x="600" y="800" on="1"/>
        <pt x="700" y="800" on="1"/>
        <pt x="700" y="700" on="1"/>
        <pt x="500" y="700" on="1"/>
        <pt x="500" y="800" on="1"/>
        <pt x="300" y="800" on="1"/>
        <pt x="300" y="700" on="1"/>
        <pt x="100" y="700" on="1"/>
        <pt x="100" y="800" on="1"/>
      </contour>
      <contour>
        <pt x="300" y="100" on="1"/>
        <pt x="500" y="100" on="1"/>
        <pt x="500" y="300" on="1"/>
        <pt x="300" y="300" on="1"/>
      </contour>
    </TTGlyph>
    <TTGlyph name="acute" xMin="300" yMin="700" xMax="600" yMax="900">
      <contour>
        <pt x="400" y="800" on="1"/>
        <pt x="400" y="900" on="1"/>
        <pt x="600" y="900" on="1"/>
        <pt x="600" y="800" on="1"/>
        <pt x="500" y="800" on="1"/>
        <pt x="500" y="700" on="1"/>
        <pt x="300" y="700" on="1"/>
        <pt x="300" y="800" on="1"/>
      </contour>
    </TTGlyph>
    <TTGlyph name="adieresis" xMin="100" yMin="0" xMax="700" yMax="900">
      <contour>
        <pt x="200" y="100" on="1"/>
        <pt x="100" y="100" on="1"/>
        <pt x="100" y="300" on="1"/>
        <pt x="200" y="300" on="1"/>
        <pt x="200" y="400" on="1"/>
        <pt x="500" y="400" on="1"/>
        <pt x="500" y="500" on="1"/>
        <pt x="200" y="500" on="1"/>
        <pt x="200" y="600" on="1"/>
        <pt x="600" y="600" on="1"/>
        <pt x="600" y="500" on="1"/>
        <pt x="700" y="500" on="1"/>
        <pt x="700" y="0" on="1"/>
        <pt x="200" y="0" on="1"/>
      </contour>
      <contour>
        <pt x="100" y="700" on="1"/>
        <pt x="100" y="900" on="1"/>
        <pt x="300" y="900" on="1"/>
        <pt x="300" y="700" on="1"/>
      </contour>
      <contour>
        <pt x="300" y="100" on="1"/>
        <pt x="500" y="100" on="1"/>
        <pt x="500" y="300" on="1"/>
        <pt x="300" y="300" on="1"/>
      </contour>
      <contour>
        <pt x="500" y="700" on="1"/>
        <pt x="500" y="900" on="1"/>
        <pt x="700" y="900" on="1"/>
        <pt x="700" y="700" on="1"/>
      </contour>
    </TTGlyph>
    <TTGlyph name="ae" xMin="0" yMin="0" xMax="800" yMax="600">
      <contour>
        <pt x="0" y="100" on="1"/>
        <pt x="0" y="300" on="1"/>
        <pt x="100" y="300" on="1"/>
        <pt x="100" y="400" on="1"/>
        <pt x="300" y="400" on="1"/>
        <pt x="300" y="500" on="1"/>
        <pt x="100" y="500" on="1"/>
        <pt x="100" y="600" on="1"/>
        <pt x="400" y="600" on="1"/>
        <pt x="400" y="500" on="1"/>
        <pt x="500" y="500" on="1"/>
        <pt x="500" y="300" on="1"/>
        <pt x="600" y="300" on="1"/>
        <pt x="600" y="500" on="1"/>
        <pt x="500" y="500" on="1"/>
        <pt x="500" y="600" on="1"/>
        <pt x="700" y="600" on="1"/>
        <pt x="700" y="500" on="1"/>
        <pt x="800" y="500" on="1"/>
        <pt x="800" y="200" on="1"/>
        <pt x="500" y="200" on="1"/>
        <pt x="500" y="100" on="1"/>
        <pt x="800" y="100" on="1"/>
        <pt x="800" y="0" on="1"/>
        <pt x="400" y="0" on="1"/>
        <pt x="400" y="100" on="1"/>
        <pt x="300" y="100" on="1"/>
        <pt x="300" y="300" on="1"/>
        <pt x="200" y="300" on="1"/>
        <pt x="200" y="100" on="1"/>
        <pt x="300" y="100" on="1"/>
        <pt x="300" y="0" on="1"/>
        <pt x="100" y="0" on="1"/>
        <pt x="100" y="100" on="1"/>
      </contour>
    </TTGlyph>
    <TTGlyph name="agrave" xMin="100" yMin="0" xMax="700" yMax="900">
      <contour>
        <pt x="200" y="100" on="1"/>
        <pt x="100" y="100" on="1"/>
        <pt x="100" y="300" on="1"/>
        <pt x="200" y="300" on="1"/>
        <pt x="200" y="400" on="1"/>
        <pt x="500" y="400" on="1"/>
        <pt x="500" y="500" on="1"/>
        <pt x="200" y="500" on="1"/>
        <pt x="200" y="600" on="1"/>
        <pt x="600" y="600" on="1"/>
        <pt x="600" y="500" on="1"/>
        <pt x="700" y="500" on="1"/>
        <pt x="700" y="0" on="1"/>
        <pt x="200" y="0" on="1"/>
      </contour>
      <contour>
        <pt x="200" y="800" on="1"/>
        <pt x="200" y="900" on="1"/>
        <pt x="400" y="900" on="1"/>
        <pt x="400" y="800" on="1"/>
        <pt x="500" y="800" on="1"/>
        <pt x="500" y="700" on="1"/>
        <pt x="300" y="700" on="1"/>
        <pt x="300" y="800" on="1"/>
      </contour>
      <contour>
        <pt x="300" y="100" on="1"/>
        <pt x="500" y="100" on="1"/>
        <pt x="500" y="300" on="1"/>
        <pt x="300" y="300" on="1"/>
      </contour>
    </TTGlyph>
    <TTGlyph name="ampersand" xMin="100" yMin="0" xMax="800" yMax="900">
      <contour>
        <pt x="200" y="100" on="1"/>
        <pt x="100" y="100" on="1"/>
        <pt x="100" y="400" on="1"/>
        <pt x="200" y="400" on="1"/>
        <pt x="200" y="600" on="1"/>
        <pt x="100" y="600" on="1"/>
        <pt x="100" y="800" on="1"/>
        <pt x="200" y="800" on="1"/>
        <pt x="200" y="900" on="1"/>
        <pt x="500" y="900" on="1"/>
        <pt x="500" y="800" on="1"/>
        <pt x="600" y="800" on="1"/>
        <pt x="600" y="600" on="1"/>
        <pt x="500" y="600" on="1"/>
        <pt x="500" y="400" on="1"/>
        <pt x="600" y="400" on="1"/>
        <pt x="600" y="300" on="1"/>
        <pt x="700" y="300" on="1"/>
        <pt x="700" y="100" on="1"/>
        <pt x="800" y="100" on="1"/>
        <pt x="800" y="0" on="1"/>
        <pt x="600" y="0" on="1"/>
        <pt x="600" y="100" on="1"/>
        <pt x="500" y="100" on="1"/>
        <pt x="500" y="300" on="1"/>
        <pt x="400" y="300" on="1"/>
        <pt x="400" y="400" on="1"/>
        <pt x="300" y="400" on="1"/>
        <pt x="300" y="100" on="1"/>
        <pt x="500" y="100" on="1"/>
        <pt x="500" y="0" on="1"/>
        <pt x="200" y="0" on="1"/>
      </contour>
      <contour>
        <pt x="400" y="600" on="1"/>
        <pt x="400" y="800" on="1"/>
        <pt x="300" y="800" on="1"/>
        <pt x="300" y="600" on="1"/>
      </contour>
      <contour>
        <pt x="800" y="300" on="1"/>
        <pt x="700" y="300" on="1"/>
        <pt x="700" y="500" on="1"/>
        <pt x="800" y="500" on="1"/>
      </contour>
    </TTGlyph>
    <TTGlyph name="aring" xMin="100" yMin="0" xMax="700" yMax="1100">
      <contour>
        <pt x="200" y="100" on="1"/>
        <pt x="100" y="100" on="1"/>
        <pt x="100" y="300" on="1"/>
        <pt x="200" y="300" on="1"/>
        <pt x="200" y="400" on="1"/>
        <pt x="500" y="400" on="1"/>
        <pt x="500" y="500" on="1"/>
        <pt x="200" y="500" on="1"/>
        <pt x="200" y="600" on="1"/>
        <pt x="600" y="600" on="1"/>
        <pt x="600" y="500" on="1"/>
        <pt x="700" y="500" on="1"/>
        <pt x="700" y="0" on="1"/>
        <pt x="200" y="0" on="1"/>
      </contour>
      <contour>
        <pt x="200" y="1000" on="1"/>
        <pt x="300" y="1000" on="1"/>
        <pt x="300" y="1100" on="1"/>
        <pt x="600" y="1100" on="1"/>
        <pt x="600" y="1000" on="1"/>
        <pt x="700" y="1000" on="1"/>
        <pt x="700" y="800" on="1"/>
        <pt x="600" y="800" on="1"/>
        <pt x="600" y="700" on="1"/>
        <pt x="300" y="700" on="1"/>
        <pt x="300" y="800" on="1"/>
        <pt x="200" y="800" on="1"/>
      </contour>
      <contour>
        <pt x="400" y="800" on="1"/>
        <pt x="500" y="800" on="1"/>
        <pt x="500" y="1000" on="1"/>
        <pt x="400" y="1000" on="1"/>
      </contour>
      <contour>
        <pt x="300" y="100" on="1"/>
        <pt x="500" y="100" on="1"/>
        <pt x="500" y="300" on="1"/>
        <pt x="300" y="300" on="1"/>
      </contour>
    </TTGlyph>
    <TTGlyph name="asciicircum" xMin="100" yMin="500" xMax="700" yMax="800">
      <contour>
        <pt x="100" y="500" on="1"/>
        <pt x="100" y="600" on="1"/>
        <pt x="200" y="600" on="1"/>
        <pt x="200" y="700" on="1"/>
        <pt x="300" y="700" on="1"/>
        <pt x="300" y="800" on="1"/>
        <pt x="500" y="800" on="1"/>
        <pt x="500" y="700" on="1"/>
        <pt x="600" y="700" on="1"/>
        <pt x="600" y="600" on="1"/>
        <pt x="700" y="600" on="1"/>
        <pt x="700" y="500" on="1"/>
        <pt x="500" y="500" on="1"/>
        <pt x="500" y="600" on="1"/>
        <pt x="300" y="600" on="1"/>
        <pt x="300" y="500" on="1"/>
      </contour>
    </TTGlyph>
    <TTGlyph name="asciitilde" xMin="100" yMin="500" xMax="800" yMax="800">
      <contour>
        <pt x="800" y="600" on="1"/>
        <pt x="700" y="600" on="1"/>
        <pt x="700" y="500" on="1"/>
        <pt x="400" y="500" on="1"/>
        <pt x="400" y="600" on="1"/>
        <pt x="200" y="600" on="1"/>
        <pt x="200" y="500" on="1"/>
        <pt x="100" y="500" on="1"/>
        <pt x="100" y="700" on="1"/>
        <pt x="200" y="700" on="1"/>
        <pt x="200" y="800" on="1"/>
        <pt x="500" y="800" on="1"/>
        <pt x="500" y="700" on="1"/>
        <pt x="700" y="700" on="1"/>
        <pt x="700" y="800" on="1"/>
        <pt x="800" y="800" on="1"/>
      </contour>
    </TTGlyph>
    <TTGlyph name="asterisk" xMin="100" yMin="100" xMax="800" yMax="600">
      <contour>
        <pt x="200" y="100" on="1"/>
        <pt x="200" y="200" on="1"/>
        <pt x="300" y="200" on="1"/>
        <pt x="300" y="300" on="1"/>
        <pt x="100" y="300" on="1"/>
        <pt x="100" y="400" on="1"/>
        <pt x="300" y="400" on="1"/>
        <pt x="300" y="500" on="1"/>
        <pt x="200" y="500" on="1"/>
        <pt x="200" y="600" on="1"/>
        <pt x="400" y="600" on="1"/>
        <pt x="400" y="500" on="1"/>
        <pt x="500" y="500" on="1"/>
        <pt x="500" y="600" on="1"/>
        <pt x="700" y="600" on="1"/>
        <pt x="700" y="500" on="1"/>
        <pt x="600" y="500" on="1"/>
        <pt x="600" y="400" on="1"/>
        <pt x="800" y="400" on="1"/>
        <pt x="800" y="300" on="1"/>
        <pt x="600" y="300" on="1"/>
        <pt x="600" y="200" on="1"/>
        <pt x="700" y="200" on="1"/>
        <pt x="700" y="100" on="1"/>
        <pt x="500" y="100" on="1"/>
        <pt x="500" y="200" on="1"/>
        <pt x="400" y="200" on="1"/>
        <pt x="400" y="100" on="1"/>
      </contour>
    </TTGlyph>
    <TTGlyph name="at" xMin="100" yMin="-100" xMax="800" yMax="900">
      <contour>
        <pt x="800" y="0" on="1"/>
        <pt x="800" y="-100" on="1"/>
        <pt x="200" y="-100" on="1"/>
        <pt x="200" y="0" on="1"/>
        <pt x="100" y="0" on="1"/>
        <pt x="100" y="800" on="1"/>
        <pt x="200" y="800" on="1"/>
        <pt x="200" y="900" on="1"/>
        <pt x="700" y="900" on="1"/>
        <pt x="700" y="800" on="1"/>
        <pt x="800" y="800" on="1"/>
        <pt x="800" y="200" on="1"/>
        <pt x="400" y="200" on="1"/>
        <pt x="400" y="600" on="1"/>
        <pt x="600" y="600" on="1"/>
        <pt x="600" y="800" on="1"/>
        <pt x="300" y="800" on="1"/>
        <pt x="300" y="0" on="1"/>
      </contour>
      <contour>
        <pt x="500" y="300" on="1"/>
        <pt x="600" y="300" on="1"/>
        <pt x="600" y="500" on="1"/>
        <pt x="500" y="500" on="1"/>
      </contour>
    </TTGlyph>
    <TTGlyph name="atilde" xMin="100" yMin="0" xMax="700" yMax="1000">
      <contour>
        <pt x="200" y="100" on="1"/>
        <pt x="100" y="100" on="1"/>
        <pt x="100" y="300" on="1"/>
        <pt x="200" y="300" on="1"/>
        <pt x="200" y="400" on="1"/>
        <pt x="500" y="400" on="1"/>
        <pt x="500" y="500" on="1"/>
        <pt x="200" y="500" on="1"/>
        <pt x="200" y="600" on="1"/>
        <pt x="600" y="600" on="1"/>
        <pt x="600" y="500" on="1"/>
        <pt x="700" y="500" on="1"/>
        <pt x="700" y="0" on="1"/>
        <pt x="200" y="0" on="1"/>
      </contour>
      <contour>
        <pt x="200" y="700" on="1"/>
        <pt x="100" y="700" on="1"/>
        <pt x="100" y="900" on="1"/>
        <pt x="200" y="900" on="1"/>
        <pt x="200" y="1000" on="1"/>
        <pt x="400" y="1000" on="1"/>
        <pt x="400" y="900" on="1"/>
        <pt x="600" y="900" on="1"/>
        <pt x="600" y="1000" on="1"/>
        <pt x="700" y="1000" on="1"/>
        <pt x="700" y="800" on="1"/>
        <pt x="600" y="800" on="1"/>
        <pt x="600" y="700" on="1"/>
        <pt x="400" y="700" on="1"/>
        <pt x="400" y="800" on="1"/>
        <pt x="200" y="800" on="1"/>
      </contour>
      <contour>
        <pt x="300" y="100" on="1"/>
        <pt x="500" y="100" on="1"/>
        <pt x="500" y="300" on="1"/>
        <pt x="300" y="300" on="1"/>
      </contour>
    </TTGlyph>
    <TTGlyph name="b" xMin="100" yMin="0" xMax="700" yMax="900">
      <contour>
        <pt x="100" y="0" on="1"/>
        <pt x="100" y="900" on="1"/>
        <pt x="300" y="900" on="1"/>
        <pt x="300" y="600" on="1"/>
        <pt x="600" y="600" on="1"/>
        <pt x="600" y="500" on="1"/>
        <pt x="700" y="500" on="1"/>
        <pt x="700" y="100" on="1"/>
        <pt x="600" y="100" on="1"/>
        <pt x="600" y="0" on="1"/>
      </contour>
      <contour>
        <pt x="300" y="100" on="1"/>
        <pt x="500" y="100" on="1"/>
        <pt x="500" y="500" on="1"/>
        <pt x="300" y="500" on="1"/>
      </contour>
    </TTGlyph>
    <TTGlyph name="backslash" xMin="100" yMin="-200" xMax="700" yMax="800">
      <contour>
        <pt x="100" y="600" on="1"/>
        <pt x="100" y="800" on="1"/>
        <pt x="300" y="800" on="1"/>
        <pt x="300" y="600" on="1"/>
        <pt x="400" y="600" on="1"/>
        <pt x="400" y="400" on="1"/>
        <pt x="500" y="400" on="1"/>
        <pt x="500" y="200" on="1"/>
        <pt x="600" y="200" on="1"/>
        <pt x="600" y="0" on="1"/>
        <pt x="700" y="0" on="1"/>
        <pt x="700" y="-200" on="1"/>
        <pt x="500" y="-200" on="1"/>
        <pt x="500" y="0" on="1"/>
        <pt x="400" y="0" on="1"/>
        <pt x="400" y="200" on="1"/>
        <pt x="300" y="200" on="1"/>
        <pt x="300" y="400" on="1"/>
        <pt x="200" y="400" on="1"/>
        <pt x="200" y="600" on="1"/>
      </contour>
    </TTGlyph>
    <TTGlyph name="bar" xMin="300" yMin="-200" xMax="500" yMax="1000">
      <contour>
        <pt x="500" y="-200" on="1"/>
        <pt x="300" y="-200" on="1"/>
        <pt x="300" y="1000" on="1"/>
        <pt x="500" y="1000" on="1"/>
      </contour>
    </TTGlyph>
    <TTGlyph name="braceleft" xMin="100" yMin="-200" xMax="700" yMax="900">
      <contour>
        <pt x="100" y="300" on="1"/>
        <pt x="100" y="400" on="1"/>
        <pt x="300" y="400" on="1"/>
        <pt x="300" y="800" on="1"/>
        <pt x="400" y="800" on="1"/>
        <pt x="400" y="900" on="1"/>
        <pt x="700" y="900" on="1"/>
        <pt x="700" y="800" on="1"/>
        <pt x="500" y="800" on="1"/>
        <pt x="500" y="400" on="1"/>
        <pt x="400" y="400" on="1"/>
        <pt x="400" y="300" on="1"/>
        <pt x="500" y="300" on="1"/>
        <pt x="500" y="-100" on="1"/>
        <pt x="700" y="-100" on="1"/>
        <pt x="700" y="-200" on="1"/>
        <pt x="400" y="-200" on="1"/>
        <pt x="400" y="-100" on="1"/>
        <pt x="300" y="-100" on="1"/>
        <pt x="300" y="300" on="1"/>
      </contour>
    </TTGlyph>
    <TTGlyph name="braceright" xMin="100" yMin="-200" xMax="700" yMax="900">
      <contour>
        <pt x="100" y="-200" on="1"/>
        <pt x="100" y="-100" on="1"/>
        <pt x="300" y="-100" on="1"/>
        <pt x="300" y="300" on="1"/>
        <pt x="400" y="300" on="1"/>
        <pt x="400" y="400" on="1"/>
        <pt x="300" y="400" on="1"/>
        <pt x="300" y="800" on="1"/>
        <pt x="100" y="800" on="1"/>
        <pt x="100" y="900" on="1"/>
        <pt x="400" y="900" on="1"/>
        <pt x="400" y="800" on="1"/>
        <pt x="500" y="800" on="1"/>
        <pt x="500" y="400" on="1"/>
        <pt x="700" y="400" on="1"/>
        <pt x="700" y="300" on="1"/>
        <pt x="500" y="300" on="1"/>
        <pt x="500" y="-100" on="1"/>
        <pt x="400" y="-100" on="1"/>
        <pt x="400" y="-200" on="1"/>
      </contour>
    </TTGlyph>
    <TTGlyph name="bracketleft" xMin="200" yMin="-200" xMax="700" yMax="900">
      <contour>
        <pt x="400" y="-100" on="1"/>
        <pt x="700" y="-100" on="1"/>
        <pt x="700" y="-200" on="1"/>
        <pt x="200" y="-200" on="1"/>
        <pt x="200" y="900" on="1"/>
        <pt x="700" y="900" on="1"/>
        <pt x="700" y="800" on="1"/>
        <pt x="400" y="800" on="1"/>
      </contour>
    </TTGlyph>
    <TTGlyph name="bracketright" xMin="100" yMin="-200" xMax="600" yMax="900">
      <contour>
        <pt x="400" y="-100" on="1"/>
        <pt x="400" y="800" on="1"/>
        <pt x="100" y="800" on="1"/>
        <pt x="100" y="900" on="1"/>
        <pt x="600" y="900" on="1"/>
        <pt x="600" y="-200" on="1"/>
        <pt x="100" y="-200" on="1"/>
        <pt x="100" y="-100" on="1"/>
      </contour>
    </TTGlyph>
    <TTGlyph name="brokenbar" xMin="300" yMin="-200" xMax="500" yMax="800">
      <contour>
        <pt x="500" y="200" on="1"/>
        <pt x="500" y="-200" on="1"/>
        <pt x="300" y="-200" on="1"/>
        <pt x="300" y="200" on="1"/>
      </contour>
      <contour>
        <pt x="500" y="400" on="1"/>
        <pt x="300" y="400" on="1"/>
        <pt x="300" y="800" on="1"/>
        <pt x="500" y="800" on="1"/>
      </contour>
    </TTGlyph>
    <TTGlyph name="c" xMin="100" yMin="0" xMax="700" yMax="600">
      <contour>
        <pt x="100" y="100" on="1"/>
        <pt x="100" y="500" on="1"/>
        <pt x="200" y="500" on="1"/>
        <pt x="200" y="600" on="1"/>
        <pt x="700" y="600" on="1"/>
        <pt x="700" y="500" on="1"/>
        <pt x="300" y="500" on="1"/>
        <pt x="300" y="100" on="1"/>
        <pt x="700" y="100" on="1"/>
        <pt x="700" y="0" on="1"/>
        <pt x="200" y="0" on="1"/>
        <pt x="200" y="100" on="1"/>
      </contour>
    </TTGlyph>
    <TTGlyph name="ccedilla" xMin="100" yMin="-300" xMax="700" yMax="600">
      <contour>
        <pt x="100" y="100" on="1"/>
        <pt x="100" y="500" on="1"/>
        <pt x="200" y="500" on="1"/>
        <pt x="200" y="600" on="1"/>
        <pt x="700" y="600" on="1"/>
        <pt x="700" y="500" on="1"/>
        <pt x="300" y="500" on="1"/>
        <pt x="300" y="100" on="1"/>
        <pt x="700" y="100" on="1"/>
        <pt x="700" y="0" on="1"/>
        <pt x="600" y="0" on="1"/>
        <pt x="600" y="-200" on="1"/>
        <pt x="500" y="-200" on="1"/>
        <pt x="500" y="-300" on="1"/>
        <pt x="200" y="-300" on="1"/>
        <pt x="200" y="-200" on="1"/>
        <pt x="400" y="-200" on="1"/>
        <pt x="400" y="0" on="1"/>
        <pt x="200" y="0" on="1"/>
        <pt x="200" y="100" on="1"/>
      </contour>
    </TTGlyph>
    <TTGlyph name="cedilla" xMin="200" yMin="-300" xMax="600" yMax="0">
      <contour>
        <pt x="400" y="0" on="1"/>
        <pt x="600" y="0" on="1"/>
        <pt x="600" y="-200" on="1"/>
        <pt x="500" y="-200" on="1"/>
        <pt x="500" y="-300" on="1"/>
        <pt x="200" y="-300" on="1"/>
        <pt x="200" y="-200" on="1"/>
        <pt x="400" y="-200" on="1"/>
      </contour>
    </TTGlyph>
    <TTGlyph name="cent" xMin="100" yMin="-100" xMax="700" yMax="900">
      <contour>
        <pt x="100" y="200" on="1"/>
        <pt x="100" y="600" on="1"/>
        <pt x="200" y="600" on="1"/>
        <pt x="200" y="700" on="1"/>
        <pt x="400" y="700" on="1"/>
        <pt x="400" y="900" on="1"/>
        <pt x="600" y="900" on="1"/>
        <pt x="600" y="700" on="1"/>
        <pt x="700" y="700" on="1"/>
        <pt x="700" y="600" on="1"/>
        <pt x="300" y="600" on="1"/>
        <pt x="300" y="200" on="1"/>
        <pt x="700" y="200" on="1"/>
        <pt x="700" y="100" on="1"/>
        <pt x="600" y="100" on="1"/>
        <pt x="600" y="-100" on="1"/>
        <pt x="400" y="-100" on="1"/>
        <pt x="400" y="100" on="1"/>
        <pt x="200" y="100" on="1"/>
        <pt x="200" y="200" on="1"/>
      </contour>
    </TTGlyph>
    <TTGlyph name="colon" xMin="200" yMin="0" xMax="500" yMax="700">
      <contour>
        <pt x="500" y="200" on="1"/>
        <pt x="500" y="0" on="1"/>
        <pt x="200" y="0" on="1"/>
        <pt x="200" y="200" on="1"/>
      </contour>
      <contour>
        <pt x="500" y="500" on="1"/>
        <pt x="200" y="500" on="1"/>
        <pt x="200" y="700" on="1"/>
        <pt x="500" y="700" on="1"/>
      </contour>
    </TTGlyph>
    <TTGlyph name="comma" xMin="200" yMin="-300" xMax="500" yMax="200">
      <contour>
        <pt x="400" y="-200" on="1"/>
        <pt x="400" y="-300" on="1"/>
        <pt x="200" y="-300" on="1"/>
        <pt x="200" y="-200" on="1"/>
        <pt x="300" y="-200" on="1"/>
        <pt x="300" y="0" on="1"/>
        <pt x="200" y="0" on="1"/>
        <pt x="200" y="200" on="1"/>
        <pt x="500" y="200" on="1"/>
        <pt x="500" y="-200" on="1"/>
      </contour>
    </TTGlyph>
    <TTGlyph name="copyright" xMin="100" yMin="0" xMax="800" yMax="800">
      <contour>
        <pt x="200" y="200" on="1"/>
        <pt x="100" y="200" on="1"/>
        <pt x="100" y="600" on="1"/>
        <pt x="200" y="600" on="1"/>
      </contour>
      <contour>
        <pt x="200" y="100" on="1"/>
        <pt x="200" y="200" on="1"/>
        <pt x="300" y="200" on="1"/>
        <pt x="300" y="100" on="1"/>
      </contour>
      <contour>
        <pt x="200" y="600" on="1"/>
        <pt x="200" y="700" on="1"/>
        <pt x="300" y="700" on="1"/>
        <pt x="300" y="600" on="1"/>
      </contour>
      <contour>
        <pt x="400" y="200" on="1"/>
        <pt x="400" y="300" on="1"/>
        <pt x="600" y="300" on="1"/>
        <pt x="600" y="200" on="1"/>
      </contour>
      <contour>
        <pt x="400" y="500" on="1"/>
        <pt x="400" y="300" on="1"/>
        <pt x="300" y="300" on="1"/>
        <pt x="300" y="500" on="1"/>
      </contour>
      <contour>
        <pt x="400" y="600" on="1"/>
        <pt x="600" y="600" on="1"/>
        <pt x="600" y="500" on="1"/>
        <pt x="400" y="500" on="1"/>
      </contour>
      <contour>
        <pt x="600" y="200" on="1"/>
        <pt x="700" y="200" on="1"/>
        <pt x="700" y="100" on="1"/>
        <pt x="600" y="100" on="1"/>
      </contour>
      <contour>
        <pt x="600" y="100" on="1"/>
        <pt x="600" y="0" on="1"/>
        <pt x="300" y="0" on="1"/>
        <pt x="300" y="100" on="1"/>
      </contour>
      <contour>
        <pt x="600" y="700" on="1"/>
        <pt x="700" y="700" on="1"/>
        <pt x="700" y="600" on="1"/>
        <pt x="600" y="600" on="1"/>
      </contour>
      <contour>
        <pt x="600" y="800" on="1"/>
        <pt x="600" y="700" on="1"/>
        <pt x="300" y="700" on="1"/>
        <pt x="300" y="800" on="1"/>
      </contour>
      <contour>
        <pt x="800" y="200" on="1"/>
        <pt x="700" y="200" on="1"/>
        <pt x="700" y="600" on="1"/>
        <pt x="800" y="600" on="1"/>
      </contour>
    </TTGlyph>
    <TTGlyph name="currency" xMin="100" yMin="0" xMax="800" yMax="800">
      <contour>
        <pt x="200" y="100" on="1"/>
        <pt x="200" y="300" on="1"/>
        <pt x="100" y="300" on="1"/>
        <pt x="100" y="500" on="1"/>
        <pt x="200" y="500" on="1"/>
        <pt x="200" y="700" on="1"/>
        <pt x="100" y="700" on="1"/>
        <pt x="100" y="800" on="1"/>
        <pt x="300" y="800" on="1"/>
        <pt x="300" y="700" on="1"/>
        <pt x="600" y="700" on="1"/>
        <pt x="600" y="800" on="1"/>
        <pt x="800" y="800" on="1"/>
        <pt x="800" y="700" on="1"/>
        <pt x="700" y="700" on="1"/>
        <pt x="700" y="500" on="1"/>
        <pt x="800" y="500" on="1"/>
        <pt x="800" y="300" on="1"/>
        <pt x="700" y="300" on="1"/>
        <pt x="700" y="100" on="1"/>
        <pt x="800" y="100" on="1"/>
        <pt x="800" y="0" on="1"/>
        <pt x="600" y="0" on="1"/>
        <pt x="600" y="100" on="1"/>
        <pt x="300" y="100" on="1"/>
        <pt x="300" y="0" on="1"/>
        <pt x="100" y="0" on="1"/>
        <pt x="100" y="100" on="1"/>
      </contour>
      <contour>
        <pt x="400" y="200" on="1"/>
        <pt x="500" y="200" on="1"/>
        <pt x="500" y="300" on="1"/>
        <pt x="600" y="300" on="1"/>
        <pt x="600" y="500" on="1"/>
        <pt x="500" y="500" on="1"/>
        <pt x="500" y="600" on="1"/>
        <pt x="400" y="600" on="1"/>
        <pt x="400" y="500" on="1"/>
        <pt x="300" y="500" on="1"/>
        <pt x="300" y="300" on="1"/>
        <pt x="400" y="300" on="1"/>
      </contour>
    </TTGlyph>
    <TTGlyph name="d" xMin="100" yMin="0" xMax="700" yMax="900">
      <contour>
        <pt x="100" y="100" on="1"/>
        <pt x="100" y="500" on="1"/>
        <pt x="200" y="500" on="1"/>
        <pt x="200" y="600" on="1"/>
        <pt x="500" y="600" on="1"/>
        <pt x="500" y="900" on="1"/>
        <pt x="700" y="900" on="1"/>
        <pt x="700" y="0" on="1"/>
        <pt x="200" y="0" on="1"/>
        <pt x="200" y="100" on="1"/>
      </contour>
      <contour>
        <pt x="300" y="100" on="1"/>
        <pt x="500" y="100" on="1"/>
        <pt x="500" y="500" on="1"/>
        <pt x="300" y="500" on="1"/>
      </contour>
    </TTGlyph>
    <TTGlyph name="degree" xMin="100" yMin="300" xMax="700" yMax="800">
      <contour>
        <pt x="100" y="400" on="1"/>
        <pt x="100" y="700" on="1"/>
        <pt x="200" y="700" on="1"/>
        <pt x="200" y="800" on="1"/>
        <pt x="600" y="800" on="1"/>
        <pt x="600" y="700" on="1"/>
        <pt x="700" y="700" on="1"/>
        <pt x="700" y="400" on="1"/>
        <pt x="600" y="400" on="1"/>
        <pt x="600" y="300" on="1"/>
        <pt x="200" y="300" on="1"/>
        <pt x="200" y="400" on="1"/>
      </contour>
      <contour>
        <pt x="300" y="400" on="1"/>
        <pt x="500" y="400" on="1"/>
        <pt x="500" y="700" on="1"/>
        <pt x="300" y="700" on="1"/>
      </contour>
    </TTGlyph>
    <TTGlyph name="dieresis" xMin="100" yMin="700" xMax="700" yMax="900">
      <contour>
        <pt x="100" y="700" on="1"/>
        <pt x="100" y="900" on="1"/>
        <pt x="300" y="900" on="1"/>
        <pt x="300" y="700" on="1"/>
      </contour>
      <contour>
        <pt x="500" y="700" on="1"/>
        <pt x="500" y="900" on="1"/>
        <pt x="700" y="900" on="1"/>
        <pt x="700" y="700" on="1"/>
      </contour>
    </TTGlyph>
    <TTGlyph name="divide" xMin="100" yMin="0" xMax="700" yMax="700">
      <contour>
        <pt x="500" y="200" on="1"/>
        <pt x="500" y="0" on="1"/>
        <pt x="300" y="0" on="1"/>
        <pt x="300" y="200" on="1"/>
      </contour>
      <contour>
        <pt x="100" y="300" on="1"/>
        <pt x="100" y="400" on="1"/>
        <pt x="700" y="400" on="1"/>
        <pt x="700" y="300" on="1"/>
      </contour>
      <contour>
        <pt x="500" y="500" on="1"/>
        <pt x="300" y="500" on="1"/>
        <pt x="300" y="700" on="1"/>
        <pt x="500" y="700" on="1"/>
      </contour>
    </TTGlyph>
    <TTGlyph name="dollar" xMin="100" yMin="-100" xMax="700" yMax="1000">
      <contour>
        <pt x="200" y="500" on="1"/>
        <pt x="100" y="500" on="1"/>
        <pt x="100" y="700" on="1"/>
        <pt x="200" y="700" on="1"/>
        <pt x="200" y="800" on="1"/>
        <pt x="300" y="800" on="1"/>
        <pt x="300" y="1000" on="1"/>
        <pt x="500" y="1000" on="1"/>
        <pt x="500" y="800" on="1"/>
        <pt x="700" y="800" on="1"/>
        <pt x="700" y="700" on="1"/>
        <pt x="300" y="700" on="1"/>
        <pt x="300" y="500" on="1"/>
        <pt x="600" y="500" on="1"/>
        <pt x="600" y="400" on="1"/>
        <pt x="700" y="400" on="1"/>
        <pt x="700" y="200" on="1"/>
        <pt x="600" y="200" on="1"/>
        <pt x="600" y="100" on="1"/>
        <pt x="500" y="100" on="1"/>
        <pt x="500" y="-100" on="1"/>
        <pt x="300" y="-100" on="1"/>
        <pt x="300" y="100" on="1"/>
        <pt x="100" y="100" on="1"/>
        <pt x="100" y="200" on="1"/>
        <pt x="500" y="200" on="1"/>
        <pt x="500" y="400" on="1"/>
        <pt x="200" y="400" on="1"/>
      </contour>
    </TTGlyph>
    <TTGlyph name="e" xMin="100" yMin="0" xMax="700" yMax="600">
      <contour>
        <pt x="100" y="100" on="1"/>
        <pt x="100" y="500" on="1"/>
        <pt x="200" y="500" on="1"/>
        <pt x="200" y="600" on="1"/>
        <pt x="600" y="600" on="1"/>
        <pt x="600" y="500" on="1"/>
        <pt x="700" y="500" on="1"/>
        <pt x="700" y="300" on="1"/>
        <pt x="300" y="300" on="1"/>
        <pt x="300" y="100" on="1"/>
        <pt x="700" y="100" on="1"/>
        <pt x="700" y="0" on="1"/>
        <pt x="200" y="0" on="1"/>
        <pt x="200" y="100" on="1"/>
      </contour>
      <contour>
        <pt x="300" y="500" on="1"/>
        <pt x="300" y="400" on="1"/>
        <pt x="500" y="400" on="1"/>
        <pt x="500" y="500" on="1"/>
      </contour>
    </TTGlyph>
    <TTGlyph name="eacute" xMin="100" yMin="0" xMax="700" yMax="900">
      <contour>
        <pt x="200" y="100" on="1"/>
        <pt x="100" y="100" on="1"/>
        <pt x="100" y="500" on="1"/>
        <pt x="200" y="500" on="1"/>
        <pt x="200" y="600" on="1"/>
        <pt x="600" y="600" on="1"/>
        <pt x="600" y="500" on="1"/>
        <pt x="700" y="500" on="1"/>
        <pt x="700" y="300" on="1"/>
        <pt x="300" y="300" on="1"/>
        <pt x="300" y="100" on="1"/>
        <pt x="700" y="100" on="1"/>
        <pt x="700" y="0" on="1"/>
        <pt x="200" y="0" on="1"/>
      </contour>
      <contour>
        <pt x="400" y="800" on="1"/>
        <pt x="400" y="900" on="1"/>
        <pt x="600" y="900" on="1"/>
        <pt x="600" y="800" on="1"/>
        <pt x="500" y="800" on="1"/>
        <pt x="500" y="700" on="1"/>
        <pt x="300" y="700" on="1"/>
        <pt x="300" y="800" on="1"/>
      </contour>
      <contour>
        <pt x="300" y="500" on="1"/>
        <pt x="300" y="400" on="1"/>
        <pt x="500" y="400" on="1"/>
        <pt x="500" y="500" on="1"/>
      </contour>
    </TTGlyph>
    <TTGlyph name="ecircumflex" xMin="100" yMin="0" xMax="700" yMax="1000">
      <contour>
        <pt x="200" y="100" on="1"/>
        <pt x="100" y="100" on="1"/>
        <pt x="100" y="500" on="1"/>
        <pt x="200" y="500" on="1"/>
        <pt x="200" y="600" on="1"/>
        <pt x="600" y="600" on="1"/>
        <pt x="600" y="500" on="1"/>
        <pt x="700" y="500" on="1"/>
        <pt x="700" y="300" on="1"/>
        <pt x="300" y="300" on="1"/>
        <pt x="300" y="100" on="1"/>
        <pt x="700" y="100" on="1"/>
        <pt x="700" y="0" on="1"/>
        <pt x="200" y="0" on="1"/>
      </contour>
      <contour>
        <pt x="200" y="800" on="1"/>
        <pt x="200" y="900" on="1"/>
        <pt x="300" y="900" on="1"/>
        <pt x="300" y="1000" on="1"/>
        <pt x="500" y="1000" on="1"/>
        <pt x="500" y="900" on="1"/>
        <pt x="600" y="900" on="1"/>
        <pt x="600" y="800" on="1"/>
        <pt x="700" y="800" on="1"/>
        <pt x="700" y="700" on="1"/>
        <pt x="500" y="700" on="1"/>
        <pt x="500" y="800" on="1"/>
        <pt x="300" y="800" on="1"/>
        <pt x="300" y="700" on="1"/>
        <pt x="100" y="700" on="1"/>
        <pt x="100" y="800" on="1"/>
      </contour>
      <contour>
        <pt x="300" y="500" on="1"/>
        <pt x="300" y="400" on="1"/>
        <pt x="500" y="400" on="1"/>
        <pt x="500" y="500" on="1"/>
      </contour>
    </TTGlyph>
    <TTGlyph name="edieresis" xMin="100" yMin="0" xMax="700" yMax="900">
      <contour>
        <pt x="200" y="100" on="1"/>
        <pt x="100" y="100" on="1"/>
        <pt x="100" y="500" on="1"/>
        <pt x="200" y="500" on="1"/>
        <pt x="200" y="600" on="1"/>
        <pt x="600" y="600" on="1"/>
        <pt x="600" y="500" on="1"/>
        <pt x="700" y="500" on="1"/>
        <pt x="700" y="300" on="1"/>
        <pt x="300" y="300" on="1"/>
        <pt x="300" y="100" on="1"/>
        <pt x="700" y="100" on="1"/>
        <pt x="700" y="0" on="1"/>
        <pt x="200" y="0" on="1"/>
      </contour>
      <contour>
        <pt x="100" y="700" on="1"/>
        <pt x="100" y="900" on="1"/>
        <pt x="300" y="900" on="1"/>
        <pt x="300" y="700" on="1"/>
      </contour>
      <contour>
        <pt x="300" y="500" on="1"/>
        <pt x="300" y="400" on="1"/>
        <pt x="500" y="400" on="1"/>
        <pt x="500" y="500" on="1"/>
      </contour>
      <contour>
        <pt x="500" y="700" on="1"/>
        <pt x="500" y="900" on="1"/>
        <pt x="700" y="900" on="1"/>
        <pt x="700" y="700" on="1"/>
      </contour>
    </TTGlyph>
    <TTGlyph name="egrave" xMin="100" yMin="0" xMax="700" yMax="900">
      <contour>
        <pt x="200" y="100" on="1"/>
        <pt x="100" y="100" on="1"/>
        <pt x="100" y="500" on="1"/>
        <pt x="200" y="500" on="1"/>
        <pt x="200" y="600" on="1"/>
        <pt x="600" y="600" on="1"/>
        <pt x="600" y="500" on="1"/>
        <pt x="700" y="500" on="1"/>
        <pt x="700" y="300" on="1"/>
        <pt x="300" y="300" on="1"/>
        <pt x="300" y="100" on="1"/>
        <pt x="700" y="100" on="1"/>
        <pt x="700" y="0" on="1"/>
        <pt x="200" y="0" on="1"/>
      </contour>
      <contour>
        <pt x="200" y="800" on="1"/>
        <pt x="200" y="900" on="1"/>
        <pt x="400" y="900" on="1"/>
        <pt x="400" y="800" on="1"/>
        <pt x="500" y="800" on="1"/>
        <pt x="500" y="700" on="1"/>
        <pt x="300" y="700" on="1"/>
        <pt x="300" y="800" on="1"/>
      </contour>
      <contour>
        <pt x="300" y="500" on="1"/>
        <pt x="300" y="400" on="1"/>
        <pt x="500" y="400" on="1"/>
        <pt x="500" y="500" on="1"/>
      </contour>
    </TTGlyph>
    <TTGlyph name="eight" xMin="100" yMin="0" xMax="700" yMax="800">
      <contour>
        <pt x="200" y="100" on="1"/>
        <pt x="100" y="100" on="1"/>
        <pt x="100" y="400" on="1"/>
        <pt x="200" y="400" on="1"/>
        <pt x="200" y="500" on="1"/>
        <pt x="100" y="500" on="1"/>
        <pt x="100" y="700" on="1"/>
        <pt x="200" y="700" on="1"/>
        <pt x="200" y="800" on="1"/>
        <pt x="600" y="800" on="1"/>
        <pt x="600" y="700" on="1"/>
        <pt x="700" y="700" on="1"/>
        <pt x="700" y="500" on="1"/>
        <pt x="600" y="500" on="1"/>
        <pt x="600" y="400" on="1"/>
        <pt x="700" y="400" on="1"/>
        <pt x="700" y="100" on="1"/>
        <pt x="600" y="100" on="1"/>
        <pt x="600" y="0" on="1"/>
        <pt x="200" y="0" on="1"/>
      </contour>
      <contour>
        <pt x="300" y="100" on="1"/>
        <pt x="500" y="100" on="1"/>
        <pt x="500" y="400" on="1"/>
        <pt x="300" y="400" on="1"/>
      </contour>
      <contour>
        <pt x="300" y="500" on="1"/>
        <pt x="500" y="500" on="1"/>
        <pt x="500" y="700" on="1"/>
        <pt x="300" y="700" on="1"/>
      </contour>
    </TTGlyph>
    <TTGlyph name="equal" xMin="100" yMin="200" xMax="700" yMax="600">
      <contour>
        <pt x="100" y="200" on="1"/>
        <pt x="100" y="300" on="1"/>
        <pt x="700" y="300" on="1"/>
        <pt x="700" y="200" on="1"/>
      </contour>
      <contour>
        <pt x="100" y="500" on="1"/>
        <pt x="100" y="600" on="1"/>
        <pt x="700" y="600" on="1"/>
        <pt x="700" y="500" on="1"/>
      </contour>
    </TTGlyph>
    <TTGlyph name="eth" xMin="100" yMin="0" xMax="700" yMax="1000">
      <contour>
        <pt x="200" y="100" on="1"/>
        <pt x="100" y="100" on="1"/>
        <pt x="100" y="500" on="1"/>
        <pt x="200" y="500" on="1"/>
        <pt x="200" y="600" on="1"/>
        <pt x="500" y="600" on="1"/>
        <pt x="500" y="700" on="1"/>
        <pt x="200" y="700" on="1"/>
        <pt x="200" y="800" on="1"/>
        <pt x="400" y="800" on="1"/>
        <pt x="400" y="900" on="1"/>
        <pt x="300" y="900" on="1"/>
        <pt x="300" y="1000" on="1"/>
        <pt x="500" y="1000" on="1"/>
        <pt x="500" y="900" on="1"/>
        <pt x="600" y="900" on="1"/>
        <pt x="600" y="700" on="1"/>
        <pt x="700" y="700" on="1"/>
        <pt x="700" y="100" on="1"/>
        <pt x="600" y="100" on="1"/>
        <pt x="600" y="0" on="1"/>
        <pt x="200" y="0" on="1"/>
      </contour>
      <contour>
        <pt x="600" y="900" on="1"/>
        <pt x="600" y="1000" on="1"/>
        <pt x="700" y="1000" on="1"/>
        <pt x="700" y="900" on="1"/>
      </contour>
      <contour>
        <pt x="300" y="100" on="1"/>
        <pt x="500" y="100" on="1"/>
        <pt x="500" y="500" on="1"/>
        <pt x="300" y="500" on="1"/>
      </contour>
    </TTGlyph>
    <TTGlyph name="exclam" xMin="200" yMin="0" xMax="600" yMax="900">
      <contour>
        <pt x="200" y="600" on="1"/>
        <pt x="200" y="800" on="1"/>
        <pt x="300" y="800" on="1"/>
        <pt x="300" y="900" on="1"/>
        <pt x="500" y="900" on="1"/>
        <pt x="500" y="800" on="1"/>
        <pt x="600" y="800" on="1"/>
        <pt x="600" y="600" on="1"/>
        <pt x="500" y="600" on="1"/>
        <pt x="500" y="400" on="1"/>
        <pt x="300" y="400" on="1"/>
        <pt x="300" y="600" on="1"/>
      </contour>
      <contour>
        <pt x="300" y="200" on="1"/>
        <pt x="500" y="200" on="1"/>
        <pt x="500" y="0" on="1"/>
        <pt x="300" y="0" on="1"/>
      </contour>
    </TTGlyph>
    <TTGlyph name="exclamdown" xMin="200" yMin="-300" xMax="600" yMax="600">
      <contour>
        <pt x="200" y="0" on="1"/>
        <pt x="300" y="0" on="1"/>
        <pt x="300" y="200" on="1"/>
        <pt x="500" y="200" on="1"/>
        <pt x="500" y="0" on="1"/>
        <pt x="600" y="0" on="1"/>
        <pt x="600" y="-200" on="1"/>
        <pt x="500" y="-200" on="1"/>
        <pt x="500" y="-300" on="1"/>
        <pt x="300" y="-300" on="1"/>
        <pt x="300" y="-200" on="1"/>
        <pt x="200" y="-200" on="1"/>
      </contour>
      <contour>
        <pt x="300" y="400" on="1"/>
        <pt x="300" y="600" on="1"/>
        <pt x="500" y="600" on="1"/>
        <pt x="500" y="400" on="1"/>
      </contour>
    </TTGlyph>
    <TTGlyph name="f" xMin="100" yMin="0" xMax="700" yMax="900">
      <contour>
        <pt x="100" y="500" on="1"/>
        <pt x="100" y="600" on="1"/>
        <pt x="200" y="600" on="1"/>
        <pt x="200" y="800" on="1"/>
        <pt x="300" y="800" on="1"/>
        <pt x="300" y="900" on="1"/>
        <pt x="700" y="900" on="1"/>
        <pt x="700" y="800" on="1"/>
        <pt x="400" y="800" on="1"/>
        <pt x="400" y="600" on="1"/>
        <pt x="700" y="600" on="1"/>
        <pt x="700" y="500" on="1"/>
        <pt x="400" y="500" on="1"/>
        <pt x="400" y="0" on="1"/>
        <pt x="200" y="0" on="1"/>
        <pt x="200" y="500" on="1"/>
      </contour>
    </TTGlyph>
    <TTGlyph name="five" xMin="100" yMin="0" xMax="700" yMax="800">
      <contour>
        <pt x="100" y="100" on="1"/>
        <pt x="100" y="200" on="1"/>
        <pt x="300" y="200" on="1"/>
        <pt x="300" y="100" on="1"/>
        <pt x="500" y="100" on="1"/>
        <pt x="500" y="400" on="1"/>
        <pt x="100" y="400" on="1"/>
        <pt x="100" y="800" on="1"/>
        <pt x="700" y="800" on="1"/>
        <pt x="700" y="700" on="1"/>
        <pt x="300" y="700" on="1"/>
        <pt x="300" y="500" on="1"/>
        <pt x="600" y="500" on="1"/>
        <pt x="600" y="400" on="1"/>
        <pt x="700" y="400" on="1"/>
        <pt x="700" y="100" on="1"/>
        <pt x="600" y="100" on="1"/>
        <pt x="600" y="0" on="1"/>
        <pt x="200" y="0" on="1"/>
        <pt x="200" y="100" on="1"/>
      </contour>
    </TTGlyph>
    <TTGlyph name="four" xMin="100" yMin="0" xMax="800" yMax="800">
      <contour>
        <pt x="800" y="200" on="1"/>
        <pt x="700" y="200" on="1"/>
        <pt x="700" y="0" on="1"/>
        <pt x="500" y="0" on="1"/>
        <pt x="500" y="200" on="1"/>
        <pt x="100" y="200" on="1"/>
        <pt x="100" y="400" on="1"/>
        <pt x="200" y="400" on="1"/>
        <pt x="200" y="500" on="1"/>
        <pt x="300" y="500" on="1"/>
        <pt x="300" y="600" on="1"/>
        <pt x="400" y="600" on="1"/>
        <pt x="400" y="700" on="1"/>
        <pt x="500" y="700" on="1"/>
        <pt x="500" y="800" on="1"/>
        <pt x="700" y="800" on="1"/>
        <pt x="700" y="300" on="1"/>
        <pt x="800" y="300" on="1"/>
      </contour>
      <contour>
        <pt x="300" y="400" on="1"/>
        <pt x="300" y="300" on="1"/>
        <pt x="500" y="300" on="1"/>
        <pt x="500" y="500" on="1"/>
        <pt x="400" y="500" on="1"/>
        <pt x="400" y="400" on="1"/>
      </contour>
    </TTGlyph>
    <TTGlyph name="g" xMin="100" yMin="-300" xMax="700" yMax="600">
      <contour>
        <pt x="100" y="100" on="1"/>
        <pt x="100" y="500" on="1"/>
        <pt x="200" y="500" on="1"/>
        <pt x="200" y="600" on="1"/>
        <pt x="700" y="600" on="1"/>
        <pt x="700" y="-200" on="1"/>
        <pt x="600" y="-200" on="1"/>
        <pt x="600" y="-300" on="1"/>
        <pt x="200" y="-300" on="1"/>
        <pt x="200" y="-200" on="1"/>
        <pt x="500" y="-200" on="1"/>
        <pt x="500" y="0" on="1"/>
        <pt x="200" y="0" on="1"/>
        <pt x="200" y="100" on="1"/>
      </contour>
      <contour>
        <pt x="300" y="100" on="1"/>
        <pt x="500" y="100" on="1"/>
        <pt x="500" y="500" on="1"/>
        <pt x="300" y="500" on="1"/>
      </contour>
    </TTGlyph>
    <TTGlyph name="germandbls" xMin="100" yMin="0" xMax="700" yMax="800">
      <contour>
        <pt x="100" y="0" on="1"/>
        <pt x="100" y="700" on="1"/>
        <pt x="200" y="700" on="1"/>
        <pt x="200" y="800" on="1"/>
        <pt x="600" y="800" on="1"/>
        <pt x="600" y="700" on="1"/>
        <pt x="700" y="700" on="1"/>
        <pt x="700" y="500" on="1"/>
        <pt x="600" y="500" on="1"/>
        <pt x="600" y="400" on="1"/>
        <pt x="700" y="400" on="1"/>
        <pt x="700" y="100" on="1"/>
        <pt x="600" y="100" on="1"/>
        <pt x="600" y="0" on="1"/>
        <pt x="400" y="0" on="1"/>
        <pt x="400" y="100" on="1"/>
        <pt x="500" y="100" on="1"/>
        <pt x="500" y="400" on="1"/>
        <pt x="400" y="400" on="1"/>
        <pt x="400" y="500" on="1"/>
        <pt x="500" y="500" on="1"/>
        <pt x="500" y="700" on="1"/>
        <pt x="300" y="700" on="1"/>
        <pt x="300" y="0" on="1"/>
      </contour>
    </TTGlyph>
    <TTGlyph name="grave" xMin="200" yMin="600" xMax="600" yMax="900">
      <contour>
        <pt x="400" y="700" on="1"/>
        <pt x="300" y="700" on="1"/>
        <pt x="300" y="800" on="1"/>
        <pt x="200" y="800" on="1"/>
        <pt x="200" y="900" on="1"/>
        <pt x="400" y="900" on="1"/>
        <pt x="400" y="800" on="1"/>
        <pt x="500" y="800" on="1"/>
        <pt x="500" y="700" on="1"/>
        <pt x="600" y="700" on="1"/>
        <pt x="600" y="600" on="1"/>
        <pt x="400" y="600" on="1"/>
      </contour>
    </TTGlyph>
    <TTGlyph name="greater" xMin="100" yMin="0" xMax="600" yMax="700">
      <contour>
        <pt x="200" y="100" on="1"/>
        <pt x="200" y="200" on="1"/>
        <pt x="300" y="200" on="1"/>
        <pt x="300" y="300" on="1"/>
        <pt x="400" y="300" on="1"/>
        <pt x="400" y="400" on="1"/>
        <pt x="300" y="400" on="1"/>
        <pt x="300" y="500" on="1"/>
        <pt x="200" y="500" on="1"/>
        <pt x="200" y="600" on="1"/>
        <pt x="100" y="600" on="1"/>
        <pt x="100" y="700" on="1"/>
        <pt x="300" y="700" on="1"/>
        <pt x="300" y="600" on="1"/>
        <pt x="400" y="600" on="1"/>
        <pt x="400" y="500" on="1"/>
        <pt x="500" y="500" on="1"/>
        <pt x="500" y="400" on="1"/>
        <pt x="600" y="400" on="1"/>
        <pt x="600" y="300" on="1"/>
        <pt x="500" y="300" on="1"/>
        <pt x="500" y="200" on="1"/>
        <pt x="400" y="200" on="1"/>
        <pt x="400" y="100" on="1"/>
        <pt x="300" y="100" on="1"/>
        <pt x="300" y="0" on="1"/>
        <pt x="100" y="0" on="1"/>
        <pt x="100" y="100" on="1"/>
      </contour>
    </TTGlyph>
    <TTGlyph name="guillemotleft" xMin="100" yMin="0" xMax="800" yMax="500">
      <contour>
        <pt x="200" y="200" on="1"/>
        <pt x="100" y="200" on="1"/>
        <pt x="100" y="300" on="1"/>
        <pt x="200" y="300" on="1"/>
        <pt x="200" y="400" on="1"/>
        <pt x="300" y="400" on="1"/>
        <pt x="300" y="500" on="1"/>
        <pt x="500" y="500" on="1"/>
        <pt x="500" y="400" on="1"/>
        <pt x="400" y="400" on="1"/>
        <pt x="400" y="300" on="1"/>
        <pt x="300" y="300" on="1"/>
        <pt x="300" y="200" on="1"/>
        <pt x="400" y="200" on="1"/>
        <pt x="400" y="100" on="1"/>
        <pt x="500" y="100" on="1"/>
        <pt x="500" y="0" on="1"/>
        <pt x="300" y="0" on="1"/>
        <pt x="300" y="100" on="1"/>
        <pt x="200" y="100" on="1"/>
      </contour>
      <contour>
        <pt x="400" y="200" on="1"/>
        <pt x="400" y="300" on="1"/>
        <pt x="500" y="300" on="1"/>
        <pt x="500" y="400" on="1"/>
        <pt x="600" y="400" on="1"/>
        <pt x="600" y="500" on="1"/>
        <pt x="800" y="500" on="1"/>
        <pt x="800" y="400" on="1"/>
        <pt x="700" y="400" on="1"/>
        <pt x="700" y="300" on="1"/>
        <pt x="600" y="300" on="1"/>
        <pt x="600" y="200" on="1"/>
        <pt x="700" y="200" on="1"/>
        <pt x="700" y="100" on="1"/>
        <pt x="800" y="100" on="1"/>
        <pt x="800" y="0" on="1"/>
        <pt x="600" y="0" on="1"/>
        <pt x="600" y="100" on="1"/>
        <pt x="500" y="100" on="1"/>
        <pt x="500" y="200" on="1"/>
      </contour>
    </TTGlyph>
    <TTGlyph name="guillemotright" xMin="100" yMin="0" xMax="800" yMax="500">
      <contour>
        <pt x="200" y="100" on="1"/>
        <pt x="200" y="200" on="1"/>
        <pt x="300" y="200" on="1"/>
        <pt x="300" y="300" on="1"/>
        <pt x="200" y="300" on="1"/>
        <pt x="200" y="400" on="1"/>
        <pt x="100" y="400" on="1"/>
        <pt x="100" y="500" on="1"/>
        <pt x="300" y="500" on="1"/>
        <pt x="300" y="400" on="1"/>
        <pt x="400" y="400" on="1"/>
        <pt x="400" y="300" on="1"/>
        <pt x="500" y="300" on="1"/>
        <pt x="500" y="200" on="1"/>
        <pt x="400" y="200" on="1"/>
        <pt x="400" y="100" on="1"/>
        <pt x="300" y="100" on="1"/>
        <pt x="300" y="0" on="1"/>
        <pt x="100" y="0" on="1"/>
        <pt x="100" y="100" on="1"/>
      </contour>
      <contour>
        <pt x="400" y="100" on="1"/>
        <pt x="500" y="100" on="1"/>
        <pt x="500" y="200" on="1"/>
        <pt x="600" y="200" on="1"/>
        <pt x="600" y="300" on="1"/>
        <pt x="500" y="300" on="1"/>
        <pt x="500" y="400" on="1"/>
        <pt x="400" y="400" on="1"/>
        <pt x="400" y="500" on="1"/>
        <pt x="600" y="500" on="1"/>
        <pt x="600" y="400" on="1"/>
        <pt x="700" y="400" on="1"/>
        <pt x="700" y="300" on="1"/>
        <pt x="800" y="300" on="1"/>
        <pt x="800" y="200" on="1"/>
        <pt x="700" y="200" on="1"/>
        <pt x="700" y="100" on="1"/>
        <pt x="600" y="100" on="1"/>
        <pt x="600" y="0" on="1"/>
        <pt x="400" y="0" on="1"/>
      </contour>
    </TTGlyph>
    <TTGlyph name="h" xMin="100" yMin="0" xMax="700" yMax="900">
      <contour>
        <pt x="100" y="0" on="1"/>
        <pt x="100" y="900" on="1"/>
        <pt x="300" y="900" on="1"/>
        <pt x="300" y="600" on="1"/>
        <pt x="600" y="600" on="1"/>
        <pt x="600" y="500" on="1"/>
        <pt x="700" y="500" on="1"/>
        <pt x="700" y="0" on="1"/>
        <pt x="500" y="0" on="1"/>
        <pt x="500" y="500" on="1"/>
        <pt x="300" y="500" on="1"/>
        <pt x="300" y="0" on="1"/>
      </contour>
    </TTGlyph>
    <TTGlyph name="hyphen" xMin="100" yMin="300" xMax="700" yMax="400">
      <contour>
        <pt x="100" y="300" on="1"/>
        <pt x="100" y="400" on="1"/>
        <pt x="700" y="400" on="1"/>
        <pt x="700" y="300" on="1"/>
      </contour>
    </TTGlyph>
    <TTGlyph name="hyphen#1" xMin="100" yMin="300" xMax="700" yMax="400">
      <contour>
        <pt x="100" y="300" on="1"/>
        <pt x="100" y="400" on="1"/>
        <pt x="700" y="400" on="1"/>
        <pt x="700" y="300" on="1"/>
      </contour>
    </TTGlyph>
    <TTGlyph name="i" xMin="100" yMin="0" xMax="700" yMax="900">
      <contour>
        <pt x="100" y="0" on="1"/>
        <pt x="100" y="100" on="1"/>
        <pt x="300" y="100" on="1"/>
        <pt x="300" y="500" on="1"/>
        <pt x="100" y="500" on="1"/>
        <pt x="100" y="600" on="1"/>
        <pt x="500" y="600" on="1"/>
        <pt x="500" y="100" on="1"/>
        <pt x="700" y="100" on="1"/>
        <pt x="700" y="0" on="1"/>
      </contour>
      <contour>
        <pt x="300" y="700" on="1"/>
        <pt x="300" y="900" on="1"/>
        <pt x="500" y="900" on="1"/>
        <pt x="500" y="700" on="1"/>
      </contour>
    </TTGlyph>
    <TTGlyph name="iacute" xMin="100" yMin="0" xMax="700" yMax="900">
      <contour>
        <pt x="100" y="0" on="1"/>
        <pt x="100" y="100" on="1"/>
        <pt x="300" y="100" on="1"/>
        <pt x="300" y="500" on="1"/>
        <pt x="100" y="500" on="1"/>
        <pt x="100" y="600" on="1"/>
        <pt x="500" y="600" on="1"/>
        <pt x="500" y="100" on="1"/>
        <pt x="700" y="100" on="1"/>
        <pt x="700" y="0" on="1"/>
      </contour>
      <contour>
        <pt x="300" y="700" on="1"/>
        <pt x="300" y="800" on="1"/>
        <pt x="400" y="800" on="1"/>
        <pt x="400" y="900" on="1"/>
        <pt x="600" y="900" on="1"/>
        <pt x="600" y="800" on="1"/>
        <pt x="500" y="800" on="1"/>
        <pt x="500" y="700" on="1"/>
      </contour>
    </TTGlyph>
    <TTGlyph name="icircumflex" xMin="100" yMin="0" xMax="700" yMax="1000">
      <contour>
        <pt x="200" y="800" on="1"/>
        <pt x="200" y="900" on="1"/>
        <pt x="300" y="900" on="1"/>
        <pt x="300" y="1000" on="1"/>
        <pt x="500" y="1000" on="1"/>
        <pt x="500" y="900" on="1"/>
        <pt x="600" y="900" on="1"/>
        <pt x="600" y="800" on="1"/>
        <pt x="700" y="800" on="1"/>
        <pt x="700" y="700" on="1"/>
        <pt x="500" y="700" on="1"/>
        <pt x="500" y="800" on="1"/>
        <pt x="300" y="800" on="1"/>
        <pt x="300" y="700" on="1"/>
        <pt x="100" y="700" on="1"/>
        <pt x="100" y="800" on="1"/>
      </contour>
      <contour>
        <pt x="100" y="0" on="1"/>
        <pt x="100" y="100" on="1"/>
        <pt x="300" y="100" on="1"/>
        <pt x="300" y="500" on="1"/>
        <pt x="100" y="500" on="1"/>
        <pt x="100" y="600" on="1"/>
        <pt x="500" y="600" on="1"/>
        <pt x="500" y="100" on="1"/>
        <pt x="700" y="100" on="1"/>
        <pt x="700" y="0" on="1"/>
      </contour>
    </TTGlyph>
    <TTGlyph name="idieresis" xMin="100" yMin="0" xMax="700" yMax="900">
      <contour>
        <pt x="100" y="0" on="1"/>
        <pt x="100" y="100" on="1"/>
        <pt x="300" y="100" on="1"/>
        <pt x="300" y="500" on="1"/>
        <pt x="100" y="500" on="1"/>
        <pt x="100" y="600" on="1"/>
        <pt x="500" y="600" on="1"/>
        <pt x="500" y="100" on="1"/>
        <pt x="700" y="100" on="1"/>
        <pt x="700" y="0" on="1"/>
      </contour>
      <contour>
        <pt x="100" y="700" on="1"/>
        <pt x="100" y="900" on="1"/>
        <pt x="300" y="900" on="1"/>
        <pt x="300" y="700" on="1"/>
      </contour>
      <contour>
        <pt x="500" y="700" on="1"/>
        <pt x="500" y="900" on="1"/>
        <pt x="700" y="900" on="1"/>
        <pt x="700" y="700" on="1"/>
      </contour>
    </TTGlyph>
    <TTGlyph name="igrave" xMin="100" yMin="0" xMax="700" yMax="900">
      <contour>
        <pt x="100" y="0" on="1"/>
        <pt x="100" y="100" on="1"/>
        <pt x="300" y="100" on="1"/>
        <pt x="300" y="500" on="1"/>
        <pt x="100" y="500" on="1"/>
        <pt x="100" y="600" on="1"/>
        <pt x="500" y="600" on="1"/>
        <pt x="500" y="100" on="1"/>
        <pt x="700" y="100" on="1"/>
        <pt x="700" y="0" on="1"/>
      </contour>
      <contour>
        <pt x="200" y="800" on="1"/>
        <pt x="200" y="900" on="1"/>
        <pt x="400" y="900" on="1"/>
        <pt x="400" y="800" on="1"/>
        <pt x="500" y="800" on="1"/>
        <pt x="500" y="700" on="1"/>
        <pt x="300" y="700" on="1"/>
        <pt x="300" y="800" on="1"/>
      </contour>
    </TTGlyph>
    <TTGlyph name="j" xMin="100" yMin="-300" xMax="600" yMax="900">
      <contour>
        <pt x="100" y="-200" on="1"/>
        <pt x="400" y="-200" on="1"/>
        <pt x="400" y="500" on="1"/>
        <pt x="200" y="500" on="1"/>
        <pt x="200" y="600" on="1"/>
        <pt x="600" y="600" on="1"/>
        <pt x="600" y="-200" on="1"/>
        <pt x="500" y="-200" on="1"/>
        <pt x="500" y="-300" on="1"/>
        <pt x="100" y="-300" on="1"/>
      </contour>
      <contour>
        <pt x="400" y="700" on="1"/>
        <pt x="400" y="900" on="1"/>
        <pt x="600" y="900" on="1"/>
        <pt x="600" y="700" on="1"/>
      </contour>
    </TTGlyph>
    <TTGlyph name="k" xMin="100" yMin="0" xMax="700" yMax="900">
      <contour>
        <pt x="100" y="0" on="1"/>
        <pt x="100" y="900" on="1"/>
        <pt x="300" y="900" on="1"/>
        <pt x="300" y="500" on="1"/>
        <pt x="400" y="500" on="1"/>
        <pt x="400" y="600" on="1"/>
        <pt x="600" y="600" on="1"/>
        <pt x="600" y="500" on="1"/>
        <pt x="500" y="500" on="1"/>
        <pt x="500" y="400" on="1"/>
        <pt x="400" y="400" on="1"/>
        <pt x="400" y="300" on="1"/>
        <pt x="500" y="300" on="1"/>
        <pt x="500" y="200" on="1"/>
        <pt x="600" y="200" on="1"/>
        <pt x="600" y="100" on="1"/>
        <pt x="700" y="100" on="1"/>
        <pt x="700" y="0" on="1"/>
        <pt x="500" y="0" on="1"/>
        <pt x="500" y="100" on="1"/>
        <pt x="400" y="100" on="1"/>
        <pt x="400" y="200" on="1"/>
        <pt x="300" y="200" on="1"/>
        <pt x="300" y="0" on="1"/>
      </contour>
    </TTGlyph>
    <TTGlyph name="l" xMin="100" yMin="0" xMax="700" yMax="900">
      <contour>
        <pt x="400" y="100" on="1"/>
        <pt x="300" y="100" on="1"/>
        <pt x="300" y="800" on="1"/>
        <pt x="100" y="800" on="1"/>
        <pt x="100" y="900" on="1"/>
        <pt x="500" y="900" on="1"/>
        <pt x="500" y="100" on="1"/>
        <pt x="700" y="100" on="1"/>
        <pt x="700" y="0" on="1"/>
        <pt x="400" y="0" on="1"/>
      </contour>
    </TTGlyph>
    <TTGlyph name="less" xMin="200" yMin="0" xMax="700" yMax="700">
      <contour>
        <pt x="200" y="300" on="1"/>
        <pt x="200" y="400" on="1"/>
        <pt x="300" y="400" on="1"/>
        <pt x="300" y="500" on="1"/>
        <pt x="400" y="500" on="1"/>
        <pt x="400" y="600" on="1"/>
        <pt x="500" y="600" on="1"/>
        <pt x="500" y="700" on="1"/>
        <pt x="700" y="700" on="1"/>
        <pt x="700" y="600" on="1"/>
        <pt x="600" y="600" on="1"/>
        <pt x="600" y="500" on="1"/>
        <pt x="500" y="500" on="1"/>
        <pt x="500" y="400" on="1"/>
        <pt x="400" y="400" on="1"/>
        <pt x="400" y="300" on="1"/>
        <pt x="500" y="300" on="1"/>
        <pt x="500" y="200" on="1"/>
        <pt x="600" y="200" on="1"/>
        <pt x="600" y="100" on="1"/>
        <pt x="700" y="100" on="1"/>
        <pt x="700" y="0" on="1"/>
        <pt x="500" y="0" on="1"/>
        <pt x="500" y="100" on="1"/>
        <pt x="400" y="100" on="1"/>
        <pt x="400" y="200" on="1"/>
        <pt x="300" y="200" on="1"/>
        <pt x="300" y="300" on="1"/>
      </contour>
    </TTGlyph>
    <TTGlyph name="m" xMin="100" yMin="0" xMax="800" yMax="600">
      <contour>
        <pt x="800" y="0" on="1"/>
        <pt x="600" y="0" on="1"/>
        <pt x="600" y="500" on="1"/>
        <pt x="500" y="500" on="1"/>
        <pt x="500" y="0" on="1"/>
        <pt x="400" y="0" on="1"/>
        <pt x="400" y="500" on="1"/>
        <pt x="300" y="500" on="1"/>
        <pt x="300" y="0" on="1"/>
        <pt x="100" y="0" on="1"/>
        <pt x="100" y="600" on="1"/>
        <pt x="700" y="600" on="1"/>
        <pt x="700" y="500" on="1"/>
        <pt x="800" y="500" on="1"/>
      </contour>
    </TTGlyph>
    <TTGlyph name="multiply" xMin="100" yMin="100" xMax="700" yMax="600">
      <contour>
        <pt x="200" y="200" on="1"/>
        <pt x="200" y="300" on="1"/>
        <pt x="300" y="300" on="1"/>
        <pt x="300" y="400" on="1"/>
        <pt x="200" y="400" on="1"/>
        <pt x="200" y="500" on="1"/>
        <pt x="100" y="500" on="1"/>
        <pt x="100" y="600" on="1"/>
        <pt x="300" y="600" on="1"/>
        <pt x="300" y="500" on="1"/>
        <pt x="500" y="500" on="1"/>
        <pt x="500" y="600" on="1"/>
        <pt x="700" y="600" on="1"/>
        <pt x="700" y="500" on="1"/>
        <pt x="600" y="500" on="1"/>
        <pt x="600" y="400" on="1"/>
        <pt x="500" y="400" on="1"/>
        <pt x="500" y="300" on="1"/>
        <pt x="600" y="300" on="1"/>
        <pt x="600" y="200" on="1"/>
        <pt x="700" y="200" on="1"/>
        <pt x="700" y="100" on="1"/>
        <pt x="500" y="100" on="1"/>
        <pt x="500" y="200" on="1"/>
        <pt x="300" y="200" on="1"/>
        <pt x="300" y="100" on="1"/>
        <pt x="100" y="100" on="1"/>
        <pt x="100" y="200" on="1"/>
      </contour>
    </TTGlyph>
    <TTGlyph name="n" xMin="100" yMin="0" xMax="700" yMax="600">
      <contour>
        <pt x="100" y="0" on="1"/>
        <pt x="100" y="600" on="1"/>
        <pt x="600" y="600" on="1"/>
        <pt x="600" y="500" on="1"/>
        <pt x="700" y="500" on="1"/>
        <pt x="700" y="0" on="1"/>
        <pt x="500" y="0" on="1"/>
        <pt x="500" y="500" on="1"/>
        <pt x="300" y="500" on="1"/>
        <pt x="300" y="0" on="1"/>
      </contour>
    </TTGlyph>
    <TTGlyph name="nine" xMin="100" yMin="0" xMax="700" yMax="800">
      <contour>
        <pt x="100" y="400" on="1"/>
        <pt x="100" y="700" on="1"/>
        <pt x="200" y="700" on="1"/>
        <pt x="200" y="800" on="1"/>
        <pt x="600" y="800" on="1"/>
        <pt x="600" y="700" on="1"/>
        <pt x="700" y="700" on="1"/>
        <pt x="700" y="200" on="1"/>
        <pt x="600" y="200" on="1"/>
        <pt x="600" y="100" on="1"/>
        <pt x="500" y="100" on="1"/>
        <pt x="500" y="0" on="1"/>
        <pt x="300" y="0" on="1"/>
        <pt x="300" y="100" on="1"/>
        <pt x="400" y="100" on="1"/>
        <pt x="400" y="200" on="1"/>
        <pt x="500" y="200" on="1"/>
        <pt x="500" y="300" on="1"/>
        <pt x="200" y="300" on="1"/>
        <pt x="200" y="400" on="1"/>
      </contour>
      <contour>
        <pt x="300" y="400" on="1"/>
        <pt x="500" y="400" on="1"/>
        <pt x="500" y="700" on="1"/>
        <pt x="300" y="700" on="1"/>
      </contour>
    </TTGlyph>
    <TTGlyph name="nonmarkingreturn" xMin="300" yMin="-300" xMax="800" yMax="400">
      <contour>
        <pt x="800" y="400" on="1"/>
        <pt x="800" y="300" on="1"/>
        <pt x="500" y="300" on="1"/>
        <pt x="500" y="-300" on="1"/>
        <pt x="300" y="-300" on="1"/>
        <pt x="300" y="400" on="1"/>
      </contour>
    </TTGlyph>
    <TTGlyph name="ntilde" xMin="100" yMin="0" xMax="700" yMax="1000">
      <contour>
        <pt x="200" y="700" on="1"/>
        <pt x="100" y="700" on="1"/>
        <pt x="100" y="900" on="1"/>
        <pt x="200" y="900" on="1"/>
        <pt x="200" y="1000" on="1"/>
        <pt x="400" y="1000" on="1"/>
        <pt x="400" y="900" on="1"/>
        <pt x="600" y="900" on="1"/>
        <pt x="600" y="1000" on="1"/>
        <pt x="700" y="1000" on="1"/>
        <pt x="700" y="800" on="1"/>
        <pt x="600" y="800" on="1"/>
        <pt x="600" y="700" on="1"/>
        <pt x="400" y="700" on="1"/>
        <pt x="400" y="800" on="1"/>
        <pt x="200" y="800" on="1"/>
      </contour>
      <contour>
        <pt x="600" y="500" on="1"/>
        <pt x="700" y="500" on="1"/>
        <pt x="700" y="0" on="1"/>
        <pt x="500" y="0" on="1"/>
        <pt x="500" y="500" on="1"/>
        <pt x="300" y="500" on="1"/>
        <pt x="300" y="0" on="1"/>
        <pt x="100" y="0" on="1"/>
        <pt x="100" y="600" on="1"/>
        <pt x="600" y="600" on="1"/>
      </contour>
    </TTGlyph>
    <TTGlyph name="numbersign" xMin="100" yMin="0" xMax="800" yMax="800">
      <contour>
        <pt x="200" y="200" on="1"/>
        <pt x="100" y="200" on="1"/>
        <pt x="100" y="300" on="1"/>
        <pt x="200" y="300" on="1"/>
        <pt x="200" y="500" on="1"/>
        <pt x="100" y="500" on="1"/>
        <pt x="100" y="600" on="1"/>
        <pt x="200" y="600" on="1"/>
        <pt x="200" y="800" on="1"/>
        <pt x="400" y="800" on="1"/>
        <pt x="400" y="600" on="1"/>
        <pt x="500" y="600" on="1"/>
        <pt x="500" y="800" on="1"/>
        <pt x="700" y="800" on="1"/>
        <pt x="700" y="600" on="1"/>
        <pt x="800" y="600" on="1"/>
        <pt x="800" y="500" on="1"/>
        <pt x="700" y="500" on="1"/>
        <pt x="700" y="300" on="1"/>
        <pt x="800" y="300" on="1"/>
        <pt x="800" y="200" on="1"/>
        <pt x="700" y="200" on="1"/>
        <pt x="700" y="0" on="1"/>
        <pt x="500" y="0" on="1"/>
        <pt x="500" y="200" on="1"/>
        <pt x="400" y="200" on="1"/>
        <pt x="400" y="0" on="1"/>
        <pt x="200" y="0" on="1"/>
      </contour>
      <contour>
        <pt x="400" y="300" on="1"/>
        <pt x="500" y="300" on="1"/>
        <pt x="500" y="500" on="1"/>
        <pt x="400" y="500" on="1"/>
      </contour>
    </TTGlyph>
    <TTGlyph name="o" xMin="100" yMin="0" xMax="700" yMax="600">
      <contour>
        <pt x="100" y="100" on="1"/>
        <pt x="100" y="500" on="1"/>
        <pt x="200" y="500" on="1"/>
        <pt x="200" y="600" on="1"/>
        <pt x="600" y="600" on="1"/>
        <pt x="600" y="500" on="1"/>
        <pt x="700" y="500" on="1"/>
        <pt x="700" y="100" on="1"/>
        <pt x="600" y="100" on="1"/>
        <pt x="600" y="0" on="1"/>
        <pt x="200" y="0" on="1"/>
        <pt x="200" y="100" on="1"/>
      </contour>
      <contour>
        <pt x="300" y="100" on="1"/>
        <pt x="500" y="100" on="1"/>
        <pt x="500" y="500" on="1"/>
        <pt x="300" y="500" on="1"/>
      </contour>
    </TTGlyph>
    <TTGlyph name="oacute" xMin="100" yMin="0" xMax="700" yMax="900">
      <contour>
        <pt x="100" y="100" on="1"/>
        <pt x="100" y="500" on="1"/>
        <pt x="200" y="500" on="1"/>
        <pt x="200" y="600" on="1"/>
        <pt x="600" y="600" on="1"/>
        <pt x="600" y="500" on="1"/>
        <pt x="700" y="500" on="1"/>
        <pt x="700" y="100" on="1"/>
        <pt x="600" y="100" on="1"/>
        <pt x="600" y="0" on="1"/>
        <pt x="200" y="0" on="1"/>
        <pt x="200" y="100" on="1"/>
      </contour>
      <contour>
        <pt x="300" y="100" on="1"/>
        <pt x="500" y="100" on="1"/>
        <pt x="500" y="500" on="1"/>
        <pt x="300" y="500" on="1"/>
      </contour>
      <contour>
        <pt x="300" y="700" on="1"/>
        <pt x="300" y="800" on="1"/>
        <pt x="400" y="800" on="1"/>
        <pt x="400" y="900" on="1"/>
        <pt x="600" y="900" on="1"/>
        <pt x="600" y="800" on="1"/>
        <pt x="500" y="800" on="1"/>
        <pt x="500" y="700" on="1"/>
      </contour>
    </TTGlyph>
    <TTGlyph name="ocircumflex" xMin="100" yMin="0" xMax="700" yMax="1000">
      <contour>
        <pt x="200" y="100" on="1"/>
        <pt x="100" y="100" on="1"/>
        <pt x="100" y="500" on="1"/>
        <pt x="200" y="500" on="1"/>
        <pt x="200" y="600" on="1"/>
        <pt x="600" y="600" on="1"/>
        <pt x="600" y="500" on="1"/>
        <pt x="700" y="500" on="1"/>
        <pt x="700" y="100" on="1"/>
        <pt x="600" y="100" on="1"/>
        <pt x="600" y="0" on="1"/>
        <pt x="200" y="0" on="1"/>
      </contour>
      <contour>
        <pt x="200" y="800" on="1"/>
        <pt x="200" y="900" on="1"/>
        <pt x="300" y="900" on="1"/>
        <pt x="300" y="1000" on="1"/>
        <pt x="500" y="1000" on="1"/>
        <pt x="500" y="900" on="1"/>
        <pt x="600" y="900" on="1"/>
        <pt x="600" y="800" on="1"/>
        <pt x="700" y="800" on="1"/>
        <pt x="700" y="700" on="1"/>
        <pt x="500" y="700" on="1"/>
        <pt x="500" y="800" on="1"/>
        <pt x="300" y="800" on="1"/>
        <pt x="300" y="700" on="1"/>
        <pt x="100" y="700" on="1"/>
        <pt x="100" y="800" on="1"/>
      </contour>
      <contour>
        <pt x="300" y="100" on="1"/>
        <pt x="500" y="100" on="1"/>
        <pt x="500" y="500" on="1"/>
        <pt x="300" y="500" on="1"/>
      </contour>
    </TTGlyph>
    <TTGlyph name="odieresis" xMin="100" yMin="0" xMax="700" yMax="900">
      <contour>
        <pt x="100" y="100" on="1"/>
        <pt x="100" y="500" on="1"/>
        <pt x="200" y="500" on="1"/>
        <pt x="200" y="600" on="1"/>
        <pt x="600" y="600" on="1"/>
        <pt x="600" y="500" on="1"/>
        <pt x="700" y="500" on="1"/>
        <pt x="700" y="100" on="1"/>
        <pt x="600" y="100" on="1"/>
        <pt x="600" y="0" on="1"/>
        <pt x="200" y="0" on="1"/>
        <pt x="200" y="100" on="1"/>
      </contour>
      <contour>
        <pt x="100" y="700" on="1"/>
        <pt x="100" y="900" on="1"/>
        <pt x="300" y="900" on="1"/>
        <pt x="300" y="700" on="1"/>
      </contour>
      <contour>
        <pt x="300" y="100" on="1"/>
        <pt x="500" y="100" on="1"/>
        <pt x="500" y="500" on="1"/>
        <pt x="300" y="500" on="1"/>
      </contour>
      <contour>
        <pt x="500" y="700" on="1"/>
        <pt x="500" y="900" on="1"/>
        <pt x="700" y="900" on="1"/>
        <pt x="700" y="700" on="1"/>
      </contour>
    </TTGlyph>
    <TTGlyph name="ograve" xMin="100" yMin="0" xMax="700" yMax="900">
      <contour>
        <pt x="100" y="100" on="1"/>
        <pt x="100" y="500" on="1"/>
        <pt x="200" y="500" on="1"/>
        <pt x="200" y="600" on="1"/>
        <pt x="600" y="600" on="1"/>
        <pt x="600" y="500" on="1"/>
        <pt x="700" y="500" on="1"/>
        <pt x="700" y="100" on="1"/>
        <pt x="600" y="100" on="1"/>
        <pt x="600" y="0" on="1"/>
        <pt x="200" y="0" on="1"/>
        <pt x="200" y="100" on="1"/>
      </contour>
      <contour>
        <pt x="200" y="800" on="1"/>
        <pt x="200" y="900" on="1"/>
        <pt x="400" y="900" on="1"/>
        <pt x="400" y="800" on="1"/>
        <pt x="500" y="800" on="1"/>
        <pt x="500" y="700" on="1"/>
        <pt x="300" y="700" on="1"/>
        <pt x="300" y="800" on="1"/>
      </contour>
      <contour>
        <pt x="300" y="100" on="1"/>
        <pt x="500" y="100" on="1"/>
        <pt x="500" y="500" on="1"/>
        <pt x="300" y="500" on="1"/>
      </contour>
    </TTGlyph>
    <TTGlyph name="one" xMin="100" yMin="0" xMax="700" yMax="800">
      <contour>
        <pt x="100" y="0" on="1"/>
        <pt x="100" y="100" on="1"/>
        <pt x="300" y="100" on="1"/>
        <pt x="300" y="500" on="1"/>
        <pt x="100" y="500" on="1"/>
        <pt x="100" y="600" on="1"/>
        <pt x="200" y="600" on="1"/>
        <pt x="200" y="700" on="1"/>
        <pt x="300" y="700" on="1"/>
        <pt x="300" y="800" on="1"/>
        <pt x="500" y="800" on="1"/>
        <pt x="500" y="100" on="1"/>
        <pt x="700" y="100" on="1"/>
        <pt x="700" y="0" on="1"/>
      </contour>
    </TTGlyph>
    <TTGlyph name="oslash" xMin="100" yMin="-100" xMax="800" yMax="700">
      <contour>
        <pt x="200" y="100" on="1"/>
        <pt x="100" y="100" on="1"/>
        <pt x="100" y="500" on="1"/>
        <pt x="200" y="500" on="1"/>
        <pt x="200" y="600" on="1"/>
        <pt x="600" y="600" on="1"/>
        <pt x="600" y="700" on="1"/>
        <pt x="700" y="700" on="1"/>
        <pt x="700" y="500" on="1"/>
        <pt x="800" y="500" on="1"/>
        <pt x="800" y="100" on="1"/>
        <pt x="700" y="100" on="1"/>
        <pt x="700" y="0" on="1"/>
        <pt x="300" y="0" on="1"/>
        <pt x="300" y="-100" on="1"/>
        <pt x="200" y="-100" on="1"/>
      </contour>
      <contour>
        <pt x="400" y="200" on="1"/>
        <pt x="400" y="100" on="1"/>
        <pt x="600" y="100" on="1"/>
        <pt x="600" y="400" on="1"/>
        <pt x="500" y="400" on="1"/>
        <pt x="500" y="500" on="1"/>
        <pt x="300" y="500" on="1"/>
        <pt x="300" y="200" on="1"/>
      </contour>
      <contour>
        <pt x="400" y="400" on="1"/>
        <pt x="500" y="400" on="1"/>
        <pt x="500" y="200" on="1"/>
        <pt x="400" y="200" on="1"/>
      </contour>
    </TTGlyph>
    <TTGlyph name="otilde" xMin="100" yMin="0" xMax="700" yMax="1000">
      <contour>
        <pt x="200" y="100" on="1"/>
        <pt x="100" y="100" on="1"/>
        <pt x="100" y="500" on="1"/>
        <pt x="200" y="500" on="1"/>
        <pt x="200" y="600" on="1"/>
        <pt x="600" y="600" on="1"/>
        <pt x="600" y="500" on="1"/>
        <pt x="700" y="500" on="1"/>
        <pt x="700" y="100" on="1"/>
        <pt x="600" y="100" on="1"/>
        <pt x="600" y="0" on="1"/>
        <pt x="200" y="0" on="1"/>
      </contour>
      <contour>
        <pt x="200" y="700" on="1"/>
        <pt x="100" y="700" on="1"/>
        <pt x="100" y="900" on="1"/>
        <pt x="200" y="900" on="1"/>
        <pt x="200" y="1000" on="1"/>
        <pt x="400" y="1000" on="1"/>
        <pt x="400" y="900" on="1"/>
        <pt x="600" y="900" on="1"/>
        <pt x="600" y="1000" on="1"/>
        <pt x="700" y="1000" on="1"/>
        <pt x="700" y="800" on="1"/>
        <pt x="600" y="800" on="1"/>
        <pt x="600" y="700" on="1"/>
        <pt x="400" y="700" on="1"/>
        <pt x="400" y="800" on="1"/>
        <pt x="200" y="800" on="1"/>
      </contour>
      <contour>
        <pt x="300" y="100" on="1"/>
        <pt x="500" y="100" on="1"/>
        <pt x="500" y="500" on="1"/>
        <pt x="300" y="500" on="1"/>
      </contour>
    </TTGlyph>
    <TTGlyph name="p" xMin="100" yMin="-300" xMax="700" yMax="600">
      <contour>
        <pt x="100" y="-300" on="1"/>
        <pt x="100" y="600" on="1"/>
        <pt x="600" y="600" on="1"/>
        <pt x="600" y="500" on="1"/>
        <pt x="700" y="500" on="1"/>
        <pt x="700" y="100" on="1"/>
        <pt x="600" y="100" on="1"/>
        <pt x="600" y="0" on="1"/>
        <pt x="300" y="0" on="1"/>
        <pt x="300" y="-300" on="1"/>
      </contour>
      <contour>
        <pt x="300" y="100" on="1"/>
        <pt x="500" y="100" on="1"/>
        <pt x="500" y="500" on="1"/>
        <pt x="300" y="500" on="1"/>
      </contour>
    </TTGlyph>
    <TTGlyph name="parenleft" xMin="200" yMin="-200" xMax="600" yMax="900">
      <contour>
        <pt x="200" y="100" on="1"/>
        <pt x="200" y="600" on="1"/>
        <pt x="300" y="600" on="1"/>
        <pt x="300" y="800" on="1"/>
        <pt x="400" y="800" on="1"/>
        <pt x="400" y="900" on="1"/>
        <pt x="600" y="900" on="1"/>
        <pt x="600" y="800" on="1"/>
        <pt x="500" y="800" on="1"/>
        <pt x="500" y="600" on="1"/>
        <pt x="400" y="600" on="1"/>
        <pt x="400" y="100" on="1"/>
        <pt x="500" y="100" on="1"/>
        <pt x="500" y="-100" on="1"/>
        <pt x="600" y="-100" on="1"/>
        <pt x="600" y="-200" on="1"/>
        <pt x="400" y="-200" on="1"/>
        <pt x="400" y="-100" on="1"/>
        <pt x="300" y="-100" on="1"/>
        <pt x="300" y="100" on="1"/>
      </contour>
    </TTGlyph>
    <TTGlyph name="parenright" xMin="200" yMin="-200" xMax="600" yMax="900">
      <contour>
        <pt x="200" y="-200" on="1"/>
        <pt x="200" y="-100" on="1"/>
        <pt x="300" y="-100" on="1"/>
        <pt x="300" y="100" on="1"/>
        <pt x="400" y="100" on="1"/>
        <pt x="400" y="600" on="1"/>
        <pt x="300" y="600" on="1"/>
        <pt x="300" y="800" on="1"/>
        <pt x="200" y="800" on="1"/>
        <pt x="200" y="900" on="1"/>
        <pt x="400" y="900" on="1"/>
        <pt x="400" y="800" on="1"/>
        <pt x="500" y="800" on="1"/>
        <pt x="500" y="600" on="1"/>
        <pt x="600" y="600" on="1"/>
        <pt x="600" y="100" on="1"/>
        <pt x="500" y="100" on="1"/>
        <pt x="500" y="-100" on="1"/>
        <pt x="400" y="-100" on="1"/>
        <pt x="400" y="-200" on="1"/>
      </contour>
    </TTGlyph>
    <TTGlyph name="percent" xMin="100" yMin="0" xMax="800" yMax="900">
      <contour>
        <pt x="200" y="200" on="1"/>
        <pt x="200" y="100" on="1"/>
        <pt x="100" y="100" on="1"/>
        <pt x="100" y="200" on="1"/>
      </contour>
      <contour>
        <pt x="200" y="500" on="1"/>
        <pt x="200" y="600" on="1"/>
        <pt x="100" y="600" on="1"/>
        <pt x="100" y="800" on="1"/>
        <pt x="200" y="800" on="1"/>
        <pt x="200" y="900" on="1"/>
        <pt x="500" y="900" on="1"/>
        <pt x="500" y="800" on="1"/>
        <pt x="600" y="800" on="1"/>
        <pt x="600" y="700" on="1"/>
        <pt x="700" y="700" on="1"/>
        <pt x="700" y="600" on="1"/>
        <pt x="600" y="600" on="1"/>
        <pt x="600" y="500" on="1"/>
        <pt x="500" y="500" on="1"/>
        <pt x="500" y="400" on="1"/>
        <pt x="700" y="400" on="1"/>
        <pt x="700" y="300" on="1"/>
        <pt x="800" y="300" on="1"/>
        <pt x="800" y="100" on="1"/>
        <pt x="700" y="100" on="1"/>
        <pt x="700" y="0" on="1"/>
        <pt x="400" y="0" on="1"/>
        <pt x="400" y="100" on="1"/>
        <pt x="300" y="100" on="1"/>
        <pt x="300" y="200" on="1"/>
        <pt x="200" y="200" on="1"/>
        <pt x="200" y="300" on="1"/>
        <pt x="300" y="300" on="1"/>
        <pt x="300" y="400" on="1"/>
        <pt x="400" y="400" on="1"/>
        <pt x="400" y="500" on="1"/>
      </contour>
      <contour>
        <pt x="400" y="600" on="1"/>
        <pt x="400" y="800" on="1"/>
        <pt x="300" y="800" on="1"/>
        <pt x="300" y="600" on="1"/>
      </contour>
      <contour>
        <pt x="600" y="100" on="1"/>
        <pt x="600" y="300" on="1"/>
        <pt x="500" y="300" on="1"/>
        <pt x="500" y="100" on="1"/>
      </contour>
      <contour>
        <pt x="800" y="700" on="1"/>
        <pt x="700" y="700" on="1"/>
        <pt x="700" y="800" on="1"/>
        <pt x="800" y="800" on="1"/>
      </contour>
    </TTGlyph>
    <TTGlyph name="period" xMin="200" yMin="0" xMax="500" yMax="200">
      <contour>
        <pt x="500" y="200" on="1"/>
        <pt x="500" y="0" on="1"/>
        <pt x="200" y="0" on="1"/>
        <pt x="200" y="200" on="1"/>
      </contour>
    </TTGlyph>
    <TTGlyph name="plus" xMin="0" yMin="0" xMax="800" yMax="700">
      <contour>
        <pt x="0" y="300" on="1"/>
        <pt x="0" y="400" on="1"/>
        <pt x="300" y="400" on="1"/>
        <pt x="300" y="700" on="1"/>
        <pt x="500" y="700" on="1"/>
        <pt x="500" y="400" on="1"/>
        <pt x="800" y="400" on="1"/>
        <pt x="800" y="300" on="1"/>
        <pt x="500" y="300" on="1"/>
        <pt x="500" y="0" on="1"/>
        <pt x="300" y="0" on="1"/>
        <pt x="300" y="300" on="1"/>
      </contour>
    </TTGlyph>
    <TTGlyph name="q" xMin="100" yMin="-300" xMax="700" yMax="600">
      <contour>
        <pt x="100" y="100" on="1"/>
        <pt x="100" y="500" on="1"/>
        <pt x="200" y="500" on="1"/>
        <pt x="200" y="600" on="1"/>
        <pt x="700" y="600" on="1"/>
        <pt x="700" y="-300" on="1"/>
        <pt x="500" y="-300" on="1"/>
        <pt x="500" y="0" on="1"/>
        <pt x="200" y="0" on="1"/>
        <pt x="200" y="100" on="1"/>
      </contour>
      <contour>
        <pt x="300" y="100" on="1"/>
        <pt x="500" y="100" on="1"/>
        <pt x="500" y="500" on="1"/>
        <pt x="300" y="500" on="1"/>
      </contour>
    </TTGlyph>
    <TTGlyph name="question" xMin="100" yMin="0" xMax="700" yMax="900">
      <contour>
        <pt x="100" y="700" on="1"/>
        <pt x="100" y="800" on="1"/>
        <pt x="200" y="800" on="1"/>
        <pt x="200" y="700" on="1"/>
      </contour>
      <contour>
        <pt x="200" y="800" on="1"/>
        <pt x="200" y="900" on="1"/>
        <pt x="600" y="900" on="1"/>
        <pt x="600" y="800" on="1"/>
        <pt x="700" y="800" on="1"/>
        <pt x="700" y="600" on="1"/>
        <pt x="600" y="600" on="1"/>
        <pt x="600" y="500" on="1"/>
        <pt x="500" y="500" on="1"/>
        <pt x="500" y="400" on="1"/>
        <pt x="300" y="400" on="1"/>
        <pt x="300" y="500" on="1"/>
        <pt x="400" y="500" on="1"/>
        <pt x="400" y="600" on="1"/>
        <pt x="500" y="600" on="1"/>
        <pt x="500" y="800" on="1"/>
      </contour>
      <contour>
        <pt x="300" y="200" on="1"/>
        <pt x="500" y="200" on="1"/>
        <pt x="500" y="0" on="1"/>
        <pt x="300" y="0" on="1"/>
      </contour>
    </TTGlyph>
    <TTGlyph name="questiondown" xMin="100" yMin="-300" xMax="700" yMax="600">
      <contour>
        <pt x="100" y="0" on="1"/>
        <pt x="200" y="0" on="1"/>
        <pt x="200" y="100" on="1"/>
        <pt x="300" y="100" on="1"/>
        <pt x="300" y="200" on="1"/>
        <pt x="500" y="200" on="1"/>
        <pt x="500" y="100" on="1"/>
        <pt x="400" y="100" on="1"/>
        <pt x="400" y="0" on="1"/>
        <pt x="300" y="0" on="1"/>
        <pt x="300" y="-200" on="1"/>
        <pt x="600" y="-200" on="1"/>
        <pt x="600" y="-300" on="1"/>
        <pt x="200" y="-300" on="1"/>
        <pt x="200" y="-200" on="1"/>
        <pt x="100" y="-200" on="1"/>
      </contour>
      <contour>
        <pt x="300" y="400" on="1"/>
        <pt x="300" y="600" on="1"/>
        <pt x="500" y="600" on="1"/>
        <pt x="500" y="400" on="1"/>
      </contour>
      <contour>
        <pt x="600" y="-200" on="1"/>
        <pt x="600" y="-100" on="1"/>
        <pt x="700" y="-100" on="1"/>
        <pt x="700" y="-200" on="1"/>
      </contour>
    </TTGlyph>
    <TTGlyph name="quotedbl" xMin="100" yMin="500" xMax="600" yMax="900">
      <contour>
        <pt x="400" y="500" on="1"/>
        <pt x="400" y="900" on="1"/>
        <pt x="600" y="900" on="1"/>
        <pt x="600" y="500" on="1"/>
      </contour>
      <contour>
        <pt x="100" y="500" on="1"/>
        <pt x="100" y="900" on="1"/>
        <pt x="300" y="900" on="1"/>
        <pt x="300" y="500" on="1"/>
      </contour>
    </TTGlyph>
    <TTGlyph name="quotesingle" xMin="300" yMin="500" xMax="500" yMax="900">
      <contour>
        <pt x="500" y="500" on="1"/>
        <pt x="300" y="500" on="1"/>
        <pt x="300" y="900" on="1"/>
        <pt x="500" y="900" on="1"/>
      </contour>
    </TTGlyph>
    <TTGlyph name="r" xMin="100" yMin="0" xMax="700" yMax="600">
      <contour>
        <pt x="400" y="500" on="1"/>
        <pt x="400" y="400" on="1"/>
        <pt x="300" y="400" on="1"/>
        <pt x="300" y="0" on="1"/>
        <pt x="100" y="0" on="1"/>
        <pt x="100" y="600" on="1"/>
        <pt x="300" y="600" on="1"/>
        <pt x="300" y="500" on="1"/>
      </contour>
      <contour>
        <pt x="400" y="600" on="1"/>
        <pt x="700" y="600" on="1"/>
        <pt x="700" y="500" on="1"/>
        <pt x="400" y="500" on="1"/>
      </contour>
    </TTGlyph>
    <TTGlyph name="s" xMin="100" yMin="0" xMax="700" yMax="600">
      <contour>
        <pt x="100" y="0" on="1"/>
        <pt x="100" y="100" on="1"/>
        <pt x="500" y="100" on="1"/>
        <pt x="500" y="200" on="1"/>
        <pt x="300" y="200" on="1"/>
        <pt x="300" y="300" on="1"/>
        <pt x="200" y="300" on="1"/>
        <pt x="200" y="400" on="1"/>
        <pt x="100" y="400" on="1"/>
        <pt x="100" y="500" on="1"/>
        <pt x="200" y="500" on="1"/>
        <pt x="200" y="600" on="1"/>
        <pt x="700" y="600" on="1"/>
        <pt x="700" y="500" on="1"/>
        <pt x="300" y="500" on="1"/>
        <pt x="300" y="400" on="1"/>
        <pt x="500" y="400" on="1"/>
        <pt x="500" y="300" on="1"/>
        <pt x="600" y="300" on="1"/>
        <pt x="600" y="200" on="1"/>
        <pt x="700" y="200" on="1"/>
        <pt x="700" y="100" on="1"/>
        <pt x="600" y="100" on="1"/>
        <pt x="600" y="0" on="1"/>
      </contour>
    </TTGlyph>
    <TTGlyph name="semicolon" xMin="200" yMin="-300" xMax="500" yMax="700">
      <contour>
        <pt x="200" y="-200" on="1"/>
        <pt x="300" y="-200" on="1"/>
        <pt x="300" y="0" on="1"/>
        <pt x="200" y="0" on="1"/>
        <pt x="200" y="200" on="1"/>
        <pt x="500" y="200" on="1"/>
        <pt x="500" y="-200" on="1"/>
        <pt x="400" y="-200" on="1"/>
        <pt x="400" y="-300" on="1"/>
        <pt x="200" y="-300" on="1"/>
      </contour>
      <contour>
        <pt x="200" y="500" on="1"/>
        <pt x="200" y="700" on="1"/>
        <pt x="500" y="700" on="1"/>
        <pt x="500" y="500" on="1"/>
      </contour>
    </TTGlyph>
    <TTGlyph name="seven" xMin="100" yMin="0" xMax="700" yMax="800">
      <contour>
        <pt x="100" y="700" on="1"/>
        <pt x="100" y="800" on="1"/>
        <pt x="700" y="800" on="1"/>
        <pt x="700" y="600" on="1"/>
        <pt x="600" y="600" on="1"/>
        <pt x="600" y="400" on="1"/>
        <pt x="500" y="400" on="1"/>
        <pt x="500" y="200" on="1"/>
        <pt x="400" y="200" on="1"/>
        <pt x="400" y="0" on="1"/>
        <pt x="200" y="0" on="1"/>
        <pt x="200" y="200" on="1"/>
        <pt x="300" y="200" on="1"/>
        <pt x="300" y="400" on="1"/>
        <pt x="400" y="400" on="1"/>
        <pt x="400" y="600" on="1"/>
        <pt x="500" y="600" on="1"/>
        <pt x="500" y="700" on="1"/>
      </contour>
    </TTGlyph>
    <TTGlyph name="six" xMin="100" yMin="0" xMax="700" yMax="800">
      <contour>
        <pt x="100" y="100" on="1"/>
        <pt x="100" y="600" on="1"/>
        <pt x="200" y="600" on="1"/>
        <pt x="200" y="700" on="1"/>
        <pt x="300" y="700" on="1"/>
        <pt x="300" y="800" on="1"/>
        <pt x="500" y="800" on="1"/>
        <pt x="500" y="700" on="1"/>
        <pt x="400" y="700" on="1"/>
        <pt x="400" y="600" on="1"/>
        <pt x="300" y="600" on="1"/>
        <pt x="300" y="500" on="1"/>
        <pt x="600" y="500" on="1"/>
        <pt x="600" y="400" on="1"/>
        <pt x="700" y="400" on="1"/>
        <pt x="700" y="100" on="1"/>
        <pt x="600" y="100" on="1"/>
        <pt x="600" y="0" on="1"/>
        <pt x="200" y="0" on="1"/>
        <pt x="200" y="100" on="1"/>
      </contour>
      <contour>
        <pt x="300" y="100" on="1"/>
        <pt x="500" y="100" on="1"/>
        <pt x="500" y="400" on="1"/>
        <pt x="300" y="400" on="1"/>
      </contour>
    </TTGlyph>
    <TTGlyph name="slash" xMin="100" yMin="-200" xMax="700" yMax="800">
      <contour>
        <pt x="100" y="0" on="1"/>
        <pt x="200" y="0" on="1"/>
        <pt x="200" y="200" on="1"/>
        <pt x="300" y="200" on="1"/>
        <pt x="300" y="400" on="1"/>
        <pt x="400" y="400" on="1"/>
        <pt x="400" y="600" on="1"/>
        <pt x="500" y="600" on="1"/>
        <pt x="500" y="800" on="1"/>
        <pt x="700" y="800" on="1"/>
        <pt x="700" y="600" on="1"/>
        <pt x="600" y="600" on="1"/>
        <pt x="600" y="400" on="1"/>
        <pt x="500" y="400" on="1"/>
        <pt x="500" y="200" on="1"/>
        <pt x="400" y="200" on="1"/>
        <pt x="400" y="0" on="1"/>
        <pt x="300" y="0" on="1"/>
        <pt x="300" y="-200" on="1"/>
        <pt x="100" y="-200" on="1"/>
      </contour>
    </TTGlyph>
    <TTGlyph name="sterling" xMin="100" yMin="0" xMax="700" yMax="800">
      <contour>
        <pt x="100" y="0" on="1"/>
        <pt x="100" y="100" on="1"/>
        <pt x="200" y="100" on="1"/>
        <pt x="200" y="300" on="1"/>
        <pt x="100" y="300" on="1"/>
        <pt x="100" y="400" on="1"/>
        <pt x="200" y="400" on="1"/>
        <pt x="200" y="700" on="1"/>
        <pt x="300" y="700" on="1"/>
        <pt x="300" y="800" on="1"/>
        <pt x="600" y="800" on="1"/>
        <pt x="600" y="700" on="1"/>
        <pt x="700" y="700" on="1"/>
        <pt x="700" y="600" on="1"/>
        <pt x="500" y="600" on="1"/>
        <pt x="500" y="700" on="1"/>
        <pt x="400" y="700" on="1"/>
        <pt x="400" y="400" on="1"/>
        <pt x="600" y="400" on="1"/>
        <pt x="600" y="300" on="1"/>
        <pt x="400" y="300" on="1"/>
        <pt x="400" y="100" on="1"/>
        <pt x="700" y="100" on="1"/>
        <pt x="700" y="0" on="1"/>
      </contour>
    </TTGlyph>
    <TTGlyph name="t" xMin="100" yMin="0" xMax="700" yMax="800">
      <contour>
        <pt x="100" y="500" on="1"/>
        <pt x="100" y="600" on="1"/>
        <pt x="200" y="600" on="1"/>
        <pt x="200" y="800" on="1"/>
        <pt x="400" y="800" on="1"/>
        <pt x="400" y="600" on="1"/>
        <pt x="700" y="600" on="1"/>
        <pt x="700" y="500" on="1"/>
        <pt x="400" y="500" on="1"/>
        <pt x="400" y="100" on="1"/>
        <pt x="700" y="100" on="1"/>
        <pt x="700" y="0" on="1"/>
        <pt x="300" y="0" on="1"/>
        <pt x="300" y="100" on="1"/>
        <pt x="200" y="100" on="1"/>
        <pt x="200" y="500" on="1"/>
      </contour>
    </TTGlyph>
    <TTGlyph name="thorn" xMin="100" yMin="-300" xMax="700" yMax="900">
      <contour>
        <pt x="100" y="-300" on="1"/>
        <pt x="100" y="900" on="1"/>
        <pt x="300" y="900" on="1"/>
        <pt x="300" y="600" on="1"/>
        <pt x="600" y="600" on="1"/>
        <pt x="600" y="500" on="1"/>
        <pt x="700" y="500" on="1"/>
        <pt x="700" y="100" on="1"/>
        <pt x="600" y="100" on="1"/>
        <pt x="600" y="0" on="1"/>
        <pt x="300" y="0" on="1"/>
        <pt x="300" y="-300" on="1"/>
      </contour>
      <contour>
        <pt x="300" y="100" on="1"/>
        <pt x="500" y="100" on="1"/>
        <pt x="500" y="500" on="1"/>
        <pt x="300" y="500" on="1"/>
      </contour>
    </TTGlyph>
    <TTGlyph name="three" xMin="100" yMin="0" xMax="700" yMax="800">
      <contour>
        <pt x="100" y="100" on="1"/>
        <pt x="100" y="200" on="1"/>
        <pt x="300" y="200" on="1"/>
        <pt x="300" y="100" on="1"/>
        <pt x="500" y="100" on="1"/>
        <pt x="500" y="400" on="1"/>
        <pt x="300" y="400" on="1"/>
        <pt x="300" y="500" on="1"/>
        <pt x="400" y="500" on="1"/>
        <pt x="400" y="600" on="1"/>
        <pt x="500" y="600" on="1"/>
        <pt x="500" y="700" on="1"/>
        <pt x="100" y="700" on="1"/>
        <pt x="100" y="800" on="1"/>
        <pt x="700" y="800" on="1"/>
        <pt x="700" y="600" on="1"/>
        <pt x="600" y="600" on="1"/>
        <pt x="600" y="400" on="1"/>
        <pt x="700" y="400" on="1"/>
        <pt x="700" y="100" on="1"/>
        <pt x="600" y="100" on="1"/>
        <pt x="600" y="0" on="1"/>
        <pt x="200" y="0" on="1"/>
        <pt x="200" y="100" on="1"/>
      </contour>
    </TTGlyph>
    <TTGlyph name="two" xMin="100" yMin="0" xMax="700" yMax="800">
      <contour>
        <pt x="200" y="200" on="1"/>
        <pt x="200" y="300" on="1"/>
        <pt x="300" y="300" on="1"/>
        <pt x="300" y="400" on="1"/>
        <pt x="400" y="400" on="1"/>
        <pt x="400" y="500" on="1"/>
        <pt x="500" y="500" on="1"/>
        <pt x="500" y="700" on="1"/>
        <pt x="300" y="700" on="1"/>
        <pt x="300" y="600" on="1"/>
        <pt x="100" y="600" on="1"/>
        <pt x="100" y="700" on="1"/>
        <pt x="200" y="700" on="1"/>
        <pt x="200" y="800" on="1"/>
        <pt x="600" y="800" on="1"/>
        <pt x="600" y="700" on="1"/>
        <pt x="700" y="700" on="1"/>
        <pt x="700" y="500" on="1"/>
        <pt x="600" y="500" on="1"/>
        <pt x="600" y="400" on="1"/>
        <pt x="500" y="400" on="1"/>
        <pt x="500" y="300" on="1"/>
        <pt x="400" y="300" on="1"/>
        <pt x="400" y="200" on="1"/>
        <pt x="300" y="200" on="1"/>
        <pt x="300" y="100" on="1"/>
        <pt x="700" y="100" on="1"/>
        <pt x="700" y="0" on="1"/>
        <pt x="100" y="0" on="1"/>
        <pt x="100" y="200" on="1"/>
      </contour>
    </TTGlyph>
    <TTGlyph name="u" xMin="100" yMin="0" xMax="700" yMax="600">
      <contour>
        <pt x="100" y="100" on="1"/>
        <pt x="100" y="600" on="1"/>
        <pt x="300" y="600" on="1"/>
        <pt x="300" y="100" on="1"/>
        <pt x="500" y="100" on="1"/>
        <pt x="500" y="600" on="1"/>
        <pt x="700" y="600" on="1"/>
        <pt x="700" y="0" on="1"/>
        <pt x="200" y="0" on="1"/>
        <pt x="200" y="100" on="1"/>
      </contour>
    </TTGlyph>
    <TTGlyph name="uacute" xMin="100" yMin="0" xMax="700" yMax="900">
      <contour>
        <pt x="100" y="100" on="1"/>
        <pt x="100" y="600" on="1"/>
        <pt x="300" y="600" on="1"/>
        <pt x="300" y="100" on="1"/>
        <pt x="500" y="100" on="1"/>
        <pt x="500" y="600" on="1"/>
        <pt x="700" y="600" on="1"/>
        <pt x="700" y="0" on="1"/>
        <pt x="200" y="0" on="1"/>
        <pt x="200" y="100" on="1"/>
      </contour>
      <contour>
        <pt x="300" y="700" on="1"/>
        <pt x="300" y="800" on="1"/>
        <pt x="400" y="800" on="1"/>
        <pt x="400" y="900" on="1"/>
        <pt x="600" y="900" on="1"/>
        <pt x="600" y="800" on="1"/>
        <pt x="500" y="800" on="1"/>
        <pt x="500" y="700" on="1"/>
      </contour>
    </TTGlyph>
    <TTGlyph name="ucircumflex" xMin="100" yMin="0" xMax="700" yMax="1000">
      <contour>
        <pt x="200" y="100" on="1"/>
        <pt x="100" y="100" on="1"/>
        <pt x="100" y="600" on="1"/>
        <pt x="300" y="600" on="1"/>
        <pt x="300" y="100" on="1"/>
        <pt x="500" y="100" on="1"/>
        <pt x="500" y="600" on="1"/>
        <pt x="700" y="600" on="1"/>
        <pt x="700" y="0" on="1"/>
        <pt x="200" y="0" on="1"/>
      </contour>
      <contour>
        <pt x="200" y="800" on="1"/>
        <pt x="200" y="900" on="1"/>
        <pt x="300" y="900" on="1"/>
        <pt x="300" y="1000" on="1"/>
        <pt x="500" y="1000" on="1"/>
        <pt x="500" y="900" on="1"/>
        <pt x="600" y="900" on="1"/>
        <pt x="600" y="800" on="1"/>
        <pt x="700" y="800" on="1"/>
        <pt x="700" y="700" on="1"/>
        <pt x="500" y="700" on="1"/>
        <pt x="500" y="800" on="1"/>
        <pt x="300" y="800" on="1"/>
        <pt x="300" y="700" on="1"/>
        <pt x="100" y="700" on="1"/>
        <pt x="100" y="800" on="1"/>
      </contour>
    </TTGlyph>
    <TTGlyph name="udieresis" xMin="100" yMin="0" xMax="700" yMax="900">
      <contour>
        <pt x="100" y="100" on="1"/>
        <pt x="100" y="600" on="1"/>
        <pt x="300" y="600" on="1"/>
        <pt x="300" y="100" on="1"/>
        <pt x="500" y="100" on="1"/>
        <pt x="500" y="600" on="1"/>
        <pt x="700" y="600" on="1"/>
        <pt x="700" y="0" on="1"/>
        <pt x="200" y="0" on="1"/>
        <pt x="200" y="100" on="1"/>
      </contour>
      <contour>
        <pt x="100" y="700" on="1"/>
        <pt x="100" y="900" on="1"/>
        <pt x="300" y="900" on="1"/>
        <pt x="300" y="700" on="1"/>
      </contour>
      <contour>
        <pt x="500" y="700" on="1"/>
        <pt x="500" y="900" on="1"/>
        <pt x="700" y="900" on="1"/>
        <pt x="700" y="700" on="1"/>
      </contour>
    </TTGlyph>
    <TTGlyph name="ugrave" xMin="100" yMin="0" xMax="700" yMax="900">
      <contour>
        <pt x="100" y="100" on="1"/>
        <pt x="100" y="600" on="1"/>
        <pt x="300" y="600" on="1"/>
        <pt x="300" y="100" on="1"/>
        <pt x="500" y="100" on="1"/>
        <pt x="500" y="600" on="1"/>
        <pt x="700" y="600" on="1"/>
        <pt x="700" y="0" on="1"/>
        <pt x="200" y="0" on="1"/>
        <pt x="200" y="100" on="1"/>
      </contour>
      <contour>
        <pt x="200" y="800" on="1"/>
        <pt x="200" y="900" on="1"/>
        <pt x="400" y="900" on="1"/>
        <pt x="400" y="800" on="1"/>
        <pt x="500" y="800" on="1"/>
        <pt x="500" y="700" on="1"/>
        <pt x="300" y="700" on="1"/>
        <pt x="300" y="800" on="1"/>
      </contour>
    </TTGlyph>
    <TTGlyph name="underscore" xMin="0" yMin="-200" xMax="800" yMax="-100">
      <contour>
        <pt x="0" y="-200" on="1"/>
        <pt x="0" y="-100" on="1"/>
        <pt x="800" y="-100" on="1"/>
        <pt x="800" y="-200" on="1"/>
      </contour>
    </TTGlyph>
    <TTGlyph name="uni0002" xMin="0" yMin="-300" xMax="800" yMax="1200">
      <contour>
        <pt x="0" y="200" on="1"/>
        <pt x="0" y="300" on="1"/>
        <pt x="100" y="300" on="1"/>
        <pt x="100" y="200" on="1"/>
      </contour>
      <contour>
        <pt x="0" y="0" on="1"/>
        <pt x="0" y="100" on="1"/>
        <pt x="100" y="100" on="1"/>
        <pt x="100" y="0" on="1"/>
      </contour>
      <contour>
        <pt x="0" y="-200" on="1"/>
        <pt x="0" y="-100" on="1"/>
        <pt x="100" y="-100" on="1"/>
        <pt x="100" y="-200" on="1"/>
      </contour>
      <contour>
        <pt x="0" y="400" on="1"/>
        <pt x="0" y="500" on="1"/>
        <pt x="100" y="500" on="1"/>
        <pt x="100" y="400" on="1"/>
      </contour>
      <contour>
        <pt x="0" y="600" on="1"/>
        <pt x="0" y="700" on="1"/>
        <pt x="100" y="700" on="1"/>
        <pt x="100" y="600" on="1"/>
      </contour>
      <contour>
        <pt x="0" y="1000" on="1"/>
        <pt x="0" y="1100" on="1"/>
        <pt x="100" y="1100" on="1"/>
        <pt x="100" y="1000" on="1"/>
      </contour>
      <contour>
        <pt x="0" y="800" on="1"/>
        <pt x="0" y="900" on="1"/>
        <pt x="100" y="900" on="1"/>
        <pt x="100" y="800" on="1"/>
      </contour>
      <contour>
        <pt x="800" y="200" on="1"/>
        <pt x="800" y="100" on="1"/>
        <pt x="700" y="100" on="1"/>
        <pt x="700" y="200" on="1"/>
      </contour>
      <contour>
        <pt x="800" y="0" on="1"/>
        <pt x="800" y="-100" on="1"/>
        <pt x="700" y="-100" on="1"/>
        <pt x="700" y="0" on="1"/>
      </contour>
      <contour>
        <pt x="800" y="-200" on="1"/>
        <pt x="800" y="-300" on="1"/>
        <pt x="700" y="-300" on="1"/>
        <pt x="700" y="-200" on="1"/>
      </contour>
      <contour>
        <pt x="800" y="500" on="1"/>
        <pt x="700" y="500" on="1"/>
        <pt x="700" y="600" on="1"/>
        <pt x="800" y="600" on="1"/>
      </contour>
      <contour>
        <pt x="800" y="400" on="1"/>
        <pt x="800" y="300" on="1"/>
        <pt x="700" y="300" on="1"/>
        <pt x="700" y="400" on="1"/>
      </contour>
      <contour>
        <pt x="800" y="700" on="1"/>
        <pt x="700" y="700" on="1"/>
        <pt x="700" y="800" on="1"/>
        <pt x="800" y="800" on="1"/>
      </contour>
      <contour>
        <pt x="800" y="1000" on="1"/>
        <pt x="800" y="900" on="1"/>
        <pt x="700" y="900" on="1"/>
        <pt x="700" y="1000" on="1"/>
      </contour>
      <contour>
        <pt x="800" y="1200" on="1"/>
        <pt x="800" y="1100" on="1"/>
        <pt x="700" y="1100" on="1"/>
        <pt x="700" y="1200" on="1"/>
      </contour>
      <contour>
        <pt x="300" y="1100" on="1"/>
        <pt x="300" y="1200" on="1"/>
        <pt x="400" y="1200" on="1"/>
        <pt x="400" y="1100" on="1"/>
      </contour>
      <contour>
        <pt x="300" y="200" on="1"/>
        <pt x="400" y="200" on="1"/>
        <pt x="400" y="100" on="1"/>
        <pt x="300" y="100" on="1"/>
      </contour>
      <contour>
        <pt x="300" y="100" on="1"/>
        <pt x="300" y="0" on="1"/>
        <pt x="200" y="0" on="1"/>
        <pt x="200" y="100" on="1"/>
      </contour>
      <contour>
        <pt x="300" y="0" on="1"/>
        <pt x="400" y="0" on="1"/>
        <pt x="400" y="-100" on="1"/>
        <pt x="300" y="-100" on="1"/>
      </contour>
      <contour>
        <pt x="300" y="-100" on="1"/>
        <pt x="300" y="-200" on="1"/>
        <pt x="200" y="-200" on="1"/>
        <pt x="200" y="-100" on="1"/>
      </contour>
      <contour>
        <pt x="300" y="-200" on="1"/>
        <pt x="400" y="-200" on="1"/>
        <pt x="400" y="-300" on="1"/>
        <pt x="300" y="-300" on="1"/>
      </contour>
      <contour>
        <pt x="300" y="500" on="1"/>
        <pt x="300" y="400" on="1"/>
        <pt x="200" y="400" on="1"/>
        <pt x="200" y="500" on="1"/>
      </contour>
      <contour>
        <pt x="300" y="400" on="1"/>
        <pt x="400" y="400" on="1"/>
        <pt x="400" y="300" on="1"/>
        <pt x="300" y="300" on="1"/>
      </contour>
      <contour>
        <pt x="300" y="300" on="1"/>
        <pt x="300" y="200" on="1"/>
        <pt x="200" y="200" on="1"/>
        <pt x="200" y="300" on="1"/>
      </contour>
      <contour>
        <pt x="300" y="700" on="1"/>
        <pt x="300" y="600" on="1"/>
        <pt x="200" y="600" on="1"/>
        <pt x="200" y="700" on="1"/>
      </contour>
      <contour>
        <pt x="300" y="600" on="1"/>
        <pt x="400" y="600" on="1"/>
        <pt x="400" y="500" on="1"/>
        <pt x="300" y="500" on="1"/>
      </contour>
      <contour>
        <pt x="300" y="1000" on="1"/>
        <pt x="400" y="1000" on="1"/>
        <pt x="400" y="900" on="1"/>
        <pt x="300" y="900" on="1"/>
      </contour>
      <contour>
        <pt x="300" y="900" on="1"/>
        <pt x="300" y="800" on="1"/>
        <pt x="200" y="800" on="1"/>
        <pt x="200" y="900" on="1"/>
      </contour>
      <contour>
        <pt x="300" y="800" on="1"/>
        <pt x="400" y="800" on="1"/>
        <pt x="400" y="700" on="1"/>
        <pt x="300" y="700" on="1"/>
      </contour>
      <contour>
        <pt x="600" y="200" on="1"/>
        <pt x="600" y="100" on="1"/>
        <pt x="500" y="100" on="1"/>
        <pt x="500" y="200" on="1"/>
      </contour>
      <contour>
        <pt x="600" y="100" on="1"/>
        <pt x="700" y="100" on="1"/>
        <pt x="700" y="0" on="1"/>
        <pt x="600" y="0" on="1"/>
      </contour>
      <contour>
        <pt x="600" y="0" on="1"/>
        <pt x="600" y="-100" on="1"/>
        <pt x="500" y="-100" on="1"/>
        <pt x="500" y="0" on="1"/>
      </contour>
      <contour>
        <pt x="600" y="-100" on="1"/>
        <pt x="700" y="-100" on="1"/>
        <pt x="700" y="-200" on="1"/>
        <pt x="600" y="-200" on="1"/>
      </contour>
      <contour>
        <pt x="600" y="-200" on="1"/>
        <pt x="600" y="-300" on="1"/>
        <pt x="500" y="-300" on="1"/>
        <pt x="500" y="-200" on="1"/>
      </contour>
      <contour>
        <pt x="600" y="500" on="1"/>
        <pt x="500" y="500" on="1"/>
        <pt x="500" y="600" on="1"/>
        <pt x="600" y="600" on="1"/>
      </contour>
      <contour>
        <pt x="600" y="400" on="1"/>
        <pt x="600" y="500" on="1"/>
        <pt x="700" y="500" on="1"/>
        <pt x="700" y="400" on="1"/>
      </contour>
      <contour>
        <pt x="600" y="300" on="1"/>
        <pt x="500" y="300" on="1"/>
        <pt x="500" y="400" on="1"/>
        <pt x="600" y="400" on="1"/>
      </contour>
      <contour>
        <pt x="600" y="700" on="1"/>
        <pt x="500" y="700" on="1"/>
        <pt x="500" y="800" on="1"/>
        <pt x="600" y="800" on="1"/>
      </contour>
      <contour>
        <pt x="600" y="600" on="1"/>
        <pt x="600" y="700" on="1"/>
        <pt x="700" y="700" on="1"/>
        <pt x="700" y="600" on="1"/>
      </contour>
      <contour>
        <pt x="600" y="1000" on="1"/>
        <pt x="600" y="900" on="1"/>
        <pt x="500" y="900" on="1"/>
        <pt x="500" y="1000" on="1"/>
      </contour>
      <contour>
        <pt x="600" y="900" on="1"/>
        <pt x="700" y="900" on="1"/>
        <pt x="700" y="800" on="1"/>
        <pt x="600" y="800" on="1"/>
      </contour>
      <contour>
        <pt x="600" y="1200" on="1"/>
        <pt x="600" y="1100" on="1"/>
        <pt x="500" y="1100" on="1"/>
        <pt x="500" y="1200" on="1"/>
      </contour>
      <contour>
        <pt x="600" y="1100" on="1"/>
        <pt x="700" y="1100" on="1"/>
        <pt x="700" y="1000" on="1"/>
        <pt x="600" y="1000" on="1"/>
      </contour>
      <contour>
        <pt x="100" y="1100" on="1"/>
        <pt x="100" y="1200" on="1"/>
        <pt x="200" y="1200" on="1"/>
        <pt x="200" y="1100" on="1"/>
      </contour>
      <contour>
        <pt x="100" y="200" on="1"/>
        <pt x="200" y="200" on="1"/>
        <pt x="200" y="100" on="1"/>
        <pt x="100" y="100" on="1"/>
      </contour>
      <contour>
        <pt x="100" y="0" on="1"/>
        <pt x="200" y="0" on="1"/>
        <pt x="200" y="-100" on="1"/>
        <pt x="100" y="-100" on="1"/>
      </contour>
      <contour>
        <pt x="100" y="-200" on="1"/>
        <pt x="200" y="-200" on="1"/>
        <pt x="200" y="-300" on="1"/>
        <pt x="100" y="-300" on="1"/>
      </contour>
      <contour>
        <pt x="100" y="500" on="1"/>
        <pt x="100" y="600" on="1"/>
        <pt x="200" y="600" on="1"/>
        <pt x="200" y="500" on="1"/>
      </contour>
      <contour>
        <pt x="100" y="400" on="1"/>
        <pt x="200" y="400" on="1"/>
        <pt x="200" y="300" on="1"/>
        <pt x="100" y="300" on="1"/>
      </contour>
      <contour>
        <pt x="100" y="700" on="1"/>
        <pt x="100" y="800" on="1"/>
        <pt x="200" y="800" on="1"/>
        <pt x="200" y="700" on="1"/>
      </contour>
      <contour>
        <pt x="100" y="1000" on="1"/>
        <pt x="200" y="1000" on="1"/>
        <pt x="200" y="900" on="1"/>
        <pt x="100" y="900" on="1"/>
      </contour>
      <contour>
        <pt x="400" y="200" on="1"/>
        <pt x="400" y="300" on="1"/>
        <pt x="500" y="300" on="1"/>
        <pt x="500" y="200" on="1"/>
      </contour>
      <contour>
        <pt x="400" y="100" on="1"/>
        <pt x="500" y="100" on="1"/>
        <pt x="500" y="0" on="1"/>
        <pt x="400" y="0" on="1"/>
      </contour>
      <contour>
        <pt x="400" y="-100" on="1"/>
        <pt x="500" y="-100" on="1"/>
        <pt x="500" y="-200" on="1"/>
        <pt x="400" y="-200" on="1"/>
      </contour>
      <contour>
        <pt x="400" y="500" on="1"/>
        <pt x="500" y="500" on="1"/>
        <pt x="500" y="400" on="1"/>
        <pt x="400" y="400" on="1"/>
      </contour>
      <contour>
        <pt x="400" y="700" on="1"/>
        <pt x="500" y="700" on="1"/>
        <pt x="500" y="600" on="1"/>
        <pt x="400" y="600" on="1"/>
      </contour>
      <contour>
        <pt x="400" y="1000" on="1"/>
        <pt x="400" y="1100" on="1"/>
        <pt x="500" y="1100" on="1"/>
        <pt x="500" y="1000" on="1"/>
      </contour>
      <contour>
        <pt x="400" y="900" on="1"/>
        <pt x="500" y="900" on="1"/>
        <pt x="500" y="800" on="1"/>
        <pt x="400" y="800" on="1"/>
      </contour>
      <contour>
        <pt x="700" y="200" on="1"/>
        <pt x="600" y="200" on="1"/>
        <pt x="600" y="300" on="1"/>
        <pt x="700" y="300" on="1"/>
      </contour>
      <contour>
        <pt x="200" y="1000" on="1"/>
        <pt x="200" y="1100" on="1"/>
        <pt x="300" y="1100" on="1"/>
        <pt x="300" y="1000" on="1"/>
      </contour>
    </TTGlyph>
    <TTGlyph name="uni0007" xMin="100" yMin="300" xMax="700" yMax="800">
      <contour>
        <pt x="100" y="400" on="1"/>
        <pt x="100" y="700" on="1"/>
        <pt x="200" y="700" on="1"/>
        <pt x="200" y="800" on="1"/>
        <pt x="600" y="800" on="1"/>
        <pt x="600" y="700" on="1"/>
        <pt x="700" y="700" on="1"/>
        <pt x="700" y="400" on="1"/>
        <pt x="600" y="400" on="1"/>
        <pt x="600" y="300" on="1"/>
        <pt x="200" y="300" on="1"/>
        <pt x="200" y="400" on="1"/>
      </contour>
      <contour>
        <pt x="300" y="400" on="1"/>
        <pt x="500" y="400" on="1"/>
        <pt x="500" y="700" on="1"/>
        <pt x="300" y="700" on="1"/>
      </contour>
    </TTGlyph>
    <TTGlyph name="uni000B" xMin="0" yMin="300" xMax="500" yMax="1200">
      <contour>
        <pt x="500" y="1200" on="1"/>
        <pt x="500" y="300" on="1"/>
        <pt x="0" y="300" on="1"/>
        <pt x="0" y="400" on="1"/>
        <pt x="300" y="400" on="1"/>
        <pt x="300" y="1200" on="1"/>
      </contour>
    </TTGlyph>
    <TTGlyph name="uni000C" xMin="0" yMin="-300" xMax="500" yMax="400">
      <contour>
        <pt x="0" y="300" on="1"/>
        <pt x="0" y="400" on="1"/>
        <pt x="500" y="400" on="1"/>
        <pt x="500" y="-300" on="1"/>
        <pt x="300" y="-300" on="1"/>
        <pt x="300" y="300" on="1"/>
      </contour>
    </TTGlyph>
    <TTGlyph name="uni000E" xMin="300" yMin="300" xMax="800" yMax="1200">
      <contour>
        <pt x="500" y="1200" on="1"/>
        <pt x="500" y="400" on="1"/>
        <pt x="800" y="400" on="1"/>
        <pt x="800" y="300" on="1"/>
        <pt x="300" y="300" on="1"/>
        <pt x="300" y="1200" on="1"/>
      </contour>
    </TTGlyph>
    <TTGlyph name="uni000F" xMin="0" yMin="-300" xMax="800" yMax="1200">
      <contour>
        <pt x="500" y="1200" on="1"/>
        <pt x="500" y="400" on="1"/>
        <pt x="800" y="400" on="1"/>
        <pt x="800" y="300" on="1"/>
        <pt x="500" y="300" on="1"/>
        <pt x="500" y="-300" on="1"/>
        <pt x="300" y="-300" on="1"/>
        <pt x="300" y="300" on="1"/>
        <pt x="0" y="300" on="1"/>
        <pt x="0" y="400" on="1"/>
        <pt x="300" y="400" on="1"/>
        <pt x="300" y="1200" on="1"/>
      </contour>
    </TTGlyph>
    <TTGlyph name="uni0012" xMin="0" yMin="300" xMax="800" yMax="400">
      <contour>
        <pt x="0" y="300" on="1"/>
        <pt x="0" y="400" on="1"/>
        <pt x="800" y="400" on="1"/>
        <pt x="800" y="300" on="1"/>
      </contour>
    </TTGlyph>
    <TTGlyph name="uni0015" xMin="300" yMin="-300" xMax="800" yMax="1200">
      <contour>
        <pt x="500" y="1200" on="1"/>
        <pt x="500" y="400" on="1"/>
        <pt x="800" y="400" on="1"/>
        <pt x="800" y="300" on="1"/>
        <pt x="500" y="300" on="1"/>
        <pt x="500" y="-300" on="1"/>
        <pt x="300" y="-300" on="1"/>
        <pt x="300" y="1200" on="1"/>
      </contour>
    </TTGlyph>
    <TTGlyph name="uni0016" xMin="0" yMin="-300" xMax="500" yMax="1200">
      <contour>
        <pt x="500" y="1200" on="1"/>
        <pt x="500" y="-300" on="1"/>
        <pt x="300" y="-300" on="1"/>
        <pt x="300" y="300" on="1"/>
        <pt x="0" y="300" on="1"/>
        <pt x="0" y="400" on="1"/>
        <pt x="300" y="400" on="1"/>
        <pt x="300" y="1200" on="1"/>
      </contour>
    </TTGlyph>
    <TTGlyph name="uni0017" xMin="0" yMin="300" xMax="800" yMax="1200">
      <contour>
        <pt x="500" y="1200" on="1"/>
        <pt x="500" y="400" on="1"/>
        <pt x="800" y="400" on="1"/>
        <pt x="800" y="300" on="1"/>
        <pt x="0" y="300" on="1"/>
        <pt x="0" y="400" on="1"/>
        <pt x="300" y="400" on="1"/>
        <pt x="300" y="1200" on="1"/>
      </contour>
    </TTGlyph>
    <TTGlyph name="uni0018" xMin="0" yMin="-300" xMax="800" yMax="400">
      <contour>
        <pt x="0" y="300" on="1"/>
        <pt x="0" y="400" on="1"/>
        <pt x="800" y="400" on="1"/>
        <pt x="800" y="300" on="1"/>
        <pt x="500" y="300" on="1"/>
        <pt x="500" y="-300" on="1"/>
        <pt x="300" y="-300" on="1"/>
        <pt x="300" y="300" on="1"/>
      </contour>
    </TTGlyph>
    <TTGlyph name="uni0019" xMin="300" yMin="-300" xMax="500" yMax="1200">
      <contour>
        <pt x="500" y="1200" on="1"/>
        <pt x="500" y="-300" on="1"/>
        <pt x="300" y="-300" on="1"/>
        <pt x="300" y="1200" on="1"/>
      </contour>
    </TTGlyph>
    <TTGlyph name="uni001E" xMin="100" yMin="0" xMax="700" yMax="800">
      <contour>
        <pt x="100" y="0" on="1"/>
        <pt x="100" y="100" on="1"/>
        <pt x="200" y="100" on="1"/>
        <pt x="200" y="300" on="1"/>
        <pt x="100" y="300" on="1"/>
        <pt x="100" y="400" on="1"/>
        <pt x="200" y="400" on="1"/>
        <pt x="200" y="700" on="1"/>
        <pt x="300" y="700" on="1"/>
        <pt x="300" y="800" on="1"/>
        <pt x="600" y="800" on="1"/>
        <pt x="600" y="700" on="1"/>
        <pt x="700" y="700" on="1"/>
        <pt x="700" y="600" on="1"/>
        <pt x="500" y="600" on="1"/>
        <pt x="500" y="700" on="1"/>
        <pt x="400" y="700" on="1"/>
        <pt x="400" y="400" on="1"/>
        <pt x="600" y="400" on="1"/>
        <pt x="600" y="300" on="1"/>
        <pt x="400" y="300" on="1"/>
        <pt x="400" y="100" on="1"/>
        <pt x="700" y="100" on="1"/>
        <pt x="700" y="0" on="1"/>
      </contour>
    </TTGlyph>
    <TTGlyph name="v" xMin="100" yMin="0" xMax="700" yMax="600">
      <contour>
        <pt x="100" y="200" on="1"/>
        <pt x="100" y="600" on="1"/>
        <pt x="300" y="600" on="1"/>
        <pt x="300" y="200" on="1"/>
        <pt x="500" y="200" on="1"/>
        <pt x="500" y="600" on="1"/>
        <pt x="700" y="600" on="1"/>
        <pt x="700" y="200" on="1"/>
        <pt x="600" y="200" on="1"/>
        <pt x="600" y="100" on="1"/>
        <pt x="500" y="100" on="1"/>
        <pt x="500" y="0" on="1"/>
        <pt x="300" y="0" on="1"/>
        <pt x="300" y="100" on="1"/>
        <pt x="200" y="100" on="1"/>
        <pt x="200" y="200" on="1"/>
      </contour>
    </TTGlyph>
    <TTGlyph name="w" xMin="100" yMin="0" xMax="800" yMax="600">
      <contour>
        <pt x="800" y="100" on="1"/>
        <pt x="700" y="100" on="1"/>
        <pt x="700" y="0" on="1"/>
        <pt x="100" y="0" on="1"/>
        <pt x="100" y="600" on="1"/>
        <pt x="300" y="600" on="1"/>
        <pt x="300" y="100" on="1"/>
        <pt x="400" y="100" on="1"/>
        <pt x="400" y="600" on="1"/>
        <pt x="500" y="600" on="1"/>
        <pt x="500" y="100" on="1"/>
        <pt x="600" y="100" on="1"/>
        <pt x="600" y="600" on="1"/>
        <pt x="800" y="600" on="1"/>
      </contour>
    </TTGlyph>
    <TTGlyph name="x" xMin="100" yMin="0" xMax="800" yMax="600">
      <contour>
        <pt x="200" y="100" on="1"/>
        <pt x="200" y="200" on="1"/>
        <pt x="300" y="200" on="1"/>
        <pt x="300" y="400" on="1"/>
        <pt x="200" y="400" on="1"/>
        <pt x="200" y="500" on="1"/>
        <pt x="100" y="500" on="1"/>
        <pt x="100" y="600" on="1"/>
        <pt x="300" y="600" on="1"/>
        <pt x="300" y="500" on="1"/>
        <pt x="400" y="500" on="1"/>
        <pt x="400" y="400" on="1"/>
        <pt x="500" y="400" on="1"/>
        <pt x="500" y="500" on="1"/>
        <pt x="600" y="500" on="1"/>
        <pt x="600" y="600" on="1"/>
        <pt x="800" y="600" on="1"/>
        <pt x="800" y="500" on="1"/>
        <pt x="700" y="500" on="1"/>
        <pt x="700" y="400" on="1"/>
        <pt x="600" y="400" on="1"/>
        <pt x="600" y="200" on="1"/>
        <pt x="700" y="200" on="1"/>
        <pt x="700" y="100" on="1"/>
        <pt x="800" y="100" on="1"/>
        <pt x="800" y="0" on="1"/>
        <pt x="600" y="0" on="1"/>
        <pt x="600" y="100" on="1"/>
        <pt x="500" y="100" on="1"/>
        <pt x="500" y="200" on="1"/>
        <pt x="400" y="200" on="1"/>
        <pt x="400" y="100" on="1"/>
        <pt x="300" y="100" on="1"/>
        <pt x="300" y="0" on="1"/>
        <pt x="100" y="0" on="1"/>
        <pt x="100" y="100" on="1"/>
      </contour>
    </TTGlyph>
    <TTGlyph name="y" xMin="100" yMin="-300" xMax="700" yMax="600">
      <contour>
        <pt x="100" y="100" on="1"/>
        <pt x="100" y="600" on="1"/>
        <pt x="300" y="600" on="1"/>
        <pt x="300" y="100" on="1"/>
        <pt x="500" y="100" on="1"/>
        <pt x="500" y="600" on="1"/>
        <pt x="700" y="600" on="1"/>
        <pt x="700" y="-200" on="1"/>
        <pt x="600" y="-200" on="1"/>
        <pt x="600" y="-300" on="1"/>
        <pt x="200" y="-300" on="1"/>
        <pt x="200" y="-200" on="1"/>
        <pt x="500" y="-200" on="1"/>
        <pt x="500" y="0" on="1"/>
        <pt x="200" y="0" on="1"/>
        <pt x="200" y="100" on="1"/>
      </contour>
    </TTGlyph>
    <TTGlyph name="yacute" xMin="100" yMin="-300" xMax="700" yMax="900">
      <contour>
        <pt x="100" y="100" on="1"/>
        <pt x="100" y="600" on="1"/>
        <pt x="300" y="600" on="1"/>
        <pt x="300" y="100" on="1"/>
        <pt x="500" y="100" on="1"/>
        <pt x="500" y="600" on="1"/>
        <pt x="700" y="600" on="1"/>
        <pt x="700" y="-200" on="1"/>
        <pt x="600" y="-200" on="1"/>
        <pt x="600" y="-300" on="1"/>
        <pt x="200" y="-300" on="1"/>
        <pt x="200" y="-200" on="1"/>
        <pt x="500" y="-200" on="1"/>
        <pt x="500" y="0" on="1"/>
        <pt x="200" y="0" on="1"/>
        <pt x="200" y="100" on="1"/>
      </contour>
      <contour>
        <pt x="200" y="800" on="1"/>
        <pt x="200" y="900" on="1"/>
        <pt x="400" y="900" on="1"/>
        <pt x="400" y="800" on="1"/>
        <pt x="500" y="800" on="1"/>
        <pt x="500" y="700" on="1"/>
        <pt x="300" y="700" on="1"/>
        <pt x="300" y="800" on="1"/>
      </contour>
    </TTGlyph>
    <TTGlyph name="ydieresis" xMin="100" yMin="-300" xMax="700" yMax="900">
      <contour>
        <pt x="100" y="100" on="1"/>
        <pt x="100" y="600" on="1"/>
        <pt x="300" y="600" on="1"/>
        <pt x="300" y="100" on="1"/>
        <pt x="500" y="100" on="1"/>
        <pt x="500" y="600" on="1"/>
        <pt x="700" y="600" on="1"/>
        <pt x="700" y="-200" on="1"/>
        <pt x="600" y="-200" on="1"/>
        <pt x="600" y="-300" on="1"/>
        <pt x="200" y="-300" on="1"/>
        <pt x="200" y="-200" on="1"/>
        <pt x="500" y="-200" on="1"/>
        <pt x="500" y="0" on="1"/>
        <pt x="200" y="0" on="1"/>
        <pt x="200" y="100" on="1"/>
      </contour>
      <contour>
        <pt x="100" y="700" on="1"/>
        <pt x="100" y="900" on="1"/>
        <pt x="300" y="900" on="1"/>
        <pt x="300" y="700" on="1"/>
      </contour>
      <contour>
        <pt x="500" y="700" on="1"/>
        <pt x="500" y="900" on="1"/>
        <pt x="700" y="900" on="1"/>
        <pt x="700" y="700" on="1"/>
      </contour>
    </TTGlyph>
    <TTGlyph name="yen" xMin="100" yMin="0" xMax="700" yMax="800">
      <contour>
        <pt x="200" y="500" on="1"/>
        <pt x="200" y="600" on="1"/>
        <pt x="100" y="600" on="1"/>
        <pt x="100" y="800" on="1"/>
        <pt x="300" y="800" on="1"/>
        <pt x="300" y="600" on="1"/>
        <pt x="500" y="600" on="1"/>
        <pt x="500" y="800" on="1"/>
        <pt x="700" y="800" on="1"/>
        <pt x="700" y="600" on="1"/>
        <pt x="600" y="600" on="1"/>
        <pt x="600" y="500" on="1"/>
        <pt x="700" y="500" on="1"/>
        <pt x="700" y="400" on="1"/>
        <pt x="500" y="400" on="1"/>
        <pt x="500" y="300" on="1"/>
        <pt x="700" y="300" on="1"/>
        <pt x="700" y="200" on="1"/>
        <pt x="500" y="200" on="1"/>
        <pt x="500" y="0" on="1"/>
        <pt x="300" y="0" on="1"/>
        <pt x="300" y="200" on="1"/>
        <pt x="100" y="200" on="1"/>
        <pt x="100" y="300" on="1"/>
        <pt x="300" y="300" on="1"/>
        <pt x="300" y="400" on="1"/>
        <pt x="100" y="400" on="1"/>
        <pt x="100" y="500" on="1"/>
      </contour>
    </TTGlyph>
    <TTGlyph name="z" xMin="100" yMin="0" xMax="700" yMax="600">
      <contour>
        <pt x="100" y="200" on="1"/>
        <pt x="200" y="200" on="1"/>
        <pt x="200" y="300" on="1"/>
        <pt x="300" y="300" on="1"/>
        <pt x="300" y="400" on="1"/>
        <pt x="400" y="400" on="1"/>
        <pt x="400" y="500" on="1"/>
        <pt x="100" y="500" on="1"/>
        <pt x="100" y="600" on="1"/>
        <pt x="700" y="600" on="1"/>
        <pt x="700" y="500" on="1"/>
        <pt x="600" y="500" on="1"/>
        <pt x="600" y="400" on="1"/>
        <pt x="500" y="400" on="1"/>
        <pt x="500" y="300" on="1"/>
        <pt x="400" y="300" on="1"/>
        <pt x="400" y="200" on="1"/>
        <pt x="300" y="200" on="1"/>
        <pt x="300" y="100" on="1"/>
        <pt x="700" y="100" on="1"/>
        <pt x="700" y="0" on="1"/>
        <pt x="100" y="0" on="1"/>
      </contour>
    </TTGlyph>
    <TTGlyph name="zero" xMin="100" yMin="0" xMax="700" yMax="800">
      <contour>
        <pt x="100" y="100" on="1"/>
        <pt x="100" y="700" on="1"/>
        <pt x="200" y="700" on="1"/>
        <pt x="200" y="800" on="1"/>
        <pt x="600" y="800" on="1"/>
        <pt x="600" y="700" on="1"/>
        <pt x="700" y="700" on="1"/>
        <pt x="700" y="100" on="1"/>
        <pt x="600" y="100" on="1"/>
        <pt x="600" y="0" on="1"/>
        <pt x="200" y="0" on="1"/>
        <pt x="200" y="100" on="1"/>
      </contour>
      <contour>
        <pt x="300" y="200" on="1"/>
        <pt x="300" y="100" on="1"/>
        <pt x="500" y="100" on="1"/>
        <pt x="500" y="400" on="1"/>
        <pt x="400" y="400" on="1"/>
        <pt x="400" y="600" on="1"/>
        <pt x="500" y="600" on="1"/>
        <pt x="500" y="700" on="1"/>
        <pt x="300" y="700" on="1"/>
        <pt x="300" y="400" on="1"/>
        <pt x="400" y="400" on="1"/>
        <pt x="400" y="200" on="1"/>
      </contour>
    </TTGlyph>
</ttFont>
